<?xml version="1.0" encoding="UTF-8"?><svg id="Layer_2" xmlns="http://www.w3.org/2000/svg" viewBox="0 0 73.09 66"><defs><style>.cls-1{fill:#fb4a2e;}.cls-2{fill:#0070af;}.cls-3{fill:#fff;}.cls-4,.cls-5{fill:#feaf10;}.cls-6{fill:#40c1d3;}.cls-5{stroke:#fcfcfc;}.cls-5,.cls-7{stroke-miterlimit:10;}.cls-7{fill:none;stroke:#feaf10;}</style></defs><g id="Layer_10"><rect class="cls-6" width="45.02" height="52.25" rx="3.17" ry="3.17"/><rect class="cls-2" x="8.71" y="6.88" width="45.02" height="52.25" rx="3.17" ry="3.17"/><rect class="cls-6" x="18.02" y="13.75" width="45.02" height="52.25" rx="3.17" ry="3.17"/><rect class="cls-7" x="26.22" y="20.56" width="28.6" height="33.05" rx="3.17" ry="3.17"/><ellipse class="cls-1" cx="51.05" cy="25.77" rx=".95" ry="1"/><ellipse class="cls-1" cx="51.05" cy="37" rx=".95" ry="1"/><ellipse class="cls-3" cx="50.63" cy="48.4" rx=".88" ry="1.01"/><ellipse class="cls-1" cx="46.62" cy="25.77" rx=".95" ry="1"/><ellipse class="cls-1" cx="46.62" cy="37" rx=".95" ry="1"/><ellipse class="cls-3" cx="46.55" cy="48.4" rx=".88" ry="1.01"/><rect class="cls-1" x="29.88" y="25.26" width="7.7" height="1.05"/><rect class="cls-1" x="29.88" y="36.57" width="7.7" height="1.05"/><rect class="cls-3" x="29.88" y="47.87" width="7.7" height="1.05"/><rect class="cls-4" x="26.25" y="31.06" width="28.97" height="1.05"/><rect class="cls-4" x="26.25" y="42.08" width="28.97" height="1.05"/><path class="cls-5" d="M72.21,51.58l-12.88-9.99c-.65-.5-1.59-.04-1.59,.78v4.93H3.79c-.38,0-.7,.31-.7,.7v8.74c0,.38,.31,.7,.7,.7H57.74v4.93c0,.82,.94,1.28,1.59,.78l12.88-9.99c.51-.39,.51-1.16,0-1.55Z"/></g></svg>