<?xml version="1.0" encoding="UTF-8"?><svg id="Layer_2" xmlns="http://www.w3.org/2000/svg" viewBox="0 0 72.59 66"><defs><style>.cls-1{fill:#0070af;}.cls-2{fill:#fff;}.cls-3{fill:#feaf10;}.cls-4{fill:#40c1d3;}.cls-5{fill:none;stroke:#fff;stroke-miterlimit:10;}</style></defs><g id="Layer_9"><rect class="cls-4" width="45.02" height="52.25" rx="3.17" ry="3.17"/><rect class="cls-1" x="8.71" y="6.88" width="45.02" height="52.25" rx="3.17" ry="3.17"/><rect class="cls-4" x="18.02" y="13.75" width="45.02" height="52.25" rx="3.17" ry="3.17"/><rect class="cls-5" x="26.22" y="20.56" width="28.6" height="33.05" rx="3.17" ry="3.17"/><ellipse class="cls-2" cx="50.63" cy="25.78" rx=".88" ry="1.01"/><ellipse class="cls-2" cx="50.63" cy="37.09" rx=".88" ry="1.01"/><ellipse class="cls-2" cx="50.63" cy="48.4" rx=".88" ry="1.01"/><ellipse class="cls-2" cx="46.55" cy="25.78" rx=".88" ry="1.01"/><ellipse class="cls-2" cx="46.55" cy="37.09" rx=".88" ry="1.01"/><ellipse class="cls-2" cx="46.55" cy="48.4" rx=".88" ry="1.01"/><rect class="cls-2" x="29.88" y="25.26" width="7.7" height="1.05"/><rect class="cls-2" x="29.88" y="36.57" width="7.7" height="1.05"/><rect class="cls-2" x="29.88" y="47.87" width="7.7" height="1.05"/><rect class="cls-2" x="26.25" y="31.06" width="28.97" height="1.05"/><rect class="cls-2" x="26.25" y="42.08" width="28.97" height="1.05"/></g><g id="Layer_10"><g><path class="cls-3" d="M72.21,51.58l-12.88-9.99c-.65-.5-1.59-.04-1.59,.78v19.98c0,.82,.94,1.28,1.59,.78l12.88-9.99c.51-.39,.51-1.16,0-1.55Z"/><rect class="cls-3" x="3.09" y="47.29" width="59.8" height="10.13" rx=".7" ry=".7"/></g></g></svg>