<svg width="73" height="81" viewBox="0 0 73 81" fill="none" xmlns="http://www.w3.org/2000/svg">
<g clip-path="url(#clip0_4_3928)" filter="url(#filter0_d_4_3928)">
<path fill-rule="evenodd" clip-rule="evenodd" d="M36.5063 6.50781V66.525C36.2063 66.525 35.9164 66.461 35.6363 66.334C4.19625 51.6799 11.3663 21.0179 11.3663 21.0179L36.5063 6.50781Z" fill="#0070AF"/>
<path fill-rule="evenodd" clip-rule="evenodd" d="M11.4662 37.0017H36.5063V66.5248C36.2063 66.5248 35.9164 66.4608 35.6363 66.3338C19.2563 58.7008 13.3562 46.7237 11.4662 37.0017Z" fill="#3EC1D3"/>
<path fill-rule="evenodd" clip-rule="evenodd" d="M36.4956 6.50781V66.525C36.7956 66.525 37.0856 66.461 37.3656 66.334C68.8057 51.6799 61.6357 21.0179 61.6357 21.0179L36.4956 6.50781Z" fill="#3EC1D3"/>
<path fill-rule="evenodd" clip-rule="evenodd" d="M61.5357 37.0017H36.4956V66.5248C36.7956 66.5248 37.0856 66.4608 37.3656 66.3338C53.7457 58.7008 59.6457 46.7237 61.5357 37.0017Z" fill="#0070AF"/>
<path d="M36.5065 53.0032C45.3557 53.0032 52.5294 45.8295 52.5294 36.9803C52.5294 28.131 45.3557 20.9573 36.5065 20.9573C27.6572 20.9573 20.4834 28.131 20.4834 36.9803C20.4834 45.8295 27.6572 53.0032 36.5065 53.0032Z" fill="#FEAF0F"/>
<path fill-rule="evenodd" clip-rule="evenodd" d="M36.4988 53.4977C27.3988 53.4977 20.0088 46.1067 20.0088 37.0026C20.0088 27.8986 27.3988 20.5076 36.4988 20.5076C45.6089 20.5076 52.9989 27.8986 52.9989 37.0026C52.9989 46.1067 45.6089 53.4977 36.4988 53.4977ZM35.9589 44.3237C33.9489 44.3747 32.0289 44.6417 30.2889 45.0867C30.8489 46.6357 31.5789 47.9887 32.4389 49.0737C33.4489 50.3627 34.6389 51.2607 35.9589 51.4567V44.3237ZM37.9589 44.3447V51.2067C38.9189 50.8177 39.7889 50.0597 40.5689 49.0737C41.4389 47.9717 42.1789 46.5917 42.7489 45.0107C41.2489 44.6517 39.6389 44.4227 37.9589 44.3447ZM44.6689 45.5637C43.9989 47.4517 43.1188 49.0907 42.0888 50.3807C44.0888 49.5437 45.8589 48.2707 47.2889 46.6807C46.4889 46.2577 45.6089 45.8827 44.6689 45.5637ZM28.3788 45.6667C27.4588 45.9937 26.6089 46.3737 25.8289 46.8007C27.2289 48.3347 28.9689 49.5657 30.9189 50.3807C29.8989 49.1137 29.0388 47.5107 28.3788 45.6667ZM25.1388 28.0086C23.1788 30.4806 22.0088 33.6056 22.0088 37.0026C22.0088 40.0616 22.9589 42.9007 24.5789 45.2417C24.6389 45.1837 24.7088 45.1327 24.7888 45.0897C25.6988 44.5847 26.6988 44.1367 27.7889 43.7547C27.2488 41.6937 26.9489 39.4076 26.9489 37.0026C26.9489 34.2216 27.3489 31.5996 28.0589 29.3006C27.0089 28.9296 26.0288 28.4956 25.1388 28.0086ZM48.1289 28.3466C47.1789 28.8166 46.1389 29.2296 45.0289 29.5746C45.6889 31.8076 46.0489 34.3316 46.0489 37.0026C46.0489 39.3676 45.7589 41.6177 45.2489 43.6507C46.4389 44.0517 47.5389 44.5337 48.5389 45.0817C50.0889 42.7717 50.9989 39.9916 50.9989 37.0026C50.9989 33.7586 49.9289 30.7616 48.1289 28.3466ZM29.9589 29.8816C29.3089 32.0016 28.9489 34.4286 28.9489 37.0026C28.9489 39.2006 29.2189 41.2916 29.6989 43.1747C31.6289 42.6767 33.7389 42.3767 35.9589 42.3237V30.7316C33.8289 30.6596 31.8089 30.3626 29.9589 29.8816ZM43.1089 30.0866C41.4889 30.4467 39.7589 30.6706 37.9589 30.7316V42.3427C39.8489 42.4247 41.6589 42.6866 43.329 43.0967C43.799 41.2336 44.0489 39.1696 44.0489 37.0026C44.0489 34.5106 43.7189 32.1567 43.1089 30.0866ZM35.9589 22.5486C34.6389 22.7446 33.4489 23.6426 32.4389 24.9316C31.7489 25.7956 31.1489 26.8296 30.6488 27.9966C32.2889 28.4086 34.0789 28.6626 35.9589 28.7296V22.5486ZM37.9589 22.7986V28.7296C39.5189 28.6736 41.0289 28.4866 42.4389 28.1866C41.9189 26.9416 41.2889 25.8416 40.5689 24.9316C39.7889 23.9446 38.9189 23.1876 37.9589 22.7986ZM42.0888 23.6236C42.9788 24.7386 43.7589 26.1136 44.3789 27.6836C45.2289 27.4236 46.0289 27.1196 46.7689 26.7776C45.4389 25.4416 43.8488 24.3626 42.0888 23.6236ZM30.9189 23.6236C29.2789 24.3076 27.7988 25.2836 26.5288 26.4846C27.2188 26.8326 27.9488 27.1456 28.7288 27.4206C29.3388 25.9596 30.0789 24.6756 30.9189 23.6236Z" fill="#F8FBFF"/>
</g>
<defs>
<filter id="filter0_d_4_3928" x="-5.5" y="-1" width="84" height="84" filterUnits="userSpaceOnUse" color-interpolation-filters="sRGB">
<feFlood flood-opacity="0" result="BackgroundImageFix"/>
<feColorMatrix in="SourceAlpha" type="matrix" values="0 0 0 0 0 0 0 0 0 0 0 0 0 0 0 0 0 0 127 0" result="hardAlpha"/>
<feOffset dy="4"/>
<feGaussianBlur stdDeviation="5"/>
<feColorMatrix type="matrix" values="0 0 0 0 0.0466927 0 0 0 0 0.0429688 0 0 0 0 0.229167 0 0 0 0.22 0"/>
<feBlend mode="normal" in2="BackgroundImageFix" result="effect1_dropShadow_4_3928"/>
<feBlend mode="normal" in="SourceGraphic" in2="effect1_dropShadow_4_3928" result="shape"/>
</filter>
<clipPath id="clip0_4_3928">
<rect width="64" height="64" fill="white" transform="translate(4.5 5)"/>
</clipPath>
</defs>
</svg>
