<svg width="64" height="64" viewBox="0 0 64 64" fill="none" xmlns="http://www.w3.org/2000/svg">
<path fill-rule="evenodd" clip-rule="evenodd" d="M56.1469 17.1015C56.1469 16.2714 55.8193 15.4745 55.2299 14.8875C54.6405 14.3005 53.8438 13.9714 53.0143 13.9714C44.2824 13.9714 19.7346 13.9714 11.0027 13.9714C10.1732 13.9714 9.37647 14.3005 8.78707 14.8875C8.20858 15.4745 7.87012 16.2714 7.87012 17.1015C7.87012 17.9315 8.20858 18.7275 8.78707 19.3145C9.37647 19.9015 10.1732 20.2315 11.0027 20.2315C19.7346 20.2315 44.2824 20.2315 53.0143 20.2315C53.8438 20.2315 54.6405 19.9015 55.2299 19.3145C55.8193 18.7275 56.1469 17.9315 56.1469 17.1015Z" fill="#3EC1D3"/>
<path fill-rule="evenodd" clip-rule="evenodd" d="M56.1469 33.5914C56.1469 32.7614 55.8193 31.9644 55.2299 31.3774C54.6405 30.7904 53.8438 30.4614 53.0143 30.4614C44.2824 30.4614 19.7346 30.4614 11.0027 30.4614C10.1732 30.4614 9.37647 30.7904 8.78707 31.3774C8.20858 31.9644 7.87012 32.7614 7.87012 33.5914C7.87012 34.4214 8.20858 35.2175 8.78707 35.8045C9.37647 36.3915 10.1732 36.7215 11.0027 36.7215C19.7346 36.7215 44.2824 36.7215 53.0143 36.7215C53.8438 36.7215 54.6405 36.3915 55.2299 35.8045C55.8193 35.2175 56.1469 34.4214 56.1469 33.5914Z" fill="#3EC1D3"/>
<path fill-rule="evenodd" clip-rule="evenodd" d="M55.3495 49.1449C55.3495 48.3149 55.0219 47.5179 54.4325 46.9309C53.8431 46.3439 53.0464 46.0149 52.2169 46.0149C43.485 46.0149 18.9372 46.0149 10.2053 46.0149C9.37579 46.0149 8.57911 46.3439 7.9897 46.9309C7.41121 47.5179 7.07275 48.3149 7.07275 49.1449C7.07275 49.9749 7.41121 50.7709 7.9897 51.3579C8.57911 51.9449 9.37579 52.2749 10.2053 52.2749C18.9372 52.2749 43.485 52.2749 52.2169 52.2749C53.0464 52.2749 53.8431 51.9449 54.4325 51.3579C55.0219 50.7709 55.3495 49.9749 55.3495 49.1449Z" fill="#3EC1D3"/>
<path fill-rule="evenodd" clip-rule="evenodd" d="M17.1702 11.3768C17.1702 10.5217 16.8265 9.69989 16.2206 9.09541C15.6147 8.48975 14.7917 8.15015 13.9416 8.15015C13.0644 8.15015 12.1057 8.15015 11.2285 8.15015C10.3694 8.15015 9.55543 8.48975 8.94951 9.09541C8.34359 9.69989 8 10.5217 8 11.3768C8 14.6165 8 19.5782 8 22.8179C8 23.6742 8.34359 24.4948 8.94951 25.1005C9.55543 25.7049 10.3694 26.0457 11.2285 26.0457C12.1057 26.0457 13.0644 26.0457 13.9416 26.0457C14.7917 26.0457 15.6147 25.7049 16.2206 25.1005C16.8265 24.4948 17.1702 23.6742 17.1702 22.8179C17.1702 19.5782 17.1702 14.6165 17.1702 11.3768Z" fill="#FB4A2E"/>
<path fill-rule="evenodd" clip-rule="evenodd" d="M35.1702 27.8677C35.1702 27.0127 34.8265 26.1909 34.2206 25.5864C33.6147 24.9807 32.7917 24.6411 31.9416 24.6411C31.0644 24.6411 30.1057 24.6411 29.2285 24.6411C28.3694 24.6411 27.5554 24.9807 26.9495 25.5864C26.3436 26.1909 26 27.0127 26 27.8677C26 31.1075 26 36.0692 26 39.3089C26 40.1651 26.3436 40.9858 26.9495 41.5914C27.5554 42.1959 28.3694 42.5367 29.2285 42.5367C30.1057 42.5367 31.0644 42.5367 31.9416 42.5367C32.7917 42.5367 33.6147 42.1959 34.2206 41.5914C34.8265 40.9858 35.1702 40.1651 35.1702 39.3089C35.1702 36.0692 35.1702 31.1075 35.1702 27.8677Z" fill="#FEAF0F"/>
<path fill-rule="evenodd" clip-rule="evenodd" d="M23.1702 43.4212C23.1702 42.5661 22.8265 41.7443 22.2206 41.1398C21.6147 40.5342 20.7917 40.1946 19.9416 40.1946C19.0644 40.1946 18.1057 40.1946 17.2285 40.1946C16.3694 40.1946 15.5554 40.5342 14.9495 41.1398C14.3436 41.7443 14 42.5661 14 43.4212C14 46.6609 14 51.6227 14 54.8624C14 55.7186 14.3436 56.5392 14.9495 57.1449C15.5554 57.7494 16.3694 58.0902 17.2285 58.0902C18.1057 58.0902 19.0644 58.0902 19.9416 58.0902C20.7917 58.0902 21.6147 57.7494 22.2206 57.1449C22.8265 56.5392 23.1702 55.7186 23.1702 54.8624C23.1702 51.6227 23.1702 46.6609 23.1702 43.4212Z" fill="#FEAF0F"/>
</svg>
