<svg width="83" height="74" viewBox="0 0 83 74" fill="none" xmlns="http://www.w3.org/2000/svg">
<g clip-path="url(#clip0_4_3823)" filter="url(#filter0_d_4_3823)">
<path fill-rule="evenodd" clip-rule="evenodd" d="M29.1939 8.84931C29.9377 7.71191 31.2079 7.02759 32.5696 7.02759C33.9313 7.02759 35.1899 7.71191 35.9451 8.84931C40.6481 16.0261 49.1843 29.0227 54.1505 36.6023C54.9286 37.7786 54.9972 39.2834 54.3221 40.5215C53.6585 41.7607 52.3654 42.5319 50.9579 42.5319C41.2431 42.5319 23.896 42.5319 14.1812 42.5319C12.7737 42.5319 11.4808 41.7607 10.8056 40.5215C10.142 39.2834 10.2107 37.7786 10.9773 36.6023C15.9549 29.0227 24.4796 16.0261 29.1939 8.84931Z" fill="#FEAF0F"/>
<path fill-rule="evenodd" clip-rule="evenodd" d="M38.5999 42.5318C30.0293 42.5318 42.9023 19.4612 46.8615 25.4892C49.5505 29.5845 52.148 33.5356 54.1504 36.6022C54.9285 37.7785 54.9972 39.2833 54.3221 40.5214C53.6584 41.7606 52.3653 42.5318 50.9579 42.5318C47.5594 42.5318 43.2227 42.5318 38.5999 42.5318Z" fill="#FB4A2E"/>
<path fill-rule="evenodd" clip-rule="evenodd" d="M34.7226 18.582C34.7226 18.01 34.4996 17.4607 34.0909 17.0567C33.6945 16.6513 33.1371 16.4241 32.5674 16.4241C31.9976 16.4241 31.4402 16.6513 31.0438 17.0567C30.6351 17.4607 30.4121 18.01 30.4121 18.582C30.4121 21.0835 30.4121 25.1809 30.4121 27.6824C30.4121 28.2544 30.6351 28.8037 31.0438 29.2078C31.4402 29.6131 31.9976 29.8404 32.5674 29.8404C33.1371 29.8404 33.6945 29.6131 34.0909 29.2078C34.4996 28.8037 34.7226 28.2544 34.7226 27.6824C34.7226 25.1809 34.7226 21.0835 34.7226 18.582Z" fill="#F8FBFF"/>
<path d="M32.5747 37.5641C34.1337 37.5641 35.3975 36.3001 35.3975 34.7411C35.3975 33.1821 34.1337 31.9182 32.5747 31.9182C31.0156 31.9182 29.7517 33.1821 29.7517 34.7411C29.7517 36.3001 31.0156 37.5641 32.5747 37.5641Z" fill="#F8FBFF"/>
<path fill-rule="evenodd" clip-rule="evenodd" d="M61.4443 51.9789L67.7643 58.3009C68.9343 59.4719 70.8343 59.4719 72.0043 58.3009C73.1743 57.1299 73.1743 55.2289 72.0043 54.0589L65.7743 47.8338C67.7743 45.0848 68.9543 41.7028 68.9543 38.0468C68.9543 28.8458 61.4843 21.3748 52.2842 21.3748C43.0842 21.3748 35.6141 28.8458 35.6141 38.0468C35.6141 47.2478 43.0842 54.7189 52.2842 54.7189C55.6642 54.7189 58.8143 53.7109 61.4443 51.9789ZM59.6542 45.7628C61.6843 43.8198 62.9543 41.0798 62.9543 38.0468C62.9543 32.1568 58.1742 27.3748 52.2842 27.3748C46.3942 27.3748 41.6142 32.1568 41.6142 38.0468C41.6142 43.9368 46.3942 48.7188 52.2842 48.7188C55.1042 48.7188 57.6742 47.6218 59.5842 45.8308C59.6042 45.8078 59.6342 45.7848 59.6542 45.7628Z" fill="#3EC1D3"/>
</g>
<defs>
<filter id="filter0_d_4_3823" x="-1.5" y="-6" width="84" height="84" filterUnits="userSpaceOnUse" color-interpolation-filters="sRGB">
<feFlood flood-opacity="0" result="BackgroundImageFix"/>
<feColorMatrix in="SourceAlpha" type="matrix" values="0 0 0 0 0 0 0 0 0 0 0 0 0 0 0 0 0 0 127 0" result="hardAlpha"/>
<feOffset dy="4"/>
<feGaussianBlur stdDeviation="5"/>
<feColorMatrix type="matrix" values="0 0 0 0 0.0466927 0 0 0 0 0.0429688 0 0 0 0 0.229167 0 0 0 0.22 0"/>
<feBlend mode="normal" in2="BackgroundImageFix" result="effect1_dropShadow_4_3823"/>
<feBlend mode="normal" in="SourceGraphic" in2="effect1_dropShadow_4_3823" result="shape"/>
</filter>
<clipPath id="clip0_4_3823">
<rect width="64" height="64" fill="white" transform="translate(8.5)"/>
</clipPath>
</defs>
</svg>
