<svg width="84" height="76" viewBox="0 0 84 76" fill="none" xmlns="http://www.w3.org/2000/svg">
<g clip-path="url(#clip0_4_3652)" filter="url(#filter0_d_4_3652)">
<path d="M25.7502 29.5101C32.0379 29.5101 37.1352 24.4128 37.1352 18.125C37.1352 11.8373 32.0379 6.73999 25.7502 6.73999C19.4624 6.73999 14.3651 11.8373 14.3651 18.125C14.3651 24.4128 19.4624 29.5101 25.7502 29.5101Z" fill="#FEAF0F"/>
<path d="M25.7799 25.2983H22.3341C15.5241 25.2983 10.0142 30.8183 10.0142 37.6283V37.6304C10.0142 44.4404 15.5241 49.9604 22.3341 49.9604H61.6844C68.4844 49.9604 74.0144 44.4404 74.0144 37.6304V37.6283C74.0144 32.0273 70.2736 27.299 65.1622 25.7966C64.8155 15.2136 56.1271 6.74072 45.4598 6.74072C34.9604 6.74072 26.3781 14.9489 25.7799 25.2983Z" fill="#3EC1D3"/>
<path fill-rule="evenodd" clip-rule="evenodd" d="M46.6776 27.2437C47.2424 26.679 48.0182 26.3982 48.8118 26.463C49.0864 26.4862 49.3923 26.5118 49.7146 26.5388C50.6996 26.6214 51.8371 26.7168 52.699 26.7917C53.4759 26.852 54.0696 27.4943 54.0713 28.2732C54.0727 28.4195 54.0743 28.5731 54.0759 28.732C54.0862 29.7463 54.0987 30.9739 54.1016 31.8378C54.1106 32.5148 53.8254 33.1648 53.3216 33.6205C53.1644 33.763 52.9937 33.9178 52.8199 34.0754C52.3389 34.5115 51.8342 34.9691 51.5257 35.2495C51.3411 35.4172 51.0811 35.4608 50.8538 35.3671C50.7704 35.3336 50.6774 35.2961 50.579 35.2565C50.2459 35.1223 49.8509 34.9633 49.5594 34.8498C49.3215 34.7455 49.0411 34.8053 48.8564 34.997C48.7056 35.1531 48.5161 35.3489 48.3342 35.5368C48.2209 35.6539 48.1105 35.7679 48.0143 35.8675C47.8356 36.0532 47.7848 36.3302 47.8892 36.5681C48.0545 36.9642 48.313 37.5628 48.4865 37.9549C48.5937 38.1957 48.5375 38.4795 48.3493 38.6678L46.6246 40.3924C46.4242 40.5928 46.118 40.6388 45.8671 40.5093C45.4755 40.2999 44.8882 39.992 44.4884 39.7865C44.2325 39.6521 43.9195 39.7034 43.7187 39.9156C43.4936 40.152 43.1864 40.4762 42.962 40.7133C42.7665 40.9186 42.7254 41.2298 42.8692 41.4707C42.978 41.6677 43.1139 41.9108 43.2471 42.1489C43.3522 42.3369 43.4556 42.5218 43.5425 42.6784C43.6837 42.9289 43.6427 43.24 43.4383 43.4486C42.8184 44.0791 41.435 45.4868 40.0288 46.9176C40.5714 48.168 40.8721 49.5471 40.8721 50.996C40.8721 56.662 36.2721 61.262 30.6021 61.262C24.9421 61.262 20.342 56.662 20.342 50.996C20.342 45.33 24.9421 40.7299 30.6021 40.7299C31.4016 40.7299 32.1798 40.8214 32.9269 40.9944L46.6776 27.2437ZM30.8721 53.562C30.8721 51.837 29.4621 50.437 27.7421 50.437C26.0221 50.437 24.6221 51.837 24.6221 53.562C24.6221 55.286 26.0221 56.687 27.7421 56.687C29.4621 56.687 30.8721 55.286 30.8721 53.562Z" fill="#F8FBFF"/>
</g>
<defs>
<filter id="filter0_d_4_3652" x="0" y="-4" width="84" height="84" filterUnits="userSpaceOnUse" color-interpolation-filters="sRGB">
<feFlood flood-opacity="0" result="BackgroundImageFix"/>
<feColorMatrix in="SourceAlpha" type="matrix" values="0 0 0 0 0 0 0 0 0 0 0 0 0 0 0 0 0 0 127 0" result="hardAlpha"/>
<feOffset dy="4"/>
<feGaussianBlur stdDeviation="5"/>
<feColorMatrix type="matrix" values="0 0 0 0 0.0466927 0 0 0 0 0.0429688 0 0 0 0 0.229167 0 0 0 0.22 0"/>
<feBlend mode="normal" in2="BackgroundImageFix" result="effect1_dropShadow_4_3652"/>
<feBlend mode="normal" in="SourceGraphic" in2="effect1_dropShadow_4_3652" result="shape"/>
</filter>
<clipPath id="clip0_4_3652">
<rect width="64" height="64" fill="white" transform="translate(10 2)"/>
</clipPath>
</defs>
</svg>
