<svg width="77" height="76" viewBox="0 0 77 76" fill="none" xmlns="http://www.w3.org/2000/svg">
<g clip-path="url(#clip0_4_3719)" filter="url(#filter0_d_4_3719)">
<path fill-rule="evenodd" clip-rule="evenodd" d="M36.101 46.7909L47.3138 58.0093C47.749 58.4444 48.4518 58.4444 48.898 58.0093C49.3332 57.5741 49.3332 56.8668 48.898 56.4317L37.6742 45.2133C37.2391 44.7782 36.5361 44.7782 36.101 45.2133C35.6659 45.6484 35.6659 46.3558 36.101 46.7909Z" fill="#FEAF0F"/>
<path fill-rule="evenodd" clip-rule="evenodd" d="M37.998 42.2745V28.5838C37.998 28.2881 37.8864 28.0036 37.6744 27.795L29.2175 19.339V10.8977C29.2175 10.2818 28.7154 9.78198 28.1018 9.78198C27.4881 9.78198 26.9861 10.2818 26.9861 10.8977V19.8009C26.9861 20.0966 27.1087 20.3811 27.3095 20.5898L35.7666 29.0457V42.2745C35.7666 42.8904 36.2687 43.3902 36.8823 43.3902C37.496 43.3902 37.998 42.8904 37.998 42.2745Z" fill="#FEAF0F"/>
<path fill-rule="evenodd" clip-rule="evenodd" d="M34.362 41.5168H45.519L53.4406 49.4393C53.6526 49.6491 53.9315 49.7663 54.2216 49.7663H62.5113C63.1249 49.7663 63.627 49.2664 63.627 48.6506C63.627 48.0347 63.1249 47.5349 62.5113 47.5349H54.6902L46.7686 39.6123C46.5566 39.4036 46.2778 39.2854 45.9765 39.2854H34.362C33.7484 39.2854 33.2463 39.7852 33.2463 40.4011C33.2463 41.017 33.7484 41.5168 34.362 41.5168Z" fill="#FEAF0F"/>
<path fill-rule="evenodd" clip-rule="evenodd" d="M13.4055 15.0456V23.4692C13.4055 23.7648 13.5171 24.0493 13.7291 24.2579L23.2683 33.8028C23.7034 34.239 24.4175 34.239 24.8526 33.8028C25.2877 33.3677 25.2877 32.6603 24.8526 32.2252L15.6369 23.0073V15.0456C15.6369 14.4298 15.1349 13.9299 14.5212 13.9299C13.8964 13.9299 13.4055 14.4298 13.4055 15.0456Z" fill="#FEAF0F"/>
<path fill-rule="evenodd" clip-rule="evenodd" d="M35.9892 26.9901C35.1583 26.798 34.2932 26.6965 33.4049 26.6965C27.0789 26.6965 21.9467 31.8287 21.9467 38.1502C21.9467 44.4718 27.0789 49.604 33.4049 49.604C39.7198 49.604 44.8632 44.4718 44.8632 38.1502C44.8632 36.5312 44.5258 34.9902 43.9178 33.5934C45.4851 31.9986 47.0264 30.4303 47.7174 29.7276C47.9454 29.4948 47.9911 29.1477 47.8336 28.8682C47.7366 28.6935 47.6213 28.4872 47.5039 28.2774C47.3554 28.0118 47.2037 27.7406 47.0824 27.5208C46.922 27.2521 46.9678 26.9049 47.1859 26.6758C47.4363 26.4112 47.779 26.0495 48.0302 25.7857C48.2542 25.5491 48.6034 25.4918 48.8889 25.6418C49.335 25.871 49.9902 26.2145 50.4271 26.4482C50.7071 26.5927 51.0487 26.5414 51.2723 26.3178L53.1965 24.3936C53.4065 24.1836 53.4692 23.8669 53.3496 23.5983C53.156 23.1608 52.8676 22.493 52.6831 22.051C52.5667 21.7856 52.6234 21.4765 52.8227 21.2693C52.93 21.1584 53.0529 21.0314 53.1791 20.901C53.3822 20.6911 53.5938 20.4724 53.7622 20.2982C53.9683 20.0842 54.2812 20.0175 54.5466 20.1339C54.8718 20.2605 55.3125 20.4379 55.684 20.5876C55.7939 20.6318 55.8977 20.6737 55.9907 20.711C56.2444 20.8156 56.5345 20.7669 56.7404 20.5799C57.0847 20.2669 57.6483 19.7559 58.1852 19.2691C58.3788 19.0936 58.569 18.9212 58.7441 18.7623C59.3062 18.2539 59.6243 17.5287 59.6143 16.7735C59.6111 15.8094 59.5971 14.4394 59.5857 13.3076C59.5839 13.1306 59.5821 12.9594 59.5805 12.7965C59.5786 11.9274 58.9162 11.2108 58.0494 11.1435C57.0881 11.06 55.8194 10.9536 54.7206 10.8615C54.3607 10.8313 54.0191 10.8027 53.7125 10.7768C52.8271 10.7045 51.9615 11.0178 51.3314 11.6479L35.9892 26.9901ZM33.695 41.0131C33.695 39.0885 32.133 37.5265 30.214 37.5265C28.2839 37.5265 26.7219 39.0885 26.7219 41.0131C26.7219 42.9365 28.2839 44.4996 30.214 44.4996C32.133 44.4996 33.695 42.9365 33.695 41.0131Z" fill="#3EC1D3"/>
<path d="M28.0994 14.9399C30.3318 14.9399 32.1415 13.1301 32.1415 10.8977C32.1415 8.66527 30.3318 6.85547 28.0994 6.85547C25.8669 6.85547 24.0571 8.66527 24.0571 10.8977C24.0571 13.1301 25.8669 14.9399 28.0994 14.9399Z" fill="#FB4A2E"/>
<path d="M14.5129 19.0883C16.7454 19.0883 18.555 17.2786 18.555 15.0461C18.555 12.8137 16.7454 11.0039 14.5129 11.0039C12.2805 11.0039 10.4707 12.8137 10.4707 15.0461C10.4707 17.2786 12.2805 19.0883 14.5129 19.0883Z" fill="#FB4A2E"/>
<path d="M62.5037 52.6093C64.7361 52.6093 66.5458 50.7996 66.5458 48.5671C66.5458 46.3347 64.7361 44.5249 62.5037 44.5249C60.2712 44.5249 58.4614 46.3347 58.4614 48.5671C58.4614 50.7996 60.2712 52.6093 62.5037 52.6093Z" fill="#FB4A2E"/>
<path d="M48.1001 61.2634C50.3325 61.2634 52.1422 59.4536 52.1422 57.2212C52.1422 54.9888 50.3325 53.179 48.1001 53.179C45.8677 53.179 44.0579 54.9888 44.0579 57.2212C44.0579 59.4536 45.8677 61.2634 48.1001 61.2634Z" fill="#FB4A2E"/>
</g>
<defs>
<filter id="filter0_d_4_3719" x="-3.5" y="-5" width="84" height="84" filterUnits="userSpaceOnUse" color-interpolation-filters="sRGB">
<feFlood flood-opacity="0" result="BackgroundImageFix"/>
<feColorMatrix in="SourceAlpha" type="matrix" values="0 0 0 0 0 0 0 0 0 0 0 0 0 0 0 0 0 0 127 0" result="hardAlpha"/>
<feOffset dy="4"/>
<feGaussianBlur stdDeviation="5"/>
<feColorMatrix type="matrix" values="0 0 0 0 0.0466927 0 0 0 0 0.0429688 0 0 0 0 0.229167 0 0 0 0.22 0"/>
<feBlend mode="normal" in2="BackgroundImageFix" result="effect1_dropShadow_4_3719"/>
<feBlend mode="normal" in="SourceGraphic" in2="effect1_dropShadow_4_3719" result="shape"/>
</filter>
<clipPath id="clip0_4_3719">
<rect width="64" height="64" fill="white" transform="translate(6.5 1)"/>
</clipPath>
</defs>
</svg>
