<svg width="69" height="71" viewBox="0 0 69 71" fill="none" xmlns="http://www.w3.org/2000/svg">
<g filter="url(#filter0_d_4_3777)">
<path fill-rule="evenodd" clip-rule="evenodd" d="M52.569 12.2354C52.569 11.0384 52.0899 9.89138 51.2444 9.04438C50.3989 8.19837 49.2527 7.72339 48.0597 7.72339C42.1506 7.72339 31.8543 7.72339 25.9453 7.72339C24.7428 7.72339 23.5967 8.19837 22.7512 9.04438C21.9057 9.89138 21.4266 11.0384 21.4266 12.2354C21.4266 21.4874 21.4266 42.5135 21.4266 51.7655C21.4266 52.9615 21.9057 54.1095 22.7512 54.9555C23.5967 55.8025 24.7428 56.2775 25.9453 56.2775C31.8543 56.2775 42.1506 56.2775 48.0597 56.2775C49.2527 56.2775 50.3989 55.8025 51.2444 54.9555C52.0899 54.1095 52.569 52.9615 52.569 51.7655C52.569 42.5135 52.569 21.4874 52.569 12.2354Z" fill="#3EC1D3"/>
<path fill-rule="evenodd" clip-rule="evenodd" d="M41.9102 24.5751C41.9102 22.083 39.8904 20.0627 37.4008 20.0627C31.4918 20.0627 21.1955 20.0627 15.2865 20.0627C12.7969 20.0627 10.7678 22.083 10.7678 24.5751C10.7678 27.0647 10.7678 30.1466 10.7678 32.6362C10.7678 35.1283 12.7969 37.1485 15.2865 37.1485C21.1955 37.1485 31.4918 37.1485 37.4008 37.1485C39.8904 37.1485 41.9102 35.1283 41.9102 32.6362C41.9102 30.1466 41.9102 27.0647 41.9102 24.5751Z" fill="#FEAF0F"/>
<path d="M18.4463 31.6549C20.0921 31.6549 21.4263 30.3206 21.4263 28.6748C21.4263 27.029 20.0921 25.6948 18.4463 25.6948C16.8005 25.6948 15.4663 27.029 15.4663 28.6748C15.4663 30.3206 16.8005 31.6549 18.4463 31.6549Z" fill="white"/>
<path d="M26.3357 31.5858C27.9815 31.5858 29.3157 30.2515 29.3157 28.6057C29.3157 26.9599 27.9815 25.6257 26.3357 25.6257C24.6899 25.6257 23.3557 26.9599 23.3557 28.6057C23.3557 30.2515 24.6899 31.5858 26.3357 31.5858Z" fill="white"/>
<path d="M34.2263 31.5157C35.8721 31.5157 37.2063 30.1815 37.2063 28.5357C37.2063 26.8898 35.8721 25.5557 34.2263 25.5557C32.5805 25.5557 31.2463 26.8898 31.2463 28.5357C31.2463 30.1815 32.5805 31.5157 34.2263 31.5157Z" fill="white"/>
<path fill-rule="evenodd" clip-rule="evenodd" d="M44.0178 7.72339H29.8386V9.74032C29.8386 10.646 30.5652 11.3794 31.4796 11.3794C34.1976 11.3794 39.6463 11.3794 42.3769 11.3794C43.2787 11.3794 44.0178 10.646 44.0178 9.74032C44.0178 8.76772 44.0178 7.72339 44.0178 7.72339Z" fill="#FB4A2E"/>
</g>
<defs>
<filter id="filter0_d_4_3777" x="-5" y="-6" width="84" height="84" filterUnits="userSpaceOnUse" color-interpolation-filters="sRGB">
<feFlood flood-opacity="0" result="BackgroundImageFix"/>
<feColorMatrix in="SourceAlpha" type="matrix" values="0 0 0 0 0 0 0 0 0 0 0 0 0 0 0 0 0 0 127 0" result="hardAlpha"/>
<feOffset dy="4"/>
<feGaussianBlur stdDeviation="5"/>
<feColorMatrix type="matrix" values="0 0 0 0 0.0466927 0 0 0 0 0.0429688 0 0 0 0 0.229167 0 0 0 0.22 0"/>
<feBlend mode="normal" in2="BackgroundImageFix" result="effect1_dropShadow_4_3777"/>
<feBlend mode="normal" in="SourceGraphic" in2="effect1_dropShadow_4_3777" result="shape"/>
</filter>
</defs>
</svg>
