<?xml version="1.0" encoding="UTF-8"?><svg id="Layer_2" xmlns="http://www.w3.org/2000/svg" viewBox="0 0 78.64 72.54"><defs><style>.cls-1{fill:#fff;}.cls-2{fill:#40c1d3;stroke:#0070af;stroke-width:2px;}.cls-2,.cls-3{stroke-miterlimit:10;}.cls-3{fill:#feaf10;stroke:#fb4a2e;stroke-width:1.5px;}</style></defs><g id="Layer_9"><g><path class="cls-2" d="M62.78,41.81c-3.4-3.28-10.9-6.32-14.29-7.19-3.16,3.28-7.66,5.34-12.67,5.34s-9.51-2.06-12.67-5.34c-3.39,.88-10.89,3.91-14.29,7.19C-.77,51.1,1.16,64.1,1.16,65.95H70.48c0-1.86,1.93-14.86-7.7-24.14Z"/><circle class="cls-2" cx="35.82" cy="17.71" r="16.71"/><g id="_2rucux.tif"><g><path class="cls-3" d="M47.61,59.52c0-1.85,0-3.7,0-5.55,.4-.06,.81-.12,1.21-.18,.7-.1,1.4-.21,2.1-.31,.07,0,.11-.03,.13-.11,.23-.85,.57-1.67,.99-2.45,.04-.08,.04-.14-.01-.21-.38-.52-.76-1.05-1.14-1.57-.27-.37-.53-.73-.81-1.11,1.33-1.31,2.65-2.61,3.97-3.91,.06,.04,.1,.07,.14,.1,.85,.6,1.7,1.2,2.55,1.8,.07,.05,.12,.05,.19,.01,.77-.41,1.56-.77,2.4-1,.04-.01,.09-.06,.1-.1,.12-.71,.24-1.42,.36-2.13,.07-.4,.13-.79,.2-1.19h5.55s.02,.08,.03,.11c.18,1.04,.36,2.09,.53,3.13,.01,.07,.03,.1,.1,.12,.84,.25,1.64,.59,2.42,1,.06,.03,.11,.03,.17-.01,.5-.35,1.01-.7,1.51-1.05,.41-.28,.82-.57,1.24-.86,1.31,1.33,2.61,2.65,3.91,3.97-.05,.06-.08,.12-.12,.17-.61,.84-1.22,1.67-1.82,2.51-.04,.05-.08,.1-.03,.18,.44,.77,.78,1.58,1.01,2.44,0,.04,.06,.08,.1,.09,.86,.15,1.72,.29,2.59,.43,.25,.04,.49,.08,.73,.13v5.55c-.38,.06-.76,.12-1.14,.17-.69,.1-1.39,.21-2.08,.31-.07,.01-.12,.02-.14,.11-.23,.84-.58,1.63-.99,2.39-.04,.07-.04,.13,.01,.2,.47,.66,.94,1.31,1.4,1.97,.18,.26,.36,.51,.53,.75-1.31,1.31-2.61,2.61-3.92,3.92-.03-.02-.07-.05-.1-.07-.87-.62-1.75-1.24-2.62-1.86-.07-.05-.12-.06-.19-.02-.75,.4-1.53,.74-2.34,.98-.11,.03-.16,.09-.18,.2-.09,.58-.19,1.16-.29,1.74-.08,.49-.16,.98-.24,1.47h-5.58s0-.02,0-.03c-.18-1.06-.36-2.13-.54-3.19-.01-.07-.05-.1-.11-.11-.86-.23-1.67-.58-2.46-.99-.08-.04-.12-.03-.19,.02-.65,.46-1.3,.93-1.95,1.39-.26,.19-.53,.37-.77,.55-1.31-1.31-2.61-2.61-3.92-3.91,.02-.03,.05-.07,.07-.11,.62-.87,1.24-1.75,1.86-2.62,.05-.07,.06-.12,.01-.2-.41-.76-.76-1.55-1-2.39-.01-.04-.07-.1-.11-.1-.5-.09-1.01-.17-1.52-.26-.6-.1-1.2-.2-1.8-.3Zm15.14,3.03c3.22,0,5.81-2.58,5.81-5.8,0-3.19-2.62-5.81-5.8-5.81-3.17,0-5.8,2.61-5.81,5.78,0,3.24,2.58,5.83,5.8,5.83Z"/><path class="cls-1" d="M62.75,62.55c-3.2,0-5.75-2.58-5.75-5.81,0-3.15,2.61-5.76,5.75-5.76,3.16,0,5.75,2.61,5.75,5.79,0,3.2-2.57,5.78-5.76,5.78Z"/></g></g></g></g></svg>