<?xml version="1.0" ?><svg data-name="Layer 1" id="Layer_1" viewBox="0 0 500 500" xmlns="http://www.w3.org/2000/svg"><defs><style>.cls-1{fill:#62b5e5;}.cls-2{fill:#ffc43d;}.cls-3{fill:#faae17;}.cls-4{fill:#727373;}.cls-5{fill:#49494a;}.cls-6{fill:#606161;}.cls-7{fill:#3f4040;}.cls-8{fill:none;stroke:#000;stroke-linecap:round;stroke-linejoin:round;stroke-width:20px;}</style></defs><title/><path class="cls-1" d="M208.77,244.58c28,9.19,41.23,45.57,41.23,45.57s-32.2,21.48-60.21,12.29-41.23-45.57-41.23-45.57S180.76,235.39,208.77,244.58Z"/><path class="cls-1" d="M291.23,244.58c-28,9.19-41.23,45.57-41.23,45.57s32.2,21.48,60.21,12.29,41.23-45.57,41.23-45.57S319.24,235.39,291.23,244.58Z"/><circle class="cls-2" cx="250" cy="115.96" r="103.34"/><path class="cls-3" d="M250,12.62A104.05,104.05,0,0,0,233.72,14a103.2,103.2,0,0,1,0,203.86A103.28,103.28,0,1,0,250,12.62Z"/><rect class="cls-4" height="54.51" rx="8.56" ry="8.56" width="219.83" x="140.08" y="339.59"/><path class="cls-5" d="M157.85,394.11l27.74,88.46a9.63,9.63,0,0,0,9.25,6.93H305.16a9.63,9.63,0,0,0,9.25-6.93l27.74-88.46Z"/><path class="cls-6" d="M351.35,339.59H313a8.57,8.57,0,0,1,8.57,8.57v37.38a8.57,8.57,0,0,1-8.57,8.57h38.35a8.57,8.57,0,0,0,8.57-8.57V348.16A8.57,8.57,0,0,0,351.35,339.59Z"/><path class="cls-7" d="M303.8,394.11l-27.74,88.46a9.63,9.63,0,0,1-9.25,6.93h38.35a9.63,9.63,0,0,0,9.25-6.93l27.74-88.46Z"/><rect class="cls-8" height="54.51" rx="8.56" ry="8.56" width="219.83" x="140.08" y="339.59"/><path class="cls-8" d="M157.85,394.11l27.74,88.46a9.63,9.63,0,0,0,9.25,6.93H305.16a9.63,9.63,0,0,0,9.25-6.93l27.74-88.46Z"/><line class="cls-8" x1="250.07" x2="250.07" y1="339.59" y2="224.91"/><path class="cls-8" d="M208.77,244.58c28,9.19,41.23,45.57,41.23,45.57s-32.2,21.48-60.21,12.29-41.23-45.57-41.23-45.57S180.76,235.39,208.77,244.58Z"/><path class="cls-8" d="M291.23,244.58c-28,9.19-41.23,45.57-41.23,45.57s32.2,21.48,60.21,12.29,41.23-45.57,41.23-45.57S319.24,235.39,291.23,244.58Z"/><circle class="cls-8" cx="250" cy="115.96" r="103.34"/><path class="cls-8" d="M271.07,89.07C269.36,76.16,257.08,73.63,249,75,236.2,77.18,222.86,100,250.36,116"/><path class="cls-8" d="M228.3,142.49s3.77,14.42,23.67,14.42c14.79,0,31-23.89-1.42-40.95"/><line class="cls-8" x1="251.45" x2="251.45" y1="72.26" y2="61.7"/><line class="cls-8" x1="251.45" x2="251.45" y1="170.22" y2="156.91"/></svg>