<svg width="164" height="48" viewBox="0 0 164 48" fill="none" xmlns="http://www.w3.org/2000/svg">
<g clip-path="url(#clip0_12_100)">
<path d="M151.695 26.0425C151.755 26.1019 151.8 26.1744 151.827 26.2543C151.861 26.3331 151.878 26.4179 151.879 26.5037V27.139C151.879 27.3116 151.817 27.4787 151.704 27.6096C151.651 27.6671 151.587 27.7134 151.516 27.7457C151.445 27.778 151.368 27.7958 151.29 27.7978H150.917C150.839 27.7987 150.761 27.7823 150.689 27.7498C150.617 27.7172 150.554 27.6694 150.503 27.6096C150.39 27.4787 150.328 27.3116 150.328 27.139V26.5037C150.326 26.3306 150.388 26.1629 150.503 26.0331C150.555 25.9754 150.619 25.9289 150.691 25.8966C150.762 25.8642 150.839 25.8466 150.917 25.8449H151.275C151.35 25.8431 151.425 25.8592 151.492 25.8919C151.569 25.9286 151.638 25.9797 151.695 26.0425Z" fill="#7e819a"/>
<path d="M64.6291 28.8799H61.5329C61.0564 28.874 60.5839 28.9667 60.1451 29.1522C59.7063 29.3376 59.3107 29.6119 58.9833 29.9576C58.6438 30.286 58.3731 30.6785 58.1871 31.1123C58.001 31.5462 57.9032 32.0127 57.8994 32.4846V39.9999H59.1436V33.0776C59.153 32.292 59.4653 31.5404 60.0154 30.9788C60.5641 30.4331 61.3052 30.1239 62.0795 30.1176H63.9269C64.3088 30.1175 64.6869 30.1936 65.039 30.3415C65.391 30.4894 65.7099 30.706 65.9769 30.9788C66.2543 31.2534 66.4743 31.5804 66.624 31.9407C66.7737 32.301 66.8501 32.6875 66.8487 33.0776V39.9999H68.1494V32.4705C68.1545 31.9972 68.0607 31.5281 67.8741 31.093C67.6874 30.6579 67.4121 30.2664 67.0655 29.9435C66.7667 29.5934 66.392 29.3158 65.9699 29.1316C65.5478 28.9473 65.0893 28.8613 64.6291 28.8799Z" fill="#7e819a"/>
<path d="M52.3575 28.6636H49.9164C48.8837 28.6807 47.895 29.0836 47.1453 29.793C46.4299 30.5296 46.0221 31.5105 46.0049 32.5365V36.3012C46.0125 37.3297 46.4138 38.3163 47.1265 39.0589C47.4867 39.426 47.9184 39.7157 48.395 39.9099C48.8715 40.1042 49.3829 40.1989 49.8975 40.1883H52.3387C53.3816 40.1806 54.3825 39.7768 55.138 39.0589C55.5025 38.7012 55.7913 38.2741 55.9872 37.8028C56.1832 37.3314 56.2822 36.8256 56.2784 36.3153V32.5506C56.2648 31.5197 55.8568 30.5331 55.138 29.793C54.3859 29.0815 53.3934 28.6783 52.3575 28.6636ZM54.9118 32.4283V36.5177C54.8982 37.1595 54.6463 37.7733 54.2049 38.24C53.7516 38.675 53.151 38.9236 52.5225 38.9365H49.808C49.1759 38.9345 48.5699 38.6843 48.1209 38.24C47.6728 37.7781 47.4211 37.1608 47.4187 36.5177V32.4283C47.4299 31.7883 47.6803 31.1756 48.1209 30.7106C48.5743 30.2725 49.1771 30.022 49.808 30.0095H52.5225C53.151 30.0134 53.7524 30.2655 54.1955 30.7106C54.6407 31.1737 54.8963 31.7865 54.9118 32.4283Z" fill="#7e819a"/>
<path d="M41.0003 28.8799H37.9135C37.4465 28.864 36.9821 28.9558 36.5563 29.1482C36.1749 29.2724 35.8235 29.4743 35.5242 29.7411V24.8423H34.2754V39.9999H35.5808V33.0211C35.5904 32.2365 35.9008 31.4854 36.4479 30.9223C36.9983 30.3791 37.7383 30.0704 38.5121 30.0611H40.3594C40.7419 30.0619 41.1204 30.1384 41.4731 30.2863C41.8258 30.4341 42.1456 30.6503 42.4141 30.9223C42.6897 31.1981 42.9081 31.5254 43.0569 31.8855C43.2056 32.2457 43.2819 32.6315 43.2812 33.0211V39.9623H44.5866V32.4329C44.5919 31.9591 44.4978 31.4895 44.3103 31.0542C44.1228 30.619 43.8461 30.2278 43.498 29.9058C43.1814 29.5638 42.7939 29.2949 42.3625 29.1177C41.9311 28.9406 41.4663 28.8594 41.0003 28.8799Z" fill="#7e819a"/>
<path d="M108.071 28.7059H105.63C104.597 28.7207 103.608 29.124 102.859 29.8353C102.143 30.5713 101.735 31.5526 101.719 32.5788V36.3435C101.736 37.3695 102.144 38.3505 102.859 39.0871C103.219 39.4542 103.651 39.7439 104.128 39.9381C104.604 40.1324 105.116 40.2271 105.63 40.2165H108.071C109.104 40.1985 110.092 39.7956 110.842 39.0871C111.558 38.3505 111.966 37.3695 111.983 36.3435V32.5788C111.967 31.5526 111.559 30.5713 110.842 29.8353C110.482 29.4681 110.051 29.1785 109.574 28.9842C109.097 28.79 108.586 28.6953 108.071 28.7059ZM110.626 32.4706V36.56C110.612 37.2003 110.36 37.8126 109.919 38.2776C109.702 38.5044 109.441 38.6839 109.151 38.8046C108.862 38.9253 108.55 38.9846 108.236 38.9788H105.517C104.886 38.9763 104.281 38.7242 103.835 38.2776C103.386 37.8182 103.134 37.202 103.133 36.56V32.4706C103.144 31.8293 103.395 31.2154 103.835 30.7482C104.288 30.3128 104.888 30.0626 105.517 30.0471H108.236C108.868 30.0506 109.472 30.3025 109.919 30.7482C110.36 31.2149 110.612 31.8288 110.626 32.4706Z" fill="#7e819a"/>
<path d="M128.433 28.9319H125.393C124.805 28.9346 124.227 29.0834 123.711 29.3648C123.247 29.616 122.844 29.9643 122.528 30.386C122.224 29.948 121.812 29.5962 121.331 29.3648C120.833 29.0903 120.274 28.9417 119.705 28.9319H116.774C115.833 28.9565 114.939 29.3425 114.276 30.0095C113.947 30.3406 113.69 30.7359 113.522 31.1708C113.353 31.6057 113.276 32.0707 113.296 32.5366V40.066H114.517V33.1813C114.511 32.794 114.584 32.4095 114.733 32.0519C114.87 31.7026 115.073 31.383 115.332 31.1107C115.609 30.8455 115.928 30.6263 116.274 30.4613C116.615 30.3097 116.986 30.2373 117.358 30.2495H119.097C119.751 30.2489 120.385 30.477 120.888 30.8942C121.38 31.2896 121.725 31.838 121.868 32.4519V40.1225H123.226V32.3201C123.398 31.7193 123.761 31.1904 124.259 30.8128C124.758 30.4352 125.366 30.2293 125.992 30.226H127.787C128.56 30.2331 129.3 30.5422 129.847 31.0872C130.396 31.626 130.71 32.3604 130.719 33.1295V40.0707H132.076V32.5413C132.079 32.073 131.989 31.6088 131.812 31.1752C131.635 30.7415 131.374 30.347 131.044 30.0142C130.33 29.3551 129.404 28.9714 128.433 28.9319Z" fill="#7e819a"/>
<path d="M142.444 29.7414C142.084 29.3914 141.659 29.116 141.192 28.931C140.725 28.746 140.227 28.6552 139.725 28.6637H137.283C136.339 28.6604 135.427 29.0114 134.729 29.6472V24.7908H133.367V36.2355C133.387 37.261 133.794 38.2411 134.508 38.979C134.869 39.3448 135.301 39.6336 135.777 39.8277C136.253 40.0219 136.764 40.1174 137.279 40.1084H139.72C140.234 40.1131 140.743 40.0156 141.219 39.8217C141.695 39.6278 142.127 39.3414 142.491 38.979C142.856 38.6214 143.145 38.1944 143.342 37.7231C143.539 37.2519 143.639 36.746 143.636 36.2355V32.4708C143.63 31.9739 143.538 31.4819 143.363 31.0167C143.118 30.5502 142.809 30.1209 142.444 29.7414ZM134.677 32.3767C134.691 31.7349 134.943 31.121 135.384 30.6543C135.837 30.2173 136.437 29.9668 137.067 29.9531H139.781C140.412 29.9566 141.017 30.2086 141.464 30.6543C141.913 31.1155 142.167 31.7329 142.17 32.3767V36.4661C142.157 37.1066 141.905 37.7192 141.464 38.1837C141.013 38.6228 140.411 38.8735 139.781 38.8849H137.067C136.754 38.8842 136.444 38.8219 136.156 38.7015C135.867 38.5812 135.605 38.4053 135.384 38.1837C134.934 37.7247 134.68 37.1086 134.677 36.4661V32.3767Z" fill="#7e819a"/>
<path d="M99.437 38.0799C99.239 38.3034 98.9988 38.4857 98.7301 38.6164C98.4417 38.7733 98.1156 38.8482 97.7876 38.8329H95.238C94.6188 38.7966 94.0362 38.5276 93.6075 38.0799C93.3935 37.8585 93.2258 37.5967 93.1142 37.3099C93.0025 37.0231 92.9491 36.717 92.9571 36.4093V32.3199C92.9504 31.7016 93.1835 31.1047 93.6075 30.654C94.0435 30.2166 94.6219 29.9496 95.238 29.9011H97.7876C98.3349 29.9002 98.8608 30.113 99.2532 30.494L99.3097 30.5458H100.851L100.794 30.3858C100.476 29.8386 100.03 29.3767 99.4935 29.0399C98.9459 28.7305 98.3272 28.5683 97.698 28.5693H95.4171C94.43 28.6233 93.4994 29.0467 92.811 29.7552C92.129 30.4821 91.7586 31.4464 91.7789 32.4423V36.207C91.7569 36.7016 91.8372 37.1955 92.0148 37.6578C92.1924 38.1201 92.4634 38.541 92.811 38.894C93.4918 39.6133 94.4268 40.0388 95.4171 40.0799H97.698C98.352 40.0647 98.99 39.8746 99.5454 39.5293C100.113 39.2006 100.568 38.7086 100.851 38.1176L100.903 37.9576H99.437V38.0799Z" fill="#7e819a"/>
<path d="M85.8071 37.647L85.6987 37.5952C85.3595 37.4943 85.0406 37.335 84.7562 37.1246C84.092 36.4456 83.6063 35.613 83.3424 34.7011L81.66 29.1105C81.66 29.054 81.6081 29.0023 81.6081 28.9458C81.6081 28.8893 81.5516 28.8376 81.5516 28.7858V28.7058H80.3027V28.8093C80.3561 29.1008 80.4285 29.3885 80.5195 29.6705L82.0417 34.847C82.5837 36.7293 83.7807 38.2352 85.1898 38.7717L82.6591 43.7646H83.9598L91.7262 28.7058H90.3689L85.8071 37.647Z" fill="#7e819a"/>
<path d="M151.747 29.3083H150.498V40.1319H151.747V29.3083Z" fill="#7e819a"/>
<path d="M163.675 30.9788C163.482 30.5056 163.184 30.0824 162.803 29.7412C162.438 29.389 162.018 29.0982 161.559 28.88C161.094 28.6868 160.593 28.5953 160.089 28.6117H157.648C156.615 28.6275 155.626 29.0306 154.877 29.7412C154.514 30.0975 154.227 30.5224 154.031 30.9911C153.835 31.4597 153.735 31.9627 153.736 32.4706V36.2353C153.754 37.2613 154.161 38.2422 154.877 38.9788C155.237 39.346 155.669 39.6356 156.145 39.8299C156.622 40.0241 157.133 40.1188 157.648 40.1082H160.089C161.122 40.0934 162.112 39.6901 162.86 38.9788C163.576 38.2422 163.983 37.2613 164.001 36.2353V32.4706C164.001 31.9558 163.89 31.4469 163.675 30.9788ZM162.643 32.3906V36.48C162.63 37.1205 162.378 37.7331 161.936 38.1976C161.485 38.6367 160.884 38.8874 160.254 38.8988H157.539C157.227 38.8981 156.917 38.8358 156.628 38.7155C156.34 38.5951 156.078 38.4192 155.857 38.1976C155.407 37.7387 155.153 37.1225 155.15 36.48V32.3764C155.164 31.7347 155.416 31.1208 155.857 30.6541C156.31 30.2184 156.911 29.9696 157.539 29.9576H160.254C160.885 29.9599 161.489 30.2101 161.936 30.6541C162.378 31.1208 162.63 31.7347 162.643 32.3764V32.3906Z" fill="#7e819a"/>
<path d="M76.415 28.7057H73.0455C72.2862 28.6828 71.5471 28.9524 70.9813 29.4586C70.4048 29.9499 70.036 30.6409 69.9493 31.3927V36.2351C69.9467 36.7901 70.059 37.3396 70.2792 37.8492C70.4863 38.3362 70.7855 38.7788 71.1604 39.1527C71.5271 39.5196 71.9739 39.7967 72.4658 39.9622C72.82 40.0652 73.1828 40.1361 73.5497 40.1739H75.7741C76.4865 40.1705 77.1801 39.9451 77.7581 39.5292C77.9507 39.3866 78.1319 39.2293 78.3001 39.0586C78.4442 38.8925 78.5721 38.7128 78.6818 38.5222C78.7926 38.3348 78.8827 38.136 78.9504 37.9292L79.007 37.821L77.8241 37.6469L77.7722 37.7033C77.6411 37.9876 77.4554 38.2435 77.2256 38.4563C76.8507 38.7864 76.3726 38.9761 75.8731 38.9927H73.3754C73.1728 38.9893 72.9722 38.9528 72.7816 38.8845C72.312 38.735 71.9068 38.4316 71.6317 38.0233C71.4686 37.8208 71.357 37.5818 71.3065 37.3269C71.25 37.2186 71.25 37.0539 71.1981 36.9504V34.9598H76.4103C77.195 34.9794 77.9556 34.6885 78.5263 34.1504C79.1158 33.6065 79.4664 32.8522 79.5018 32.0516V31.6751C79.477 30.8788 79.1383 30.1244 78.5593 29.5763C78.2801 29.293 77.9459 29.0696 77.5772 28.9199C77.2084 28.7702 76.813 28.6973 76.415 28.7057ZM77.6073 33.4398C77.3226 33.6384 76.9782 33.7331 76.6318 33.708H71.2028V31.4069C71.2473 31.0908 71.3777 30.7929 71.5798 30.5457C71.7427 30.3472 71.947 30.1867 72.1783 30.0751C72.4167 29.9675 72.6755 29.9129 72.9371 29.9151H76.6318C76.8752 29.9128 77.1157 29.9676 77.334 30.0751C77.555 30.1871 77.757 30.3332 77.9325 30.508C78.138 30.8139 78.2688 31.1637 78.3142 31.5292C78.3604 31.892 78.3234 32.2605 78.2058 32.6069C78.1022 32.9459 77.8924 33.2428 77.6073 33.4539V33.4398Z" fill="#7e819a"/>
<path d="M148.298 38.6119C148.297 38.9133 148.207 39.2076 148.038 39.4577C147.87 39.7078 147.631 39.9025 147.352 40.0172C147.073 40.1319 146.766 40.1614 146.47 40.1021C146.174 40.0427 145.903 39.8971 145.69 39.6837C145.477 39.4703 145.332 39.1986 145.273 38.903C145.215 38.6073 145.245 38.301 145.361 38.0227C145.477 37.7443 145.672 37.5065 145.923 37.3392C146.174 37.1718 146.469 37.0825 146.771 37.0825C146.972 37.0825 147.171 37.1221 147.356 37.199C147.542 37.2759 147.711 37.3887 147.852 37.5308C147.994 37.6728 148.107 37.8415 148.183 38.027C148.26 38.2125 148.299 38.4113 148.298 38.6119Z" fill="#7e819a"/>
<path d="M26.0654 32.7012L30.4387 40.3482L26.0654 48H17.3706L13.002 40.3482L17.3706 32.7012H26.0654Z" fill="#7e819a"/>
<path d="M26.0654 14.24L30.4387 21.8871L26.0654 29.5388H17.3706L13.002 21.8871L17.3706 14.24H26.0654Z" fill="#7e819a"/>
<path d="M10.6741 24.7908L14.2369 31.1155L10.6741 37.4496H3.56276L0 31.1155L3.56276 24.7908H10.6741Z" fill="#7e819a"/>
<path d="M44.9918 0L50.647 10.0141L44.9918 20.0424H33.6249L27.9697 10.0141L33.6249 0H44.9918Z" fill="#7e819a"/>
</g>
<defs>
<clipPath id="clip0_12_100">
<rect width="164" height="48" fill="#7e819a"/>
</clipPath>
</defs>
</svg>
