<svg width="48" height="48" viewBox="0 0 48 48" fill="none" xmlns="http://www.w3.org/2000/svg">
<path d="M30.0938 1.40625C30.0938 0.629625 29.4641 0 28.6875 0H19.3125C18.5359 0 17.9062 0.629625 17.9062 1.40625V3.75H30.0938V1.40625Z" fill="url(#paint0_linear_39_6970)"/>
<path d="M46.5938 45.1875H46.0312V31.5938C46.0312 31.0611 45.7303 30.5741 45.2539 30.336L41.8125 28.6153V45.1875H39V24.0938C39 23.6235 38.7651 23.1845 38.3737 22.9237L29.9363 17.2987C29.5048 17.011 28.9499 16.9842 28.4927 17.2289C28.0355 17.4736 27.75 17.9501 27.75 18.4688V45.1875H24.9375V18.4688C24.9375 16.91 25.7913 15.4847 27.1657 14.7491C27.7758 14.4226 28.4641 14.25 29.1562 14.25C29.9921 14.25 30.8016 14.4951 31.4969 14.9589L32.9062 15.8985V7.96875C32.9062 7.19212 32.2766 6.5625 31.5 6.5625H16.5C15.7234 6.5625 15.0938 7.19212 15.0938 7.96875V9.5625H17.4375C19.7637 9.5625 21.6562 11.455 21.6562 13.7812V45.1875H18.8438V13.7812C18.8438 13.0046 18.2141 12.375 17.4375 12.375H9C8.22338 12.375 7.59375 13.0046 7.59375 13.7812V32.5312H10.875C13.2012 32.5312 15.0938 34.4238 15.0938 36.75V45.1875H12.2812V36.75C12.2812 35.9734 11.6516 35.3438 10.875 35.3438H3.375C2.59837 35.3438 1.96875 35.9734 1.96875 36.75V45.1875H1.40625C0.629625 45.1875 0 45.8171 0 46.5938C0 47.3704 0.629625 48 1.40625 48H46.5938C47.3704 48 48 47.3704 48 46.5938C48 45.8171 47.3704 45.1875 46.5938 45.1875ZM31.9688 28.7812C31.9688 28.0046 32.5984 27.375 33.375 27.375C34.1516 27.375 34.7812 28.0046 34.7812 28.7812V31.5938C34.7812 32.3704 34.1516 33 33.375 33C32.5984 33 31.9688 32.3704 31.9688 31.5938V28.7812ZM31.9688 37.2188C31.9688 36.4421 32.5984 35.8125 33.375 35.8125C34.1516 35.8125 34.7812 36.4421 34.7812 37.2188V40.0312C34.7812 40.8079 34.1516 41.4375 33.375 41.4375C32.5984 41.4375 31.9688 40.8079 31.9688 40.0312V37.2188ZM14.625 28.7812C14.625 29.5579 13.9954 30.1875 13.2188 30.1875C12.4421 30.1875 11.8125 29.5579 11.8125 28.7812V25.9688C11.8125 25.1921 12.4421 24.5625 13.2188 24.5625C13.9954 24.5625 14.625 25.1921 14.625 25.9688V28.7812ZM14.625 20.3438C14.625 21.1204 13.9954 21.75 13.2188 21.75C12.4421 21.75 11.8125 21.1204 11.8125 20.3438V17.5312C11.8125 16.7546 12.4421 16.125 13.2188 16.125C13.9954 16.125 14.625 16.7546 14.625 17.5312V20.3438ZM5.71875 41.9062C5.71875 41.1296 6.34837 40.5 7.125 40.5C7.90163 40.5 8.53125 41.1296 8.53125 41.9062V45.1875H5.71875V41.9062Z" fill="url(#paint1_linear_39_6970)"/>
<defs>
<linearGradient id="paint0_linear_39_6970" x1="24" y1="0" x2="24" y2="48" gradientUnits="userSpaceOnUse">
<stop stop-color="#DBD2FF"/>
<stop offset="1" stop-color="#B4BBFF" stop-opacity="0.29"/>
</linearGradient>
<linearGradient id="paint1_linear_39_6970" x1="24" y1="0" x2="24" y2="48" gradientUnits="userSpaceOnUse">
<stop stop-color="#DBD2FF"/>
<stop offset="1" stop-color="#B4BBFF" stop-opacity="0.29"/>
</linearGradient>
</defs>
</svg>
