<svg width="42" height="42" viewBox="0 0 42 42" fill="none" xmlns="http://www.w3.org/2000/svg">
<path d="M37.175 0.199951C30.3139 0.199951 21.1075 4.90715 14.9251 13H9.79999C6.09663 13 3.97407 15.7641 2.51263 18.6873L0.556152 22.6H5.17503H9.79999L14.6 27.4L19.4 32.2V36.8249V41.4438L23.3126 39.4876C26.2358 38.0259 29 35.9033 29 32.2V27.0748C37.0928 20.8924 41.8 11.686 41.8 4.82491V0.199951H37.175ZM29 9.79995C30.7674 9.79995 32.2 11.2326 32.2 13C32.2 14.7673 30.7674 16.2 29 16.2C27.2326 16.2 25.8 14.7673 25.8 13C25.8 11.2326 27.2326 9.79995 29 9.79995ZM8.19999 29L6.59999 30.6C4.28895 32.911 3.39999 38.6 3.39999 38.6C3.39999 38.6 8.83359 37.9664 11.4 35.4L13 33.8L8.19999 29Z" fill="url(#paint0_linear_39_6963)"/>
<defs>
<linearGradient id="paint0_linear_39_6963" x1="21.1781" y1="0.199951" x2="21.1781" y2="41.4438" gradientUnits="userSpaceOnUse">
<stop stop-color="#DBD2FF"/>
<stop offset="1" stop-color="#B4BBFF" stop-opacity="0.29"/>
</linearGradient>
</defs>
</svg>
