<svg width="48" height="48" viewBox="0 0 48 48" fill="none" xmlns="http://www.w3.org/2000/svg">
<path d="M47.8112 23.2972L44.9727 18.3802V12.7034C44.9727 12.201 44.7047 11.7366 44.2695 11.4855L39.3527 8.64708L36.5144 3.73026C36.2632 3.29517 35.7989 3.02714 35.2965 3.02714H29.6196L24.7026 0.188576C24.2676 -0.0624863 23.7316 -0.0625801 23.2964 0.188576L18.3795 3.02705H12.7027C12.2003 3.02705 11.7359 3.29508 11.4848 3.73026L8.64647 8.64708L3.72957 11.4855C3.29438 11.7366 3.02635 12.2009 3.02635 12.7034V18.3802L0.187879 23.2972C-0.0632773 23.7323 -0.0632773 24.2682 0.187879 24.7033L3.02625 29.6203V35.2971C3.02625 35.7995 3.29429 36.2639 3.72947 36.515L8.64638 39.3534L11.4848 44.2702C11.7359 44.7054 12.2002 44.9734 12.7027 44.9734H18.3796L23.2965 47.8119C23.514 47.9374 23.7568 48.0002 23.9996 48.0002C24.2424 48.0002 24.4852 47.9374 24.7027 47.8119L29.6196 44.9734H35.2964C35.7988 44.9734 36.2632 44.7054 36.5143 44.2703L39.3526 39.3535L44.2694 36.5151C44.7046 36.264 44.9726 35.7997 44.9726 35.2972V29.6204L47.8111 24.7034C48.0624 24.2682 48.0624 23.7323 47.8112 23.2972ZM38.1138 23.4524L36.4402 30.9841C35.9871 33.0213 34.2132 34.444 32.1264 34.444H13.4558C12.6791 34.444 12.0495 33.8144 12.0495 33.0377V20.9878C12.0495 20.2111 12.6791 19.5815 13.4558 19.5815H19.1215C20.3411 18.8533 21.087 17.5513 21.087 16.1135V11.9503C21.087 11.1736 21.7166 10.544 22.4933 10.544H24.7526C27.6133 10.544 29.9245 12.8588 29.9245 15.7159V18.0752H33.8007C35.1479 18.0752 36.4042 18.678 37.2473 19.7289C38.09 20.7802 38.4056 22.1372 38.1138 23.4524Z" fill="url(#paint0_linear_39_6977)"/>
<path d="M33.8009 20.8876H28.5185C27.7419 20.8876 27.1123 20.258 27.1123 19.4814V15.7157C27.1123 14.402 26.0467 13.3563 24.7529 13.3563H23.8997V16.1133C23.8997 18.4231 22.7652 20.5271 20.8873 21.7918V31.6314H32.1268C32.8854 31.6314 33.5303 31.1142 33.695 30.3735L35.3685 22.8424C35.4747 22.3642 35.3598 21.8704 35.0535 21.4882C34.7473 21.1067 34.2906 20.8876 33.8009 20.8876Z" fill="url(#paint1_linear_39_6977)"/>
<path d="M14.8622 22.3939H18.0748V31.6314H14.8622V22.3939Z" fill="url(#paint2_linear_39_6977)"/>
<defs>
<linearGradient id="paint0_linear_39_6977" x1="23.9995" y1="0.000244141" x2="23.9995" y2="48.0002" gradientUnits="userSpaceOnUse">
<stop stop-color="#DBD2FF"/>
<stop offset="1" stop-color="#B4BBFF" stop-opacity="0.29"/>
</linearGradient>
<linearGradient id="paint1_linear_39_6977" x1="23.9995" y1="0.000244141" x2="23.9995" y2="48.0002" gradientUnits="userSpaceOnUse">
<stop stop-color="#DBD2FF"/>
<stop offset="1" stop-color="#B4BBFF" stop-opacity="0.29"/>
</linearGradient>
<linearGradient id="paint2_linear_39_6977" x1="23.9995" y1="0.000244141" x2="23.9995" y2="48.0002" gradientUnits="userSpaceOnUse">
<stop stop-color="#DBD2FF"/>
<stop offset="1" stop-color="#B4BBFF" stop-opacity="0.29"/>
</linearGradient>
</defs>
</svg>
