<svg width="48" height="48" viewBox="0 0 48 48" fill="none" xmlns="http://www.w3.org/2000/svg">
<path d="M24 0C10.7457 0 0 10.7457 0 24C0 37.2543 10.7457 48 24 48C37.2543 48 48 37.2543 48 24C48 10.7457 37.2543 0 24 0ZM30.8938 33.4617C29.8469 34.7358 28.4839 35.5951 26.8938 36.0296C26.2025 36.2173 25.8864 36.5827 25.9259 37.3037C25.9556 38.0148 25.9259 38.716 25.916 39.4272C25.916 40.0593 25.5901 40.3951 24.9679 40.4148C24.563 40.4247 24.158 40.4346 23.7531 40.4346C23.3975 40.4346 23.042 40.4346 22.6864 40.4247C22.0148 40.4148 21.6988 40.0296 21.6988 39.3778C21.6889 38.8642 21.6889 38.3407 21.6889 37.8272C21.679 36.6815 21.6395 36.642 20.5432 36.4642C19.1407 36.237 17.758 35.921 16.4741 35.2988C15.4667 34.8049 15.358 34.558 15.6444 33.4914C15.8617 32.7012 16.079 31.9111 16.3259 31.1309C16.5037 30.558 16.6716 30.3012 16.9778 30.3012C17.1556 30.3012 17.3827 30.3901 17.6889 30.5481C19.1111 31.2889 20.6222 31.7037 22.2123 31.9012C22.479 31.9309 22.7457 31.9506 23.0123 31.9506C23.7531 31.9506 24.4741 31.8123 25.1753 31.5062C26.9432 30.7358 27.2198 28.6914 25.7284 27.4667C25.2247 27.0519 24.642 26.7457 24.0395 26.479C22.4889 25.7975 20.879 25.284 19.4173 24.4049C17.0469 22.9827 15.5457 21.037 15.7235 18.1531C15.921 14.8938 17.7679 12.8593 20.7605 11.7728C21.9951 11.3284 22.0049 11.3383 22.0049 10.0543C22.0049 9.61975 21.9951 9.18519 22.0148 8.74074C22.0444 7.77284 22.2025 7.60494 23.1704 7.57531C23.279 7.57531 23.3975 7.57531 23.5062 7.57531C23.6938 7.57531 23.8815 7.57531 24.0691 7.57531C24.1481 7.57531 24.2272 7.57531 24.2963 7.57531C26.1333 7.57531 26.1333 7.65432 26.1432 9.63951C26.1531 11.1012 26.1531 11.1012 27.6049 11.3284C28.721 11.5062 29.7778 11.8321 30.8049 12.2864C31.3679 12.5333 31.5852 12.9284 31.4074 13.5309C31.1506 14.4198 30.9037 15.3185 30.6272 16.1975C30.4494 16.7309 30.2815 16.9778 29.9654 16.9778C29.7877 16.9778 29.5704 16.9086 29.2938 16.7704C27.8716 16.079 26.3802 15.7432 24.8198 15.7432C24.6222 15.7432 24.4148 15.7531 24.2173 15.763C23.7531 15.7926 23.2988 15.8519 22.8642 16.0395C21.3235 16.7111 21.0765 18.4099 22.3901 19.4568C23.0519 19.9901 23.8123 20.3654 24.5926 20.6914C25.9556 21.2543 27.3185 21.7975 28.6123 22.5086C32.6815 24.7802 33.7877 29.9457 30.8938 33.4617Z" fill="url(#paint0_linear_39_6957)"/>
<defs>
<linearGradient id="paint0_linear_39_6957" x1="24" y1="0" x2="24" y2="48" gradientUnits="userSpaceOnUse">
<stop stop-color="#DBD2FF"/>
<stop offset="1" stop-color="#B4BBFF" stop-opacity="0.29"/>
</linearGradient>
</defs>
</svg>
