<svg aria-hidden="true" focusable="false" data-prefix="fas" data-icon="tshirt" role="img" xmlns="http://www.w3.org/2000/svg" viewBox="0 0 640 512">
<defs>
  <linearGradient id="grad1" x1="0%" y1="0%" x2="100%" y2="100%">
    <stop offset="0%"   style="stop-color:#4fcf70; stop-opacity:1;" />
    <stop offset="100%"  style="stop-color:#12bcfe; stop-opacity:1;" />
  </linearGradient>
</defs>
<path fill="url(#grad1)" d="M631.2 96.5L436.5 0C416.4 27.8 371.9 47.2 320 47.2S223.6 27.8 203.5 0L8.8 96.5c-7.9 4-11.1 13.6-7.2 21.5l57.2 114.5c4 7.9 13.6 11.1 21.5 7.2l56.6-27.7c10.6-5.2 23 2.5 23 14.4V480c0 17.7 14.3 32 32 32h256c17.7 0 32-14.3 32-32V226.3c0-11.8 12.4-19.6 23-14.4l56.6 27.7c7.9 4 17.5.8 21.5-7.2L638.3 118c4-7.9.8-17.6-7.1-21.5z" class=""></path>
</svg>
