<svg width="190" height="147" viewBox="0 0 190 147" fill="none" xmlns="http://www.w3.org/2000/svg">
<g clip-path="url(#clip0_2_388)">
<path fill-rule="evenodd" clip-rule="evenodd" d="M42.3407 8.95833C42.3407 8.97607 42.3407 8.9927 42.3407 9.01044C42.3407 16.8945 42.3407 28.3895 42.3407 34.4553C42.3407 36.9909 41.0137 39.3347 38.859 40.603L8.50578 58.4654L7.82272 62.5111L2.22651 59.216C0.845136 58.3379 0 56.7946 0 55.1271C0 47.2431 0 35.748 0 29.6823C0 27.1467 1.32698 24.8029 3.4817 23.5345C10.4147 19.4545 26.0677 10.2433 35.2511 4.83838C36.714 3.97803 38.5153 3.97803 39.9782 4.83838C40.0402 4.87497 40.1011 4.91267 40.162 4.95258L44.8424 7.74208L42.3407 8.95833Z" fill="#E96200"/>
<path fill-rule="evenodd" clip-rule="evenodd" d="M13.9454 62.7482L26.0047 45.6775L7.82275 56.3787V66.0156C7.82275 66.7651 8.24632 67.4996 8.94245 67.7369L8.95984 67.7424L13.9845 70.6456L13.9454 62.7482Z" fill="#E96200"/>
<path fill-rule="evenodd" clip-rule="evenodd" d="M13.1981 62.031V69.1788C13.1981 69.9349 13.6767 70.6046 14.3826 70.8374C15.0885 71.0691 15.8608 70.8108 16.2937 70.1966L28.3704 53.1025L44.2344 43.7661C46.3891 42.4978 47.7162 40.1551 47.7162 37.6183C47.7162 31.5537 47.7162 20.0575 47.7162 12.1735C47.7173 10.4528 46.8156 8.86293 45.3537 8.00147C43.8908 7.14111 42.0895 7.14111 40.6276 8.00147C31.4431 13.4064 15.7912 22.6187 8.85719 26.6987C6.70246 27.9671 5.37549 30.3098 5.37549 32.8465C5.37549 38.9111 5.37549 50.4073 5.37549 58.2902C5.37549 60.012 6.27607 61.6019 7.73902 62.4634C9.20088 63.3237 11.0021 63.3237 12.4651 62.4634L13.1981 62.031Z" fill="#FEAD10"/>
<g filter="url(#filter0_d_2_388)">
<path d="M21.1182 32.1777V28.2969L27.7737 24.3962C30.5761 22.725 31.9772 23.5317 31.9772 26.8162V29.045C31.9772 32.486 30.6428 35.0022 27.9739 36.5939L27.5235 36.8624V38.2701L23.9205 40.4188V35.1987L27.6236 32.9904C28.124 32.6919 28.3743 32.2494 28.3743 31.6629V28.7303C28.3743 28.1437 28.124 27.9997 27.6236 28.2982L21.1182 32.1777ZM23.8455 46.974V42.7803L27.5986 40.5421V44.7358L23.8455 46.974Z" fill="white"/>
</g>
<path fill-rule="evenodd" clip-rule="evenodd" d="M157.473 34.0863C157.473 34.0999 157.473 34.1127 157.473 34.1264C157.473 40.1831 157.473 49.0139 157.473 53.6738C157.473 55.6217 158.492 57.4223 160.147 58.3967L183.466 72.1191L183.99 75.2271L188.29 72.6958C189.351 72.0212 190 70.8356 190 69.5545C190 63.4978 190 54.6669 190 50.0071C190 48.0591 188.981 46.2586 187.325 45.2842C181.999 42.1498 169.974 35.0735 162.919 30.9213C161.795 30.2603 160.411 30.2603 159.288 30.9213C159.24 30.9494 159.193 30.9783 159.146 31.009L155.551 33.152L157.473 34.0863Z" fill="#01B6CF"/>
<path fill-rule="evenodd" clip-rule="evenodd" d="M179.287 75.4094L170.023 62.2952L183.99 70.5162V77.9195C183.99 78.4953 183.629 79.0063 183.094 79.1886L183.081 79.1929L179.257 81.4764L179.287 75.4094Z" fill="#01B6CF"/>
<path fill-rule="evenodd" clip-rule="evenodd" d="M179.86 74.8582V80.3494C179.86 80.9303 179.493 81.4448 178.95 81.6236C178.408 81.8016 177.815 81.6032 177.482 81.1313L168.204 67.9992L156.017 60.8267C154.362 59.8523 153.342 58.0525 153.342 56.1037C153.342 51.4447 153.342 42.613 153.342 36.5563C153.342 35.2344 154.034 34.013 155.157 33.3512C156.281 32.6902 157.665 32.6902 158.788 33.3512C165.844 37.5034 177.868 44.5805 183.195 47.7149C184.85 48.6893 185.87 50.4891 185.87 52.4379C185.87 57.0969 185.87 65.9286 185.87 71.9845C185.87 73.3072 185.178 74.5286 184.054 75.1904C182.931 75.8514 181.547 75.8514 180.423 75.1904L179.86 74.8582Z" fill="#5DE5F8"/>
<g filter="url(#filter1_d_2_388)">
<path d="M160.249 52.6513C161.697 53.5135 162.872 52.8382 162.872 51.143C162.872 49.4479 161.697 47.3747 160.249 46.5125C158.8 45.6503 157.626 46.3256 157.626 48.0208C157.626 49.716 158.8 51.7891 160.249 52.6513Z" fill="white"/>
</g>
<g filter="url(#filter2_d_2_388)">
<path d="M168.562 57.5439C170.011 58.406 171.185 57.7308 171.185 56.0356C171.185 54.3404 170.011 52.2673 168.562 51.4051C167.114 50.5429 165.94 51.2182 165.94 52.9134C165.94 54.6085 167.114 56.6817 168.562 57.5439Z" fill="white"/>
</g>
<g filter="url(#filter3_d_2_388)">
<path d="M176.876 62.4369C178.325 63.2991 179.499 62.6239 179.499 60.9287C179.499 59.2335 178.325 57.1603 176.876 56.2982C175.428 55.436 174.253 56.1113 174.253 57.8064C174.253 59.5016 175.428 61.5747 176.876 62.4369Z" fill="white"/>
</g>
<path d="M156.653 100.611C157.237 100.268 157.237 99.7097 156.653 99.3664C156.068 99.0221 155.122 99.0221 154.538 99.3664C153.953 99.7097 153.953 100.268 154.537 100.611C155.122 100.955 156.068 100.955 156.653 100.611Z" stroke="#BCC0DD" stroke-width="0.81" stroke-miterlimit="1.5" stroke-linecap="round" stroke-linejoin="round"/>
<path fill-rule="evenodd" clip-rule="evenodd" d="M40.1603 94.4014H23.978V103.924C23.978 105.612 24.8612 107.172 26.2955 108.015C40.9135 116.618 74.6927 136.498 89.3107 145.101C93.6126 147.633 98.9138 147.633 103.215 145.101C117.835 136.498 151.612 116.618 166.232 108.015C167.665 107.172 168.549 105.612 168.549 103.924C168.549 103.685 168.532 103.451 168.497 103.219V94.4014H152.367L103.215 65.4743C98.9138 62.9441 93.6126 62.9441 89.3107 65.4743L40.1603 94.4014Z" fill="url(#paint0_linear_2_388)"/>
<path fill-rule="evenodd" clip-rule="evenodd" d="M40.1603 94.4014H23.978V103.924C23.978 105.612 24.8612 107.172 26.2955 108.015C40.9135 116.618 74.6927 136.498 89.3107 145.101C93.6126 147.633 98.9138 147.633 103.215 145.101C117.835 136.498 151.612 116.618 166.232 108.015C167.665 107.172 168.549 105.612 168.549 103.924C168.549 103.685 168.532 103.451 168.497 103.219V94.4014H152.367L103.215 65.4743C98.9138 62.9441 93.6126 62.9441 89.3107 65.4743L40.1603 94.4014Z" fill="#A8AFDC"/>
<path d="M89.4948 53.5371C93.6841 51.0719 98.8424 51.0719 103.032 53.5371L166.048 90.622C167.368 91.3996 168.185 92.8397 168.185 94.4005C168.185 95.9622 167.369 97.4013 166.048 98.1798C166.048 98.1799 166.048 98.1799 166.048 98.1799L103.032 135.265C98.8433 137.729 93.6831 137.729 89.4948 135.265L26.4797 98.1799C26.4797 98.1799 26.4797 98.1799 26.4797 98.1798C25.1573 97.4013 24.3411 95.9622 24.3411 94.4005C24.3411 92.8397 25.1582 91.3996 26.4796 90.622L26.2955 90.3092L26.4797 90.622L89.4948 53.5371Z" fill="url(#paint1_linear_2_388)" stroke="url(#paint2_radial_2_388)" stroke-width="0.726052"/>
<path fill-rule="evenodd" clip-rule="evenodd" d="M104.747 106.195C101.823 104.329 100.035 101.056 100.035 97.5226C100.035 91.9693 100.035 86.0763 100.035 81.401C100.035 75.8751 102.926 70.7686 107.622 68.0062C109.551 66.8703 111.693 65.6097 113.853 64.3396C116.958 62.5111 120.785 62.5111 123.89 64.3396C124.187 64.5143 124.473 64.7032 124.748 64.9052L129.555 67.7115L128.48 70.2422C128.761 71.188 128.909 72.1836 128.909 73.1994C128.909 78.7527 128.909 84.6458 128.909 89.321C128.909 94.8469 126.016 99.9535 121.321 102.716C119.392 103.852 117.251 105.111 115.091 106.382C114.333 106.829 113.531 107.167 112.708 107.395L111.522 110.189L105.352 106.551C105.252 106.496 105.152 106.441 105.054 106.382C104.95 106.322 104.849 106.26 104.748 106.196L104.747 106.195Z" fill="#173EA0"/>
<path fill-rule="evenodd" clip-rule="evenodd" d="M135.298 76.873C135.298 73.2363 133.385 69.8941 130.279 68.108C127.174 66.3212 123.347 66.3596 120.242 68.2096C118.082 69.4967 115.941 70.7723 114.012 71.9217C109.317 74.7189 106.424 79.831 106.424 85.3298C106.424 89.9809 106.424 95.8442 106.424 101.37C106.424 105.009 108.338 108.349 111.443 110.137C114.549 111.923 118.374 111.884 121.48 110.033C123.64 108.747 125.782 107.47 127.711 106.321C132.406 103.524 135.298 98.4138 135.298 92.915C135.298 88.2639 135.298 82.3992 135.298 76.873Z" fill="#2B7AFB"/>
<path fill-rule="evenodd" clip-rule="evenodd" d="M131.628 76.9075C131.628 82.4348 131.628 88.3008 131.628 92.953C131.628 97.1231 129.436 100.998 125.876 103.12L119.645 106.833C117.675 108.007 115.247 108.033 113.278 106.899C111.307 105.764 110.093 103.645 110.093 101.336C110.093 95.8086 110.093 89.944 110.093 85.2919C110.093 81.1218 112.287 77.2447 115.846 75.1235L122.076 71.4104C124.047 70.2361 126.474 70.2121 128.445 71.3454C130.415 72.4787 131.628 74.5998 131.628 76.9075Z" fill="#A8AFDC"/>
<path fill-rule="evenodd" clip-rule="evenodd" d="M133.484 77.9993C133.484 83.5266 133.484 89.3926 133.484 94.0448C133.484 98.2149 131.291 102.09 127.731 104.212L121.501 107.925C119.53 109.099 117.102 109.125 115.133 107.991C113.163 106.856 111.948 104.737 111.948 102.428C111.948 96.9004 111.948 91.0358 111.948 86.3837C111.948 82.2136 114.142 78.3365 117.701 76.2153L123.931 72.5022C125.902 71.3279 128.329 71.3039 130.3 72.4372C132.27 73.5705 133.484 75.6916 133.484 77.9993Z" fill="#F7F8FE"/>
<path fill-rule="evenodd" clip-rule="evenodd" d="M61.9412 81.0033C59.0168 79.1379 57.2288 75.8646 57.2288 72.3312C57.2288 66.7779 57.2288 60.8849 57.2288 56.2096C57.2288 50.6837 60.1206 45.5771 64.8156 42.8148C66.7447 41.6789 68.8871 40.4183 71.0469 39.1482C74.1521 37.3197 77.9788 37.3197 81.084 39.1482C81.3812 39.3229 81.6667 39.5118 81.9418 39.7138L86.7488 42.5201L85.6741 45.0508C85.955 45.9965 86.103 46.9922 86.103 48.008C86.103 53.5613 86.103 59.4544 86.103 64.1296C86.103 69.6555 83.21 74.7621 78.5149 77.5244C76.5858 78.6603 74.4447 79.9197 72.2848 81.191C71.5272 81.6377 70.7252 81.9751 69.9023 82.2033L68.7157 84.9977L62.5462 81.3597C62.446 81.305 62.3457 81.2492 62.2478 81.191C62.1441 81.1304 62.0427 81.0686 61.9425 81.0044L61.9412 81.0033Z" fill="#2B7AFB"/>
<path fill-rule="evenodd" clip-rule="evenodd" d="M92.4914 51.6816C92.4914 48.0449 90.5786 44.7027 87.4725 42.9166C84.3675 41.1298 80.5407 41.1682 77.4357 43.0182C75.2755 44.3053 73.1345 45.5809 71.2054 46.7302C66.5105 49.5275 63.6174 54.6396 63.6174 60.1384C63.6174 64.7895 63.6174 70.6528 63.6174 76.179C63.6174 79.8171 65.5314 83.1572 68.6364 84.9454C71.7425 86.7315 75.5682 86.6923 78.6742 84.8417C80.8334 83.5553 82.9755 82.279 84.9045 81.1297C89.5994 78.3325 92.4914 73.2224 92.4914 67.7236C92.4914 63.0725 92.4914 57.2078 92.4914 51.6816Z" fill="#173EA0"/>
<path fill-rule="evenodd" clip-rule="evenodd" d="M84.5051 45.7036L85.6387 46.1668C87.6091 47.3002 88.8224 49.4215 88.8224 51.7293C88.8224 57.2572 88.8224 63.1238 88.8224 67.7763C88.8224 71.9468 86.6299 75.8223 83.0697 77.9444L76.8394 81.6578C74.869 82.8323 72.4413 82.8577 70.4719 81.7237L69.4988 80.975C71.2068 81.5971 73.1227 81.4055 74.7327 80.4459L80.963 76.7324C84.5233 74.6103 86.7158 70.7349 86.7158 66.5644C86.7158 61.9105 86.7158 56.0453 86.7158 50.5174C86.7158 48.6302 85.9052 46.8697 84.5051 45.7036Z" fill="#011954"/>
<path fill-rule="evenodd" clip-rule="evenodd" d="M69.4978 80.9454C68.0967 79.7799 67.2861 78.0181 67.2861 76.1322C67.2861 70.6044 67.2861 64.7378 67.2861 60.0853C67.2861 55.9148 69.4796 52.0388 73.0389 49.9173L79.2692 46.2039C80.8802 45.2436 82.7951 45.0513 84.5031 45.6747C85.9042 46.8402 86.7148 48.6021 86.7148 50.4879C86.7148 56.0158 86.7148 61.8823 86.7148 66.5348C86.7148 70.7053 84.5223 74.5807 80.962 76.7028L74.7317 80.4163C73.1217 81.3759 71.2058 81.5688 69.4978 80.9454Z" fill="#2253D0"/>
<path fill-rule="evenodd" clip-rule="evenodd" d="M79.5045 11.3519L79.4881 11.3614C79.4671 11.3744 79.4473 11.3863 79.4264 11.3982L72.4666 15.5162L76.5695 13.8077C79.2632 13.2683 82.1037 13.7198 84.5538 15.161C90.4017 18.6017 96.7449 22.336 101.884 25.3598C108.297 29.1332 112.247 36.1075 112.247 43.6556V70.7779L118.704 66.9783V39.856C118.704 32.3091 114.753 25.3348 108.34 21.5602C103.201 18.5364 96.8579 14.8033 91.0101 11.3614C87.4515 9.26671 83.0677 9.26314 79.5045 11.3519Z" fill="#2B7AFB"/>
<path fill-rule="evenodd" clip-rule="evenodd" d="M76.5697 13.8076C75.3435 14.0536 74.1475 14.505 73.0321 15.1609C69.4665 17.2591 67.2705 21.1359 67.2705 25.3324C67.2705 34.93 67.2705 44.309 67.2705 44.309L69.6017 45.6813L73.7268 43.2884C73.7268 43.2884 73.7268 31.1304 73.7268 21.5328C73.7268 18.6492 74.7642 15.9165 76.5697 13.8076Z" fill="#011954"/>
<path fill-rule="evenodd" clip-rule="evenodd" d="M69.6017 45.6813L67.2705 44.309C67.2705 44.309 67.2705 34.93 67.2705 25.3324C67.2705 21.136 69.4665 17.2591 73.0321 15.1609C74.1475 14.5051 76.5697 13.8077 76.5697 13.8077C79.2634 13.2682 82.104 13.7197 84.554 15.1609C90.4019 18.6017 96.7451 22.336 101.884 25.3597C108.297 29.1332 112.248 36.1074 112.248 43.6556V70.7779L109.888 69.389L109.916 43.6556C109.916 36.9569 106.41 30.7668 100.719 27.4175L83.3884 17.2187C81.4594 16.0841 79.2272 15.7193 77.093 16.1269C76.6536 16.2528 75.0113 16.7399 74.1977 17.2187C71.3536 18.8928 69.6017 21.9855 69.6017 25.3324V45.6813Z" fill="#73CDFF"/>
<path fill-rule="evenodd" clip-rule="evenodd" d="M85.6798 104.195C89.9156 106.3 94.8658 106.3 99.1016 104.195L103.204 102.156L104.427 104.711L100.324 106.75C100.323 106.75 100.324 106.75 100.324 106.75C95.3165 109.238 89.4651 109.238 84.4581 106.75C84.458 106.75 84.4581 106.75 84.4581 106.75L73.5588 101.335L74.7804 98.78L85.6798 104.195Z" fill="#2B7AFB"/>
<path d="M70.2715 103.713C73.4214 104.849 76.6879 103.687 77.5675 101.118C78.447 98.5492 76.6065 95.5456 73.4566 94.4095C70.3067 93.2735 67.0402 94.4352 66.1606 97.0043C65.2811 99.5735 67.1216 102.577 70.2715 103.713Z" fill="#173EA0"/>
</g>
<defs>
<filter id="filter0_d_2_388" x="16.1182" y="22.5508" width="16.8591" height="29.4231" filterUnits="userSpaceOnUse" color-interpolation-filters="sRGB">
<feFlood flood-opacity="0" result="BackgroundImageFix"/>
<feColorMatrix in="SourceAlpha" type="matrix" values="0 0 0 0 0 0 0 0 0 0 0 0 0 0 0 0 0 0 127 0" result="hardAlpha"/>
<feOffset dx="-2" dy="2"/>
<feGaussianBlur stdDeviation="1.5"/>
<feComposite in2="hardAlpha" operator="out"/>
<feColorMatrix type="matrix" values="0 0 0 0 0.9125 0 0 0 0 0.504993 0 0 0 0 0.0266145 0 0 0 1 0"/>
<feBlend mode="normal" in2="BackgroundImageFix" result="effect1_dropShadow_2_388"/>
<feBlend mode="normal" in="SourceGraphic" in2="effect1_dropShadow_2_388" result="shape"/>
</filter>
<filter id="filter1_d_2_388" x="153.626" y="44.1377" width="13.2456" height="14.8884" filterUnits="userSpaceOnUse" color-interpolation-filters="sRGB">
<feFlood flood-opacity="0" result="BackgroundImageFix"/>
<feColorMatrix in="SourceAlpha" type="matrix" values="0 0 0 0 0 0 0 0 0 0 0 0 0 0 0 0 0 0 127 0" result="hardAlpha"/>
<feOffset dy="2"/>
<feGaussianBlur stdDeviation="2"/>
<feComposite in2="hardAlpha" operator="out"/>
<feColorMatrix type="matrix" values="0 0 0 0 0.0816667 0 0 0 0 0.258767 0 0 0 0 0.466667 0 0 0 0.25 0"/>
<feBlend mode="normal" in2="BackgroundImageFix" result="effect1_dropShadow_2_388"/>
<feBlend mode="normal" in="SourceGraphic" in2="effect1_dropShadow_2_388" result="shape"/>
</filter>
<filter id="filter2_d_2_388" x="161.94" y="49.0303" width="13.2456" height="14.8884" filterUnits="userSpaceOnUse" color-interpolation-filters="sRGB">
<feFlood flood-opacity="0" result="BackgroundImageFix"/>
<feColorMatrix in="SourceAlpha" type="matrix" values="0 0 0 0 0 0 0 0 0 0 0 0 0 0 0 0 0 0 127 0" result="hardAlpha"/>
<feOffset dy="2"/>
<feGaussianBlur stdDeviation="2"/>
<feComposite in2="hardAlpha" operator="out"/>
<feColorMatrix type="matrix" values="0 0 0 0 0.0816667 0 0 0 0 0.258767 0 0 0 0 0.466667 0 0 0 0.25 0"/>
<feBlend mode="normal" in2="BackgroundImageFix" result="effect1_dropShadow_2_388"/>
<feBlend mode="normal" in="SourceGraphic" in2="effect1_dropShadow_2_388" result="shape"/>
</filter>
<filter id="filter3_d_2_388" x="170.253" y="53.9233" width="13.2456" height="14.8884" filterUnits="userSpaceOnUse" color-interpolation-filters="sRGB">
<feFlood flood-opacity="0" result="BackgroundImageFix"/>
<feColorMatrix in="SourceAlpha" type="matrix" values="0 0 0 0 0 0 0 0 0 0 0 0 0 0 0 0 0 0 127 0" result="hardAlpha"/>
<feOffset dy="2"/>
<feGaussianBlur stdDeviation="2"/>
<feComposite in2="hardAlpha" operator="out"/>
<feColorMatrix type="matrix" values="0 0 0 0 0.0816667 0 0 0 0 0.258767 0 0 0 0 0.466667 0 0 0 0.25 0"/>
<feBlend mode="normal" in2="BackgroundImageFix" result="effect1_dropShadow_2_388"/>
<feBlend mode="normal" in="SourceGraphic" in2="effect1_dropShadow_2_388" result="shape"/>
</filter>
<linearGradient id="paint0_linear_2_388" x1="23.978" y1="102.693" x2="168.549" y2="103.026" gradientUnits="userSpaceOnUse">
<stop stop-color="#E0E3F5"/>
<stop offset="0.0674822" stop-color="#B4B9DD"/>
<stop offset="0.455963" stop-color="#6A78D8"/>
</linearGradient>
<linearGradient id="paint1_linear_2_388" x1="88.4169" y1="145.529" x2="54.1169" y2="88.7773" gradientUnits="userSpaceOnUse">
<stop stop-color="white"/>
<stop offset="1" stop-color="#E5E7FA"/>
</linearGradient>
<radialGradient id="paint2_radial_2_388" cx="0" cy="0" r="1" gradientUnits="userSpaceOnUse" gradientTransform="translate(107.374 56.643) rotate(105.055) scale(78.0994 131.637)">
<stop stop-color="white"/>
<stop offset="1" stop-color="white" stop-opacity="0"/>
</radialGradient>
<clipPath id="clip0_2_388">
<rect width="190" height="147" fill="white"/>
</clipPath>
</defs>
</svg>
