<svg width="46" height="37" viewBox="0 0 46 37" fill="none" xmlns="http://www.w3.org/2000/svg">
<path opacity="0.1" d="M0 24.5575C0 32.5797 4.79856 37 10.259 37C15.223 37 19.1942 33.0708 19.1942 28.1593C19.1942 23.4115 15.7194 19.8097 11.0863 19.8097C10.259 19.8097 9.10072 20.1372 8.93525 20.1372C9.59712 14.8982 14.2302 8.34956 19.5252 4.91151L13.4029 0C5.79137 5.23894 0 14.5708 0 24.5575ZM26.4748 24.5575C26.4748 32.5797 31.2734 37 36.7338 37C41.6978 37 45.6691 33.0708 45.6691 28.1593C45.6691 23.4115 42.1942 19.8097 37.5611 19.8097C36.8993 19.8097 35.741 20.1372 35.4101 20.1372C36.0719 14.8982 40.705 8.34956 46 4.91151L39.8777 0C32.2662 5.23894 26.4748 14.5708 26.4748 24.5575Z" fill="#003399"/>
</svg>
