<svg width="140" height="140" viewBox="0 0 140 140" fill="none" xmlns="http://www.w3.org/2000/svg">
<g clip-path="url(#clip0_6_1199)">
<path d="M98.0605 39.491C98.0605 39.491 106.863 43.0534 112.522 88.9511C112.522 88.9511 104.355 92.0943 109.378 97.5441C114.402 102.994 115.045 113.263 115.045 113.263C115.045 113.263 85.285 117.663 33.5201 113.891C33.5201 113.891 12.7724 71.5566 20.9371 56.8863L34.56 57.3054C34.56 57.3054 54.2594 67.1551 53.4219 56.6771C53.4219 56.6771 57.0485 56.3171 57.5984 55.9855C58.1484 55.6538 62.3875 63.8019 73.7812 50.2057C73.7812 50.2057 91.504 43.435 97.7788 39.581L98.0605 39.491ZM30.5043 47.2491C30.5043 47.2491 25.1437 31.8346 18.3655 35.0462C11.5874 38.2577 18.8589 49.774 20.7688 52.2373C20.7688 52.2381 26.6219 48.4207 30.5043 47.2474V47.2491Z" fill="#60D0E4"/>
<path fill-rule="evenodd" clip-rule="evenodd" d="M75.3721 125.747C74.7029 124.662 73.1472 124.684 71.6189 124.462C70.6189 124.314 68.3457 124.068 68.2857 122.816C68.2023 121.449 70.2139 120.944 71.5772 120.656C74.8379 119.967 78.0887 120.089 82.0152 120.089C83.6985 120.089 85.9434 120.195 86.1284 121.323C86.2826 122.269 85.4826 122.945 84.8426 123.379C84.2743 123.765 83.126 124.129 83.0952 124.974C83.0385 126.473 85.7951 126.199 85.1518 128.264C84.9143 129.027 83.5902 129.464 82.581 129.764C79.3811 130.681 75.6204 130.995 71.9372 131.307C68.604 131.591 64.3391 132.228 60.4192 131.667C59.2968 131.501 57.816 131.079 57.746 130.28C57.6335 128.999 59.7459 128.595 60.8826 128.428C64.0241 127.969 66.9715 128.171 70.3948 128.017C72.7813 127.908 75.1779 127.933 75.3813 125.755L75.3721 125.747ZM41.6924 126.21C44.0073 126.099 47.2588 126.245 49.5588 126.827C50.1604 126.979 51.3045 127.227 51.307 127.855C51.3104 128.527 49.8004 128.813 48.9421 129.038C44.0523 130.305 39.0424 130.705 33.6201 131.351C32.6343 131.47 31.6102 131.537 30.5344 131.814C29.9077 131.976 28.372 132.432 28.4261 133.202C28.4945 134.152 30.951 133.894 31.9743 133.974C33.291 134.076 34.9576 134.236 35.0592 135.207C35.2326 136.863 31.9618 136.936 30.3286 137.057C25.8287 137.395 21.9605 137.226 17.7823 136.697C16.9682 136.595 15.949 136.402 15.1091 136.081C14.3591 135.791 13.3308 135.357 13.3091 134.641C13.2758 133.57 14.9507 133.166 15.8799 132.944C19.3298 132.126 23.0896 131.812 26.6778 131.042C28.9561 130.552 31.2002 129.681 33.0526 128.933C35.0759 128.117 36.9908 127.06 39.0691 126.465C39.9024 126.229 40.5691 126.263 41.6907 126.208L41.6924 126.21ZM84.3693 129.81C84.906 129.756 86.3667 129.816 86.3742 130.529C86.3867 131.572 83.0935 131.569 83.041 130.581C83.0018 129.962 83.7677 129.872 84.3776 129.81H84.3693ZM80.1528 130.685C80.8527 130.62 82.0227 130.66 82.056 131.405C82.106 132.533 78.7228 132.485 78.7645 131.405C78.7878 130.917 79.4195 130.752 80.1519 130.685H80.1528ZM75.1146 131.557C75.4229 131.533 76.1646 131.498 76.7087 131.608C76.9062 131.648 77.7145 131.946 77.737 132.225C77.7812 132.754 76.6604 132.953 76.1437 132.996C75.1254 133.082 73.2855 132.952 73.2122 132.327C73.1405 131.713 74.5171 131.601 75.1146 131.557ZM68.4315 132.072C69.2398 131.963 71.0772 132.003 71.1047 132.893C71.1447 134.166 67.0215 134.172 66.9907 132.945C66.9757 132.282 67.8048 132.156 68.4323 132.072H68.4315ZM60.6151 132.165C61.3009 132.118 61.985 132.12 62.7233 132.268C63.0817 132.339 64.1866 132.595 64.2233 133.089C64.2758 134.035 61.6084 134.206 60.3068 134.118C59.5193 134.066 58.0502 133.761 58.0443 133.142C58.0393 132.617 58.8376 132.439 59.0726 132.37C59.6334 132.207 59.9459 132.203 60.6142 132.165H60.6151ZM12.5383 134.223C12.2925 134.973 9.85506 135.388 8.93842 134.84C9.41674 134.006 11.4658 133.795 12.5383 134.223ZM13.105 135.568C12.4775 136.496 10.0692 136.833 8.88843 136.237C9.52341 135.317 11.9217 134.969 13.105 135.568ZM14.0816 136.801C13.4108 137.646 11.04 138.063 9.86506 137.42C10.3342 136.558 13.1525 136.128 14.0816 136.801ZM18.4006 137.42C17.9648 138.459 15.0274 138.918 14.0299 138.088C14.5549 136.995 17.2832 136.646 18.4006 137.42ZM21.8963 137.625C22.5521 137.573 23.8679 137.519 24.5696 137.727C25.8695 138.113 24.8462 138.81 23.8504 139.064C22.8255 139.333 21.7122 139.46 20.4047 139.372C19.7897 139.33 18.7548 139.166 18.7081 138.756C18.6514 138.268 19.6472 138.028 19.9931 137.932C20.743 137.722 21.218 137.678 21.8963 137.624V137.625ZM32.181 138.19C32.1227 138.842 31.2477 139.216 30.4836 139.475C29.6506 139.75 28.7873 139.922 27.9128 139.989C27.342 140.025 26.2129 139.985 26.1129 139.578C25.9629 138.97 27.3345 138.495 27.7586 138.345C28.6361 138.03 29.4944 137.845 30.2777 137.78C31.0419 137.723 31.8985 137.746 32.181 138.191V138.19ZM75.1663 38.9537C75.2246 38.9637 75.1946 39.0054 75.1663 39.0054C71.7247 42.8678 68.5098 47.0051 64.4716 50.4717C64.0033 50.8742 63.1525 51.6967 62.5175 51.655C62.1575 51.6317 61.7042 51.1275 61.3359 50.9858C59.1693 50.1584 56.8694 51.8408 56.9652 54.2257C56.1669 54.4699 55.3036 54.5591 54.3944 54.6366C53.5303 54.7199 52.5262 54.9299 51.6695 54.8424C51.0362 54.7774 50.6237 54.4457 49.7671 54.5341C49.3729 54.5757 49.063 54.8324 48.5838 54.8941C47.8338 54.989 46.8339 54.7332 45.9614 54.5341C40.4949 53.2841 35.8367 50.4342 30.4844 49.2901C31.1444 48.8876 31.9793 48.6601 32.7468 48.3734C32.8785 48.1251 32.4802 47.7251 32.5927 47.4985C45.2556 48.8184 56.2944 45.7968 65.7582 42.6653C69.039 41.5795 72.2372 40.2104 75.1746 38.9637L75.1663 38.9537Z" fill="black"/>
<path fill-rule="evenodd" clip-rule="evenodd" d="M65.7565 42.6551C56.2935 45.7867 45.2547 48.8091 32.5909 47.4883C32.4793 47.7133 32.8759 48.1133 32.7451 48.3633C31.9784 48.6583 31.1426 48.8866 30.4827 49.2882C35.8342 50.4324 40.4932 53.2748 45.9597 54.5322C46.8246 54.7322 47.8413 54.9872 48.5821 54.8922C49.0604 54.8306 49.3704 54.5731 49.7654 54.5322C50.622 54.4447 51.0337 54.7764 51.6678 54.8406C52.5261 54.9281 53.5286 54.7089 54.3927 54.6347C55.3027 54.5572 56.1652 54.4681 56.9635 54.2239C56.8685 51.839 59.1592 50.1574 61.3342 50.984C61.7033 51.1257 62.1566 51.629 62.5158 51.6532C63.1508 51.6948 64.0016 50.8723 64.4699 50.4699C68.5081 47.0033 71.7247 42.8659 75.1645 39.0036C75.1929 39.0036 75.2229 38.9619 75.1645 38.9519C72.2355 40.1985 69.0372 41.5685 65.7565 42.6534V42.6551Z" fill="#638B18"/>
<path fill-rule="evenodd" clip-rule="evenodd" d="M70.3848 128.009C66.9615 128.164 64.0141 127.962 60.8726 128.42C59.7268 128.587 57.6227 128.991 57.736 130.272C57.806 131.072 59.286 131.501 60.4093 131.66C64.3291 132.221 68.594 131.582 71.9272 131.3C75.6104 130.987 79.3711 130.683 82.571 129.756C83.571 129.465 84.9043 129.029 85.1418 128.257C85.7859 126.19 83.0285 126.465 83.0852 124.967C83.1169 124.129 84.2651 123.758 84.8326 123.372C85.4726 122.938 86.2726 122.262 86.1184 121.315C85.9334 120.187 83.6877 120.082 82.0052 120.082C78.0887 120.082 74.8279 119.958 71.5672 120.648C70.2048 120.937 68.2007 121.443 68.2757 122.808C68.3448 124.06 70.6089 124.307 71.6089 124.454C73.138 124.677 74.6921 124.654 75.3621 125.739C75.1596 127.917 72.7622 127.892 70.3756 128.001L70.3848 128.009ZM39.0708 126.467C36.9925 127.062 35.0776 128.119 33.0543 128.936C31.201 129.682 28.9569 130.554 26.6795 131.044C23.0913 131.815 19.3314 132.127 15.8815 132.946C14.9524 133.168 13.2783 133.571 13.3108 134.643C13.3324 135.36 14.3607 135.793 15.1107 136.083C15.944 136.405 16.969 136.597 17.784 136.7C21.9622 137.229 25.8287 137.397 30.3302 137.06C31.9635 136.938 35.2342 136.865 35.0609 135.21C34.9592 134.238 33.2926 134.078 31.976 133.976C30.951 133.897 28.4961 134.154 28.4278 133.205C28.3736 132.435 29.9086 131.978 30.5361 131.816C31.6127 131.54 32.636 131.472 33.6218 131.353C39.0449 130.7 44.0548 130.307 48.9438 129.041C49.8021 128.816 51.312 128.529 51.3087 127.857C51.3062 127.227 50.1621 126.981 49.5604 126.829C47.2605 126.247 44.0081 126.102 41.694 126.212C40.5724 126.266 39.8974 126.232 39.0724 126.469L39.0708 126.467ZM83.0335 130.58C83.0943 131.569 86.3876 131.58 86.3667 130.528C86.3584 129.815 84.8976 129.753 84.3618 129.809C83.7518 129.872 82.9868 129.961 83.0252 130.58H83.0335ZM78.7653 131.413C78.7137 132.493 82.0985 132.541 82.0569 131.413C82.0236 130.666 80.8528 130.628 80.1536 130.693C79.422 130.76 78.7903 130.925 78.7662 131.413H78.7653ZM73.2113 132.328C73.2847 132.953 75.1238 133.081 76.1429 132.996C76.6596 132.955 77.7803 132.746 77.7362 132.226C77.7137 131.946 76.9054 131.649 76.7079 131.609C76.1646 131.498 75.4229 131.526 75.1138 131.557C74.5163 131.601 73.1388 131.714 73.2113 132.328ZM66.9907 132.945C67.0199 134.172 71.1439 134.165 71.1047 132.893C71.0764 132.003 69.2381 131.963 68.4315 132.071C67.804 132.155 66.9749 132.281 66.9899 132.945H66.9907ZM59.0718 132.38C58.8368 132.449 58.0385 132.626 58.0435 133.151C58.0493 133.771 59.5184 134.068 60.3059 134.128C61.5992 134.215 64.2658 134.045 64.2225 133.099C64.195 132.604 63.0892 132.349 62.7225 132.278C61.9842 132.13 61.3001 132.128 60.6142 132.175C59.9476 132.221 59.6351 132.216 59.0726 132.38H59.0718ZM8.94009 134.848C9.85673 135.396 12.2933 134.99 12.54 134.231C11.4683 133.803 9.41924 134.015 8.94009 134.848ZM8.88843 136.236C10.0692 136.832 12.4775 136.496 13.105 135.567C11.9217 134.969 9.52341 135.317 8.88843 136.236ZM9.86506 137.42C11.0317 138.061 13.4108 137.645 14.0816 136.801C13.1525 136.135 10.3342 136.558 9.86506 137.42ZM14.0299 138.088C15.0274 138.918 17.9631 138.459 18.4006 137.42C17.284 136.647 14.5557 137.003 14.0299 138.088ZM19.9939 137.931C19.6481 138.027 18.6606 138.267 18.7089 138.755C18.7564 139.165 19.7897 139.338 20.4056 139.371C21.7138 139.459 22.8255 139.332 23.8513 139.063C24.8471 138.8 25.8712 138.111 24.5704 137.726C23.8688 137.518 22.5538 137.572 21.8972 137.624C21.2197 137.677 20.753 137.721 19.9939 137.932V137.931ZM30.2794 137.78C29.4961 137.836 28.6378 138.03 27.7603 138.345C27.3437 138.497 25.9637 138.97 26.1145 139.578C26.2145 139.994 27.3437 140.024 27.9145 139.989C28.7889 139.922 29.6521 139.749 30.4852 139.475C31.2494 139.225 32.1243 138.842 32.1827 138.19C31.8993 137.746 31.0427 137.723 30.2794 137.779V137.78Z" fill="black"/>
<path d="M74.4829 30.793C43.5706 44.2067 28.0627 38.3378 28.0627 38.3378L31.7293 45.6734C53.8394 48.1883 76.5612 36.2945 76.5612 36.2945L77.6978 33.1796C77.6978 33.1796 75.8145 33.5854 74.7312 30.713L74.4829 30.793Z" fill="#E1CAA2"/>
<path d="M76.7362 21.8074L76.3428 20.4716C76.3428 20.4716 51.4286 10.7269 45.7705 13.7127C40.1123 16.6984 32.8043 21.8866 27.4594 29.9013L27.3811 36.2678C27.3811 36.2678 42.7331 42.6342 74.3796 28.9072C74.3796 28.9072 73.9604 25.0806 76.7378 21.8074H76.7362Z" fill="#638B18"/>
<path d="M78.6528 30.8746C78.2779 31.2013 77.9245 31.4413 77.5529 31.3688C76.4296 31.148 75.9113 28.9655 76.3963 26.494C76.8812 24.0224 78.1862 22.1983 79.3112 22.4108C80.392 22.6232 80.9111 24.6507 80.5178 27.0056C80.5178 27.0056 79.3212 29.2014 78.7545 30.743L78.6528 30.8746Z" fill="black"/>
<path d="M93.9731 19.4242C93.9731 19.4242 88.315 15.7043 82.2902 23.9824C82.2902 23.9824 81.5044 19.0575 77.4695 21.1525C77.4695 21.1525 78.2553 14.0794 77.7311 13.0836C77.7311 13.0836 79.3036 13.5552 79.7744 14.6027C79.7744 14.6027 83.9143 10.5695 83.6518 4.963C83.6518 4.963 84.7517 5.11967 84.7517 6.53462C84.7517 6.53462 86.2934 3.12473 87.8041 1.28646L87.9475 1.0848C94.0248 -4.2067 88.4191 11.5645 88.4191 11.5645C88.4191 11.5645 88.0925 12.3478 87.7583 12.7694C87.4242 13.1911 90.6366 11.6986 90.5974 10.4803C90.5582 9.26203 90.9999 12.1994 90.5974 12.7303C90.5974 12.7303 95.9122 8.52622 96.0689 6.32463C96.0689 6.32463 96.9072 8.00124 96.6972 9.36286C96.6972 9.36286 101.412 5.80048 101.518 4.12303C101.518 4.12303 102.093 13.1869 93.1348 16.6451C93.1348 16.6451 94.6014 16.6451 96.4347 16.2785L93.9731 19.4242Z" fill="#E1CAA2"/>
<path d="M96.9605 30.2697C96.9605 30.2697 115.875 26.0782 105.815 32.8363C95.7555 39.5944 94.288 39.2811 94.288 39.2811C94.288 39.2811 96.3313 36.2512 96.9605 30.2697ZM93.9739 39.5428L76.5786 47.14C76.5786 47.14 81.9759 42.5293 80.1418 40.0136C80.1418 40.0144 89.2582 38.6528 93.9747 39.5428H93.9739Z" fill="#638B18"/>
<path d="M77.8362 38.2344C82.656 24.874 85.0793 23.3699 85.0793 23.3699C87.3642 20.9116 90.2399 19.8283 92.5107 20.8683C94.4773 21.7683 95.5323 24.054 95.5414 26.8156L95.5406 26.9906C95.5406 26.9906 95.1781 33.7287 93.2923 37.5536C93.2923 37.5536 86.2717 36.5578 78.7262 38.5494L77.8362 38.2344Z" fill="#60D0E4"/>
<path d="M84.7194 32.2638C84.7194 32.2638 88.4909 24.7574 90.7925 26.4924C90.7925 26.4924 91.3592 27.1715 89.8876 32.113C89.8876 32.113 95.9707 24.6816 89.6626 24.4924C89.6617 24.4933 85.4377 24.3424 84.7211 32.2638H84.7194ZM26.088 46.9984C26.088 46.9984 21.1215 39.4853 20.6715 40.9819C20.2215 42.4785 20.9715 45.1251 21.0881 45.8484C21.2048 46.5717 17.2933 41.2302 19.9148 39.2819C22.5364 37.3337 25.7813 43.3768 26.0813 46.9959L26.088 46.9984Z" fill="black"/>
<path d="M20.299 54.5964H20.4948C20.4948 54.5964 23.373 52.5023 24.2238 52.1756C25.0746 51.849 23.1772 55.3155 28.2137 55.3155C33.2502 55.3155 15.1308 55.9697 11.0101 52.3723C11.0101 52.3723 10.6518 50.8165 16.1749 48.2557C16.1749 48.2557 19.5082 54.2122 20.2998 54.5889L20.299 54.5964Z" fill="#638B18"/>
<path d="M38.0291 56.6239C32.3317 54.1073 28.0677 53.374 28.0677 53.374C28.026 53.3773 27.9827 53.379 27.9402 53.379C27.0452 53.379 26.3186 52.7982 26.3186 52.0824C26.3186 51.3665 27.0452 50.7857 27.9402 50.7857C28.0148 50.7858 28.0893 50.7897 28.1635 50.7974C28.1635 50.7974 32.3467 51.4974 38.8549 54.2164L39.5632 54.5081C45.6146 56.748 48.0512 56.808 48.0512 56.808C48.8679 56.8772 49.0829 56.8772 49.1912 56.798C49.2995 56.7189 49.977 56.4547 49.977 56.4547C50.8378 56.4772 51.5286 57.0739 51.5286 57.8063C51.5286 58.5113 50.3203 59.2788 49.5053 59.343C49.5053 59.343 45.0263 59.6963 38.2674 56.7097L38.0291 56.6239ZM78.5277 41.531C78.5419 41.4602 78.5486 41.3869 78.5486 41.311C78.5486 40.6627 78.0119 40.1444 77.3503 40.1444C77.1875 40.1443 77.0263 40.1765 76.8761 40.2394L71.923 45.6451C69.893 47.9433 64.9298 53.3715 62.8516 53.6156L61.6783 53.7373C61.58 53.5423 61.05 53.0707 61.05 53.0707C60.7166 52.7748 60.2667 52.6498 59.8383 52.7807C59.155 52.989 58.7867 53.7806 59.0184 54.5289C59.1032 54.81 59.2666 55.0609 59.4892 55.2522C59.4892 55.2522 62.9257 58.733 68.8422 52.5465L75.297 45.7251C75.297 45.7251 78.2969 42.4485 78.4994 41.6669L78.5277 41.531Z" fill="black"/>
<path d="M88.8741 65.8886C88.8741 72.4592 83.541 77.7907 76.9579 77.7907C70.3747 77.7907 65.0449 72.46 65.0449 65.8886C65.0449 59.3121 70.3781 53.9723 76.9579 53.9723C80.1168 53.9723 83.1465 55.2266 85.381 57.4595C87.6155 59.6925 88.8719 62.7213 88.8741 65.8802V65.8886ZM51.8753 74.5866C51.8753 81.1581 46.5422 86.4887 39.9591 86.4887C33.3759 86.4887 28.0544 81.1664 28.0544 74.5866C28.0544 68.0068 33.3876 62.6703 39.9682 62.6703C43.1286 62.6703 46.1596 63.9258 48.3943 66.1605C50.629 68.3953 51.8845 71.4262 51.8845 74.5866H51.8753ZM61.805 93.666C62.1192 95.4468 62.8525 99.2191 65.3674 98.9042C67.8823 98.5892 66.9398 93.5602 66.9398 93.5602C66.9398 93.5602 62.6433 93.3518 62.2233 93.5602L61.805 93.666ZM60.3384 94.161C60.3384 94.161 58.0318 95.1443 56.191 96.3442C56.191 96.3442 57.1077 101.031 60.1659 99.6316C60.1659 99.6316 62.1783 99.1883 60.4609 94.476L60.3384 94.161ZM54.4819 83.748C54.4819 83.748 39.8157 88.1645 47.0097 95.5809C51.7262 100.442 58.2543 92.1644 61.7358 92.2444C61.7358 92.2444 62.5342 91.8819 64.2024 92.0994C65.8707 92.3169 76.7537 93.1877 77.7687 88.8345C78.7836 84.4813 77.4787 83.7563 76.6804 83.2488C75.8821 82.7414 70.1514 79.3323 61.5909 81.7256L54.4819 83.748Z" fill="white"/>
<path d="M38.9191 82.4088C40.9814 82.4088 42.6531 80.737 42.6531 78.6747C42.6531 76.6125 40.9814 74.9407 38.9191 74.9407C36.8568 74.9407 35.1851 76.6125 35.1851 78.6747C35.1851 80.737 36.8568 82.4088 38.9191 82.4088Z" fill="black"/>
<path d="M75.3864 73.4983C77.4486 73.4983 79.1204 71.8284 79.1204 69.7685C79.1204 67.7085 77.4486 66.0386 75.3864 66.0386C73.3241 66.0386 71.6523 67.7085 71.6523 69.7685C71.6523 71.8284 73.3241 73.4983 75.3864 73.4983Z" fill="black"/>
<path d="M60.5669 86.2265C64.1438 85.5017 66.7228 83.3316 66.3272 81.3794C65.9316 79.4272 62.7113 78.4322 59.1343 79.157C55.5574 79.8818 52.9784 82.0519 53.374 84.0041C53.7696 85.9563 56.9899 86.9513 60.5669 86.2265Z" fill="black"/>
<path d="M53.0021 86.122C53.0021 86.122 43.7807 90.4177 48.0856 93.9801C52.3905 97.5425 54.4771 91.7802 60.7643 90.7327C67.0516 89.6852 74.2822 91.361 75.7489 88.6361C77.2155 85.9112 77.7488 83.7196 67.47 82.7679C67.47 82.7679 66.5283 87.2745 61.0785 87.7978C55.6287 88.3211 54.6887 87.3778 53.0121 86.1212L53.0021 86.122Z" fill="#E1CAA2"/>
<path d="M125.982 106.387C125.982 106.387 141.208 109.615 119.196 112.843C119.196 112.843 124.41 110.691 125.982 106.387Z" fill="#231F20"/>
<path d="M115.555 107.876C115.555 107.876 115.058 100.099 110.423 95.8783C105.789 91.6576 114.313 90.3344 116.962 91.4918C119.61 92.6493 130.616 100.264 120.933 110.029C120.933 110.029 116.796 113.008 115.637 108.291L115.555 107.876Z" fill="#E1CAA2"/>
<path d="M18.2648 106.136C18.2648 106.136 17.479 110.065 18.1081 111.716C18.1081 111.716 4.82521 109.436 17.479 106.293L18.2648 106.136Z" fill="black"/>
<path d="M24.6295 97.2559C24.6295 97.2559 16.4739 106.906 20.6996 114.78C24.1579 121.225 31.1518 113.917 31.3093 113.68L24.6295 97.2559Z" fill="#E1CAA2"/>
</g>
<defs>
<clipPath id="clip0_6_1199">
<rect width="140" height="140" fill="white"/>
</clipPath>
</defs>
</svg>
