<svg width="140" height="140" viewBox="0 0 140 140" fill="none" xmlns="http://www.w3.org/2000/svg">
<path d="M121.821 62.8413C121.619 60.7912 121.284 58.4386 120.614 55.8171C119.943 53.2292 118.937 50.3725 117.462 47.4149C115.987 44.4573 114.075 41.3989 111.594 38.4077C110.622 37.2314 109.549 36.0887 108.409 34.9796C110.119 28.157 106.33 22.2419 106.33 22.2419C99.7918 21.8386 95.6342 24.292 94.0918 25.4011C93.8236 25.3003 93.5889 25.1658 93.3206 25.065C92.2142 24.6281 91.0742 24.1912 89.8671 23.8215C88.6936 23.4518 87.4865 23.1157 86.2459 22.8132C85.0053 22.5107 83.7648 22.2755 82.4906 22.0738C82.2559 22.0402 82.0548 22.0066 81.82 21.973C78.97 12.8314 70.7889 9 70.7889 9C61.6353 14.8143 59.9253 22.9477 59.9253 22.9477C59.9253 22.9477 59.8918 23.1157 59.8247 23.4182C59.3218 23.5526 58.8189 23.7207 58.3159 23.8551C57.6118 24.0567 56.9077 24.3256 56.2371 24.5945C55.533 24.8634 54.8624 25.1322 54.1583 25.4347C52.7836 26.0397 51.4089 26.7118 50.0677 27.4512C48.76 28.1906 47.4859 28.9972 46.2453 29.8375C46.0777 29.7702 45.91 29.703 45.91 29.703C33.2359 24.8634 22.0035 30.6777 22.0035 30.6777C20.9641 44.1884 27.0665 52.6915 28.2735 54.2375C27.9718 55.0777 27.7035 55.9179 27.4353 56.7581C26.4965 59.8165 25.7924 62.9422 25.3565 66.2022C25.2894 66.6727 25.2224 67.1433 25.1888 67.6138C13.4535 73.4281 10 85.292 10 85.292C19.7571 96.551 31.1571 97.2568 31.1571 97.2568L31.1906 97.2231C32.6324 99.811 34.3088 102.264 36.1865 104.583C36.9912 105.558 37.7959 106.466 38.6677 107.373C35.1135 117.59 39.1706 126.06 39.1706 126.06C50.0341 126.463 57.1759 121.287 58.6847 120.111C59.7577 120.48 60.8642 120.817 61.9706 121.085C65.3236 121.959 68.7436 122.463 72.1636 122.598C73.0018 122.631 73.8736 122.665 74.7118 122.631H75.1142H75.3824H75.9189L76.4553 122.598V122.631C81.5853 129.958 90.5712 131 90.5712 131C96.9754 124.245 97.3442 117.523 97.3442 116.078C97.3442 116.078 97.3442 116.044 97.3442 115.977C97.3442 115.842 97.3442 115.775 97.3442 115.775C97.3442 115.674 97.3442 115.574 97.3442 115.473C98.6854 114.532 99.9595 113.523 101.167 112.414C103.715 110.095 105.961 107.44 107.839 104.583C108.007 104.315 108.174 104.046 108.342 103.777C115.584 104.18 120.714 99.2733 120.714 99.2733C119.507 91.7113 115.215 88.0143 114.31 87.3085C114.31 87.3085 114.277 87.2749 114.209 87.2413C114.142 87.2077 114.142 87.1741 114.142 87.1741C114.109 87.1405 114.042 87.1069 113.975 87.0733C114.008 86.6028 114.042 86.1658 114.075 85.6953C114.142 84.8887 114.142 84.0485 114.142 83.2419V82.6369V82.3344V82.1664C114.142 81.9647 114.142 82.032 114.142 81.9647L114.109 81.4606L114.075 80.7884C114.075 80.5532 114.042 80.3515 114.008 80.1499C113.975 79.9482 113.975 79.713 113.941 79.5113L113.874 78.8727L113.774 78.2342C113.639 77.3939 113.505 76.5873 113.304 75.7471C112.533 72.4871 111.259 69.395 109.616 66.6055C107.939 63.816 105.861 61.3625 103.48 59.2788C101.133 57.195 98.4842 55.5146 95.7348 54.2711C92.9518 53.0275 90.0683 52.2209 87.1848 51.8512C85.743 51.6496 84.3012 51.5824 82.8595 51.616H82.323H82.1889C82.1553 51.616 81.9877 51.616 82.0212 51.616H81.7865L81.25 51.6496C81.0489 51.6496 80.8477 51.6832 80.68 51.6832C79.9424 51.7504 79.2048 51.8512 78.5006 51.9857C75.6171 52.5234 72.9012 53.5653 70.5206 55.0105C68.14 56.4557 66.0612 58.2369 64.3847 60.2534C62.7083 62.27 61.4006 64.5218 60.4953 66.8408C59.59 69.1598 59.0871 71.5796 58.953 73.8986C58.9194 74.47 58.9194 75.0749 58.9194 75.6463C58.9194 75.7807 58.9194 75.9488 58.9194 76.0832L58.953 76.5537C58.9865 76.8226 58.9865 77.1251 59.02 77.3939C59.1206 78.5703 59.3553 79.713 59.6571 80.7884C60.2942 82.973 61.3 84.9559 62.5406 86.6364C63.7812 88.3168 65.29 89.6948 66.8659 90.8039C68.4418 91.8793 70.1518 92.6523 71.8283 93.1565C73.5047 93.6606 75.1812 93.8623 76.7571 93.8623C76.9583 93.8623 77.1595 93.8623 77.3271 93.8623C77.4277 93.8623 77.5283 93.8623 77.6289 93.8623C77.7295 93.8623 77.8301 93.8623 77.9306 93.8287C78.0983 93.8287 78.2659 93.795 78.4336 93.795C78.4671 93.795 78.5342 93.795 78.5677 93.7614L78.7353 93.7278C78.8359 93.7278 78.9365 93.6942 79.0371 93.6942C79.2383 93.6606 79.4059 93.627 79.6071 93.5934C79.8083 93.5598 79.9759 93.5262 80.1436 93.459C80.5124 93.3917 80.8477 93.2573 81.183 93.1565C81.8536 92.9212 82.5242 92.6524 83.0942 92.3499C83.6977 92.0474 84.2342 91.6777 84.7706 91.3416C84.9048 91.2408 85.0724 91.14 85.2065 91.0055C85.743 90.5686 85.8436 89.762 85.4077 89.2242C85.0389 88.7537 84.3683 88.6193 83.8318 88.9218C83.6977 88.989 83.5636 89.0562 83.4295 89.1234C82.9601 89.3587 82.4906 89.5603 81.9877 89.7284C81.4848 89.8964 80.9483 90.0309 80.4118 90.1317C80.1436 90.1653 79.8753 90.1989 79.5736 90.2325C79.4395 90.2325 79.3053 90.2661 79.1377 90.2661C79.0036 90.2661 78.8359 90.2661 78.7353 90.2661C78.6012 90.2661 78.4671 90.2661 78.333 90.2661C78.1653 90.2661 77.9977 90.2661 77.83 90.2325C77.83 90.2325 77.7295 90.2325 77.7965 90.2325H77.7295H77.6289C77.5618 90.2325 77.4612 90.2325 77.3942 90.1989C77.2265 90.1653 77.0924 90.1653 76.9248 90.1317C75.6842 89.9636 74.4436 89.5939 73.27 89.0562C72.063 88.5185 70.923 87.7791 69.8836 86.838C68.8442 85.897 67.9389 84.7879 67.2347 83.5107C66.5306 82.2336 66.0277 80.822 65.793 79.3433C65.6924 78.6039 65.6253 77.8309 65.6589 77.0915C65.6589 76.8898 65.6924 76.6882 65.6924 76.4865C65.6924 76.5537 65.6924 76.4529 65.6924 76.4529V76.3857V76.2176C65.6924 76.1168 65.7259 76.016 65.7259 75.9152C65.7595 75.5118 65.8265 75.1085 65.8936 74.7052C66.4636 71.4788 68.073 68.3196 70.5542 65.9333C71.1912 65.3284 71.8618 64.7906 72.5659 64.2865C73.27 63.7824 74.0412 63.3455 74.8459 62.9758C75.6506 62.6061 76.4553 62.3036 77.3271 62.0683C78.1653 61.8331 79.0371 61.6986 79.9424 61.5978C80.3783 61.5642 80.8142 61.5306 81.2836 61.5306C81.4177 61.5306 81.4848 61.5306 81.5853 61.5306H81.9542H82.1889C82.2895 61.5306 82.1889 61.5306 82.2224 61.5306H82.323L82.6918 61.5642C83.6642 61.6314 84.603 61.7658 85.5418 62.0011C87.4195 62.4044 89.2636 63.1102 90.9736 64.0512C94.3936 65.9669 97.3107 68.9245 99.0877 72.4871C99.993 74.2683 100.63 76.184 100.932 78.1669C100.999 78.6711 101.066 79.1752 101.099 79.6793L101.133 80.049L101.167 80.4187C101.167 80.5532 101.167 80.6876 101.167 80.7884C101.167 80.9229 101.167 81.0573 101.167 81.1581V81.4942V81.8639C101.167 82.0992 101.133 82.5025 101.133 82.7377C101.099 83.2755 101.032 83.8468 100.965 84.3846C100.898 84.9223 100.798 85.4601 100.697 85.9978C100.597 86.5355 100.462 87.0733 100.328 87.5774C100.06 88.6193 99.7248 89.6612 99.3224 90.703C98.5177 92.7196 97.4448 94.6689 96.1707 96.4501C93.5889 100.013 90.0683 102.903 86.0448 104.752C84.033 105.659 81.9206 106.331 79.7412 106.667C78.6683 106.869 77.5618 106.97 76.4553 107.003H76.2542H76.0865H75.7177H75.1812H74.913C75.0471 107.003 74.8795 107.003 74.8795 107.003H74.7789C74.1753 107.003 73.6053 106.97 73.0018 106.902C70.6548 106.734 68.3412 106.298 66.0612 105.659C63.8147 105.02 61.6353 104.113 59.5565 103.037C55.4324 100.819 51.7106 97.7945 48.8271 94.1311C47.3853 92.3163 46.1112 90.3333 45.0718 88.2832C44.0324 86.2331 43.1941 84.0485 42.5906 81.8639C41.9871 79.6457 41.6183 77.3939 41.4506 75.1085L41.4171 74.6716V74.5708V74.47V74.2683V73.8986V73.7978V73.6634V73.3945V72.8568V72.7559C41.4171 72.7559 41.4171 72.7895 41.4171 72.7223V72.5207C41.4171 72.2518 41.4171 71.9493 41.4171 71.6804C41.4506 70.5714 41.5512 69.395 41.6853 68.2523C41.8194 67.1096 42.0206 65.9333 42.2553 64.7906C42.49 63.6479 42.7583 62.5052 43.0936 61.3625C43.7306 59.1107 44.5353 56.9262 45.4741 54.876C47.3853 50.7758 49.8665 47.1124 52.8506 44.1884C53.5883 43.449 54.3594 42.7769 55.1642 42.1047C55.9689 41.4661 56.8071 40.8612 57.6789 40.2898C58.5171 39.7185 59.4224 39.2143 60.3277 38.7438C60.7636 38.5085 61.233 38.2733 61.7024 38.0716C61.9371 37.9708 62.1718 37.87 62.4065 37.7691C62.6412 37.6683 62.8759 37.5675 63.1106 37.4667C64.0495 37.0634 65.0218 36.7273 66.0277 36.4248C66.2624 36.3576 66.5306 36.2904 66.7653 36.1895C67 36.1223 67.2683 36.0551 67.503 35.9879C68.0059 35.8534 68.5089 35.719 69.0118 35.6182C69.2465 35.551 69.5147 35.5174 69.783 35.4501C70.0512 35.3829 70.2859 35.3493 70.5542 35.2821C70.8224 35.2485 71.0571 35.1813 71.3253 35.1477L71.6942 35.0804L72.0965 35.0132C72.3647 34.9796 72.5995 34.946 72.8677 34.9124C73.1695 34.8788 73.4377 34.8452 73.7395 34.8116C73.9742 34.778 74.3765 34.7444 74.6112 34.7107C74.7789 34.6771 74.98 34.6771 75.1477 34.6435L75.5165 34.6099L75.6842 34.5763H75.8853C76.1871 34.5427 76.4553 34.5427 76.7571 34.5091L77.193 34.4755C77.193 34.4755 77.3606 34.4755 77.2265 34.4755H77.3271H77.5283C77.763 34.4755 78.0312 34.4419 78.2659 34.4419C79.2383 34.4083 80.2442 34.4083 81.2165 34.4419C83.1612 34.5091 85.0724 34.7444 86.9165 35.0804C90.6383 35.7862 94.1254 36.9625 97.3107 38.5421C100.496 40.0882 103.312 42.0039 105.794 44.0876C105.961 44.222 106.095 44.3565 106.263 44.4909C106.397 44.6253 106.565 44.7598 106.699 44.8942C107.001 45.1631 107.269 45.432 107.571 45.7008C107.872 45.9697 108.141 46.2386 108.409 46.5074C108.677 46.7763 108.945 47.0452 109.214 47.3477C110.253 48.4568 111.225 49.5658 112.097 50.7085C113.841 52.9603 115.249 55.2457 116.355 57.3967C116.422 57.5311 116.489 57.6656 116.557 57.8C116.624 57.9344 116.691 58.0689 116.758 58.2033C116.892 58.4722 117.026 58.741 117.127 59.0099C117.261 59.2788 117.361 59.5141 117.495 59.7829C117.596 60.0518 117.73 60.2871 117.831 60.5559C118.233 61.5642 118.635 62.5388 118.937 63.4463C119.44 64.9251 119.809 66.2358 120.111 67.3785C120.211 67.849 120.647 68.1515 121.117 68.0843C121.619 68.0507 121.988 67.6474 121.988 67.1433C122.022 65.9333 121.988 64.4882 121.821 62.8413Z" fill="url(#paint0_linear_6_1201)"/>
<defs>
<linearGradient id="paint0_linear_6_1201" x1="65.9942" y1="158.389" x2="65.9942" y2="46.9896" gradientUnits="userSpaceOnUse">
<stop stop-color="#FFF100"/>
<stop offset="1" stop-color="#F05A28"/>
</linearGradient>
</defs>
</svg>
