<svg width="140" height="140" viewBox="0 0 140 140" fill="none" xmlns="http://www.w3.org/2000/svg">
<path d="M68.667 13.667C37.372 13.667 12 39.036 12 70.332C12 101.627 37.372 126.998 68.667 126.998C99.962 126.998 125.333 101.627 125.333 70.332C125.333 39.036 99.961 13.667 68.667 13.667ZM68.667 119.722C59.763 119.722 52.544 113.774 52.544 106.439H84.79C84.79 113.773 77.571 119.722 68.667 119.722ZM95.297 102.04H42.034V92.382H95.298V102.04H95.297ZM95.106 87.411H42.186C42.01 87.208 41.83 87.008 41.66 86.802C36.208 80.182 34.924 76.726 33.677 73.204C33.656 73.088 40.288 74.559 44.991 75.617C44.991 75.617 47.411 76.177 50.949 76.822C47.552 72.84 45.535 67.778 45.535 62.604C45.535 51.245 54.247 41.319 51.104 33.296C54.163 33.545 57.435 39.752 57.656 49.457C60.908 44.963 62.269 36.756 62.269 31.724C62.269 26.514 65.702 20.462 69.136 20.255C66.075 25.3 69.929 29.625 73.355 40.354C74.64 44.384 74.476 51.166 75.468 55.467C75.797 46.534 77.333 33.5 83 29C80.5 34.667 83.37 41.758 85.333 45.167C88.5 50.667 90.42 54.834 90.42 62.715C90.42 67.999 88.469 72.974 85.178 76.863C88.92 76.161 91.504 75.528 91.504 75.528L103.656 73.157C103.657 73.156 101.891 80.418 95.106 87.411Z" fill="#E6522C"/>
</svg>
