<svg width="140" height="140" viewBox="0 0 140 140" fill="none" xmlns="http://www.w3.org/2000/svg">
<path d="M70.2722 73.5603C69.8444 74.1702 69.4838 74.6722 69.1367 75.1796C63.6007 83.3512 58.0665 91.522 52.534 99.6919C47.3873 107.292 42.2352 114.887 37.0777 122.477C36.9921 122.596 36.8825 122.696 36.7559 122.77C36.6294 122.844 36.4887 122.89 36.3431 122.906C29.0616 122.843 21.7819 122.764 14.5041 122.669C14.4233 122.669 14.3399 122.644 14.1812 122.62C14.2399 122.468 14.3082 122.319 14.3857 122.175C19.4642 114.278 24.5428 106.384 29.6213 98.491C34.1258 91.496 38.633 84.5027 43.1429 77.5112C48.1408 69.7426 53.1359 61.9685 58.1284 54.189C58.8657 53.042 59.6325 51.9167 60.3322 50.7481C60.5116 50.4353 60.5655 50.0657 60.4829 49.7145C59.1374 45.4128 57.7651 41.1218 56.3954 36.8309C55.8088 34.9931 55.1953 33.166 54.6464 31.3174C54.4688 30.7237 54.1755 30.5429 53.57 30.5456C48.9956 30.5645 44.448 30.5591 39.887 30.5591C39.0205 30.5591 39.0178 30.5591 39.0178 29.7009C39.0178 24.0768 39.0178 18.4527 39.0017 12.8285C39.0017 12.2024 39.2062 12.0621 39.7928 12.0621C48.9758 12.0783 58.1606 12.0783 67.3473 12.0621C67.5606 12.0347 67.7766 12.0862 67.9549 12.2069C68.1331 12.3276 68.2615 12.5092 68.316 12.7179C73.1595 24.9359 78.0031 37.1493 82.8466 49.3583C88.4975 63.5967 94.1483 77.8369 99.7991 92.0789C101.554 96.4994 103.321 100.917 105.057 105.348C105.264 105.888 105.479 105.991 106.023 105.823C110.837 104.331 115.662 102.879 120.473 101.384C121.078 101.195 121.299 101.322 121.487 101.924C123.129 107.097 124.803 112.26 126.466 117.428C126.522 117.606 126.565 117.787 126.632 118.035C126.288 118.162 125.965 118.305 125.634 118.397C114.691 121.874 103.755 125.354 92.8244 128.835C92.3023 129 92.1463 128.822 91.9714 128.382C88.6329 119.897 85.2864 111.416 81.9317 102.938C78.6507 94.6373 75.3678 86.336 72.0832 78.0348C71.5908 76.788 71.1064 75.5358 70.614 74.289C70.5359 74.0758 70.4283 73.8896 70.2722 73.5603Z" fill="#FA7E14"/>
</svg>
