<svg width="140" height="140" viewBox="0 0 140 140" fill="none" xmlns="http://www.w3.org/2000/svg">
<path d="M37.7732 84.9213C37.7732 91.3016 32.6165 96.4583 26.2362 96.4583C19.8559 96.4583 14.6992 91.3016 14.6992 84.9213C14.6992 78.541 19.8559 73.3843 26.2362 73.3843H37.7732V84.9213ZM43.5417 84.9213C43.5417 78.541 48.6984 73.3843 55.0787 73.3843C61.4591 73.3843 66.6158 78.541 66.6158 84.9213V113.764C66.6158 120.144 61.4591 125.301 55.0787 125.301C48.6984 125.301 43.5417 120.144 43.5417 113.764V84.9213Z" fill="#E01E5A"/>
<path d="M55.0787 38.5984C48.6984 38.5984 43.5417 33.4417 43.5417 27.0614C43.5417 20.6811 48.6984 15.5244 55.0787 15.5244C61.4591 15.5244 66.6158 20.6811 66.6158 27.0614V38.5984H55.0787ZM55.0787 44.4543C61.4591 44.4543 66.6158 49.611 66.6158 55.9913C66.6158 62.3717 61.4591 67.5284 55.0787 67.5284H26.1488C19.7685 67.5284 14.6118 62.3717 14.6118 55.9913C14.6118 49.611 19.7685 44.4543 26.1488 44.4543H55.0787Z" fill="#36C5F0"/>
<path d="M101.314 55.9913C101.314 49.611 106.471 44.4543 112.851 44.4543C119.232 44.4543 124.388 49.611 124.388 55.9913C124.388 62.3717 119.232 67.5284 112.851 67.5284H101.314V55.9913ZM95.5457 55.9913C95.5457 62.3717 90.389 67.5284 84.0087 67.5284C77.6284 67.5284 72.4717 62.3717 72.4717 55.9913V27.0614C72.4717 20.6811 77.6284 15.5244 84.0087 15.5244C90.389 15.5244 95.5457 20.6811 95.5457 27.0614V55.9913Z" fill="#2EB67D"/>
<path d="M84.0087 102.227C90.389 102.227 95.5457 107.383 95.5457 113.764C95.5457 120.144 90.389 125.301 84.0087 125.301C77.6284 125.301 72.4717 120.144 72.4717 113.764V102.227H84.0087ZM84.0087 96.4583C77.6284 96.4583 72.4717 91.3016 72.4717 84.9213C72.4717 78.541 77.6284 73.3843 84.0087 73.3843H112.939C119.319 73.3843 124.476 78.541 124.476 84.9213C124.476 91.3016 119.319 96.4583 112.939 96.4583H84.0087Z" fill="#ECB22E"/>
</svg>
