<?xml version="1.0" encoding="UTF-8"?><svg xmlns="http://www.w3.org/2000/svg" xmlns:xlink="http://www.w3.org/1999/xlink" viewBox="0 0 293.25 294.08"><defs><style>.cls-1{fill:url(#linear-gradient);}.cls-2{fill:#f5f9ff;}.cls-3{fill:#e655be;}.cls-4{fill:#fff;}.cls-5{fill:#f2bc49;}.cls-6{fill:#ffc2b0;}.cls-7{fill:#ffce43;}.cls-8{fill:#7463ff;}.cls-9{fill:#b5cfea;}.cls-10{fill:#659adb;}.cls-11{fill:#bad4f5;}.cls-12,.cls-13{fill:#a8c4e5;}.cls-14{fill:#bfdfff;}.cls-15{fill:#dbefff;}.cls-16{fill:#d9eaff;}.cls-17{fill:#c6d2f2;}.cls-18{fill:#070707;}.cls-19{fill:#5b49f2;}.cls-20{fill:#2c1f9c;}.cls-21{fill:#29479c;}.cls-22{fill:#5b3713;}.cls-23{fill:#5986ff;}.cls-24{fill:#2f29c2;}.cls-25{fill:#4c73db;}.cls-26{fill:#84572a;}.cls-27{fill:#45446c;opacity:.29;}.cls-27,.cls-13,.cls-28{mix-blend-mode:multiply;}.cls-13{opacity:.4;}.cls-28{fill:#88bdeb;opacity:.36;}.cls-29{fill:none;stroke:#dbefff;stroke-miterlimit:10;stroke-width:3.45px;}.cls-30{isolation:isolate;}.cls-31{fill:#2f35c2;opacity:.25;}</style><linearGradient id="linear-gradient" x1="1385.42" y1="78.8" x2="1492.99" y2="78.8" gradientTransform="translate(-1235.35)" gradientUnits="userSpaceOnUse"><stop offset=".04" stop-color="#fff"/><stop offset=".32" stop-color="#fcfdfe"/><stop offset=".51" stop-color="#f3f7fb"/><stop offset=".67" stop-color="#e3ecf6"/><stop offset=".82" stop-color="#ceddf0"/><stop offset=".96" stop-color="#b2cbe8"/><stop offset="1" stop-color="#a8c4e5"/></linearGradient></defs><g class="cls-30"><g id="Layer_2"><g id="developer"><g><polygon class="cls-29" points="43.58 237.54 83.54 214.47 43.83 191.54 3.48 214.57 43.58 237.54"/><path class="cls-28" d="M247.8,247.94l42.75-25.68c3.64-2.25,3.6-7.57-.08-9.75l-126.76-75.37-16.66,52.7,100.76,58.1Z"/><path class="cls-8" d="M210.98,268.92l35.42-20.45c5.84-3.37,9.52-9.53,9.72-16.28l3-102.41-66.39,38.33s0,0,0,0h0s-80.83-46.67-80.83-46.67v102.36c0,6.86,3.66,13.21,9.61,16.64,0,0,28.83,16.64,49.32,28.48,12.43,7.17,27.73,7.17,40.16,0Z"/><path class="cls-19" d="M256.65,213.48c-.2,6.74-3.98,13.06-9.84,16.44l-35.53,20.45c-12.46,7.17-27.82,7.17-40.28,0-20.56-11.83-49.47-28.48-49.47-28.48-5.96-3.43-9.64-9.78-9.64-16.64v18.72c0,6.86,3.67,13.21,9.64,16.64,0,0,28.91,16.64,49.47,28.48,12.46,7.17,27.82,7.17,40.28,0l35.53-20.45c5.86-3.37,9.55-9.53,9.75-16.28l.09-18.88Z"/><path class="cls-16" d="M183.81,165.73l-69.39-40.06c-3.37-1.94-3.37-6.81,0-8.75l58.35-33.69c6.29-3.63,14.04-3.63,20.34,0l62.73,36.22c5.47,3.16,5.47,11.04,0,14.2l-55.58,32.09c-5.09,2.94-11.36,2.94-16.44,0Z"/><path class="cls-11" d="M184.05,161.36l-62.85-36.28c-3.05-1.76-3.05-6.16,0-7.92l52.85-30.51c5.7-3.29,12.72-3.29,18.42,0l56.81,32.8c4.95,2.86,4.95,10,0,12.86l-50.34,29.06c-4.61,2.66-10.28,2.66-14.89,0Z"/><g><path class="cls-31" d="M239.72,142.95l-85-49.08,31.85-17.64,68.79,42.92c5.75,3.59,5.54,12.03-.39,15.32l-15.24,8.48Z"/><g><g><path class="cls-12" d="M216.07,109.95s-.45,.25-.48,.29c-.02,.02-.17,.19-.25,.26-.05,.05-.23,.19-.26,.22-.09,.07-19.96,12.29-19.96,12.29v3.27s19.65-12.08,19.65-12.08c.11-.07,.21-.14,.3-.21,.03-.02,.06-.05,.09-.07,.06-.05,.12-.09,.17-.14h0c.07-.07,.14-.13,.2-.2,.02-.02,.03-.04,.05-.06,.02-.02,.04-.04,.05-.06,.02-.02,.03-.04,.04-.06,.04-.06,.08-.11,.11-.17,.01-.02,.03-.04,.04-.06,0-.02,.01-.03,.02-.05,.03-.05,.05-.1,.07-.15,.01-.02,.02-.05,.03-.07,0-.01,0-.03,.01-.04,.02-.05,.03-.1,.04-.15,0-.03,.02-.06,.02-.08,0,0,0-.02,0-.03,0-.05,.01-.11,.02-.16,0-.03,0-.06,0-.09,0-.01,0-.03,0-.04v-2.36Z"/><path class="cls-12" d="M195.04,123.05c-.13,.08-.27,.15-.41,.22-.04,.02-.09,.04-.13,.06-.16,.07-.32,.13-.49,.19,0,0-.02,0-.03,0-.14,.05-.29,.09-.43,.12-.02,0-.04,0-.06,.01-.13,.03-.25,.06-.38,.08-.02,0-.03,0-.05,0-.17,.03-.34,.05-.51,.07-.06,0-.13,.01-.19,.02-.1,0-.2,.02-.3,.02-.07,0-.14,0-.21,0-.09,0-.17,0-.26,0-.07,0-.15,0-.22,0-.08,0-.16,0-.24-.01-.08,0-.15-.01-.23-.02-.08,0-.16-.02-.24-.03-.07,0-.15-.02-.22-.03-.08-.01-.17-.03-.25-.04-.07-.01-.14-.03-.21-.04-.1-.02-.2-.05-.3-.07-.06-.01-.11-.03-.17-.04-.18-.05-.35-.11-.51-.17-.08-.03-.16-.07-.24-.1-.04-.02-.08-.03-.12-.05-.12-.06-.24-.12-.35-.18l-15.23-8.79c-.94-.54-1.41-.26-1.41-.97v2.28c-.01,.71,.46,1.42,1.4,1.97l15.23,8.79c.11,.07,.23,.13,.35,.18,.04,.02,.08,.04,.12,.05,.07,.03,.14,.06,.21,.09,.01,0,.02,0,.03,.01,.17,.06,.34,.12,.51,.17,.01,0,.02,0,.03,.01,.04,.01,.09,.02,.13,.03,.1,.03,.2,.05,.3,.07,.02,0,.04,.01,.07,.02,.05,0,.09,.02,.14,.02,.08,.02,.17,.03,.25,.04,.03,0,.06,.01,.08,.01,.05,0,.09,0,.14,.02,.08,0,.16,.02,.23,.03,.03,0,.06,0,.09,.01,.05,0,.09,0,.14,0,.08,0,.16,0,.24,.01,.03,0,.06,0,.09,0,.04,0,.09,0,.13,0,.09,0,.17,0,.26,0,.03,0,.07,0,.1,0,.04,0,.07,0,.11,0,.1,0,.2-.01,.3-.02,.04,0,.08,0,.12,0,.02,0,.05,0,.07,0,.17-.02,.34-.04,.51-.07,.01,0,.03,0,.04,0,0,0,0,0,0,0,.13-.02,.26-.05,.38-.08,.02,0,.04,0,.06-.01,.15-.04,.29-.08,.43-.12,0,0,0,0,0,0,0,0,.01,0,.02,0,.17-.06,.33-.12,.49-.19,.04-.02,.09-.04,.13-.06,.14-.07,.28-.14,.41-.22,.02,0,.03-.02,.05-.03,.01,0,.02-.01,.03-.02v-3.27s-.05,.03-.07,.05Z"/><path class="cls-2" d="M214.66,108.13c1.83,1.06,1.88,2.76,.11,3.85l-19.65,12.08c-1.84,1.13-4.93,1.16-6.84,.06l-15.23-8.79c-1.9-1.1-1.87-2.89,.07-3.96l20.8-11.42c1.87-1.03,4.82-1,6.65,.05l14.1,8.14Z"/></g><polygon class="cls-10" points="181.22 106.9 202.68 119.41 207.74 116.38 186.57 104.06 181.22 106.9"/><polygon class="cls-27" points="202.68 119.41 202.68 121.63 209.08 117.69 209.08 115.66 202.68 119.41"/></g><path class="cls-10" d="M260.24,74.62s0,0,0,0c0-.03,0-.07,0-.1,0-.03,0-.07,0-.1,0,0,0,0,0-.01,0,0,0,0,0-.01,0-.02,0-.05,0-.07,0-.03,0-.07-.01-.1,0-.02,0-.03,0-.05,0,0,0-.01,0-.02,0-.01,0-.02,0-.03,0-.03-.01-.07-.02-.1,0-.03-.01-.06-.02-.1h0s0,0,0,0c0-.04-.02-.07-.02-.1,0-.03-.02-.07-.03-.1,0,0,0-.02,0-.03,0,0,0-.01,0-.02,0-.02-.01-.04-.02-.05,0-.03-.02-.06-.03-.1,0-.02-.02-.05-.03-.07,0,0,0,0,0-.01,0,0,0,0,0-.01-.01-.03-.02-.06-.03-.09-.01-.03-.02-.06-.04-.09,0-.01-.01-.02-.02-.04,0,0,0-.01,0-.02,0-.01,0-.02-.01-.03-.01-.03-.03-.06-.04-.09-.01-.03-.03-.06-.04-.09,0,0,0,0,0,0,0,0,0,0,0-.01-.02-.03-.03-.06-.05-.09-.02-.03-.03-.06-.05-.09-.01-.02-.02-.04-.03-.06,0,0-.01-.02-.02-.03-.03-.05-.06-.09-.09-.14,0-.01-.02-.03-.03-.04,0,0,0,0,0,0-.04-.06-.08-.11-.12-.17,0,0-.01-.02-.02-.02,0,0-.01-.01-.02-.02-.01-.02-.03-.04-.04-.06-.02-.03-.05-.06-.07-.09,0-.01-.02-.02-.03-.03v-.02s-.03-.02-.04-.03c-.02-.03-.05-.06-.07-.08-.02-.02-.04-.04-.06-.06,0,0,0,0-.01-.01,0,0,0,0,0,0-.03-.03-.05-.05-.08-.08-.03-.03-.06-.05-.09-.08h0s0,0,0,0c-.03-.03-.06-.05-.09-.07-.03-.03-.06-.05-.09-.08,0,0,0,0-.01,0,0,0,0,0-.01-.01-.02-.02-.04-.03-.07-.05-.03-.02-.06-.04-.09-.07,0,0-.02-.01-.03-.02,0,0,0,0,0,0,0,0,0,0,0,0-.02-.01-.04-.02-.06-.04-.03-.02-.06-.04-.09-.06,0,0-.5-.29-.51-.29l-2.8,1.52s.67,.39,.7,.41c.03,.02,.06,.04,.09,.06,.03,.02,.06,.04,.09,.07,.03,.02,.06,.05,.09,.07,.01,.01,.03,.02,.04,.03,.05,.04,.1,.08,.14,.12h0s.09,.09,.14,.13c0,0,.01,.01,.02,.02,.04,.04,.09,.09,.13,.13,0,0,.01,.01,.02,.02,.04,.05,.08,.09,.12,.14,0,0,.01,.02,.02,.03,.04,.05,.07,.1,.11,.14,.02,.03,.04,.05,.05,.08,.02,.03,.04,.06,.06,.09,.02,.04,.05,.07,.07,.11,.02,.02,.03,.05,.05,.07,.01,.02,.02,.04,.04,.07,.02,.04,.04,.08,.06,.12,0,.01,.01,.02,.02,.03,.03,.05,.06,.11,.08,.16,0,0,0,0,0,.01,.03,.06,.05,.12,.08,.18,0,0,0,.01,0,.02,.02,.06,.05,.12,.07,.17,0,0,0,.01,0,.02,.02,.06,.04,.11,.06,.17,0,0,0,.02,0,.03,.02,.06,.03,.11,.05,.17,0,0,0,.02,0,.03,.01,.06,.03,.12,.04,.17,0,0,0,.02,0,.03,.01,.06,.02,.12,.03,.17,0,0,0,.02,0,.02,0,.06,.01,.12,.02,.17,0,.03,0,.06,0,.09,0,.03,0,.07,0,.1,0,.04,0,.07,0,.11,0,.04,0,.07,0,.11,0,.04,0,.08-.01,.12,0,.03,0,.06-.01,.09,0,0,0,.06-.03,.16l-9.69,59.91c-.05,.28-1.15,2.11-.9,1.96l2.65-2.25c.56-.48,.93-1.14,1.05-1.86l9.51-58.78c.05-.28,.12-.71,.12-.71,0-.03,0-.06,.01-.09,0-.03,0-.05,0-.08,0,0,0,0,0,0,0,0,0,0,0-.01,0,0,0-.02,0-.02,0-.04,0-.07,0-.11,0-.03,0-.06,0-.09,0,0,0,0,0-.01Z"/><path class="cls-1" d="M255.71,72.85c1.26,.73,2.11,2.41,1.89,3.75l-9.83,60.78c-.22,1.34-1.42,1.83-2.68,1.11l-93.09-53.75c-1.26-.73-2.11-2.41-1.89-3.75l9.83-60.78c.22-1.34,1.42-1.83,2.68-1.11l93.09,53.75Z"/><path class="cls-9" d="M258.94,63.9L166.67,10.63h0s0,0,0,0l-.14-.08s0,0,0,0c-.1-.06-.23-.13-.24-.14-.03-.02-.06-.03-.1-.05-.03-.02-.06-.03-.1-.05-.03-.01-.06-.03-.1-.04-.03-.01-.07-.03-.1-.04-.03-.01-.07-.02-.1-.03-.04-.01-.07-.02-.11-.03,0,0,0,0,0,0h0s0,0,0,0c-.03,0-.06-.01-.09-.02-.02,0-.03,0-.05,0-.01,0-.03,0-.04,0,0,0-.02,0-.03,0-.04,0-.08,0-.11-.01,0,0,0,0,0,0h0s-.09,0-.13,0c0,0,0,0-.01,0-.02,0-.04,0-.06,0-.02,0-.05,0-.07,0,0,0-.01,0-.02,0-.03,0-.06,0-.09,.01-.02,0-.03,0-.05,0,0,0,0,0-.01,0-.06,.01-.12,.03-.18,.05,0,0,0,0-.01,0,0,0-.01,0-.02,0-.08,.03-.15,.06-.22,.1l-2.71,1.57c.07-.04,.14-.07,.22-.1,.03-.01,.06-.02,.09-.03,.04-.01,.07-.02,.11-.03,.04,0,.09-.02,.13-.02,.02,0,.03,0,.05,0,.06,0,.13,0,.19,0,.01,0,.02,0,.04,0,.07,0,.13,0,.2,.02,0,0,0,0,.01,0,.07,.01,.14,.02,.22,.04,0,0,.01,0,.02,0,.07,.02,.14,.04,.22,.07,0,0,.01,0,.02,0,.08,.03,.15,.06,.23,.1,.03,.02,.06,.03,.09,.05,.02,.01,.05,.03,.07,.04l.51,.29h0l92.41,53.35c.11,.06,.24,.06,.34,0l2.03-1.18c.23-.13,.23-.46,0-.59ZM165.76,10.8h0s0,0,0,0h0Z"/><path class="cls-10" d="M261.38,67.53s0,0,0,0c0-.03,0-.07,0-.1,0-.03,0-.07,0-.1,0,0,0,0,0-.01,0,0,0,0,0-.01,0-.02,0-.05,0-.07,0-.03,0-.07-.01-.1,0-.02,0-.03,0-.05,0,0,0-.01,0-.02,0-.01,0-.02,0-.03,0-.03-.01-.07-.02-.1,0-.03-.01-.06-.02-.1h0s0,0,0,0c0-.03-.02-.07-.02-.1,0-.03-.02-.07-.03-.1,0,0,0-.02,0-.03,0,0,0-.01,0-.02,0-.02-.01-.04-.02-.05,0-.03-.02-.06-.03-.1,0-.02-.02-.05-.03-.07,0,0,0,0,0-.01,0,0,0,0,0-.01-.01-.03-.02-.06-.03-.09-.01-.03-.02-.06-.04-.09,0-.01-.01-.02-.02-.04,0,0,0-.01,0-.02,0-.01,0-.02-.01-.03-.01-.03-.03-.06-.04-.09s-.03-.06-.04-.09c0,0,0,0,0,0,0,0,0,0,0-.01-.02-.03-.03-.06-.05-.09-.02-.03-.03-.06-.05-.09-.01-.02-.02-.04-.03-.06,0,0-.01-.02-.02-.03-.03-.05-.06-.09-.09-.14,0-.01-.02-.03-.03-.04,0,0,0,0,0,0-.04-.06-.08-.11-.12-.17,0,0-.01-.02-.02-.02,0,0-.01-.01-.02-.02-.01-.02-.03-.04-.04-.06-.02-.03-.05-.06-.07-.09,0-.01-.02-.02-.03-.03,0,0,0-.01-.02-.02,0-.01-.02-.02-.03-.03-.02-.03-.05-.06-.07-.08-.02-.02-.04-.04-.06-.06,0,0,0,0-.01-.01,0,0,0,0,0,0-.03-.03-.05-.05-.08-.08-.03-.03-.06-.05-.09-.08h0s0,0,0,0c-.03-.03-.06-.05-.09-.07-.03-.03-.06-.05-.09-.08,0,0,0,0-.01,0,0,0,0,0-.01,0-.02-.02-.04-.03-.07-.05-.03-.02-.06-.04-.09-.07,0,0-.02-.01-.03-.02,0,0,0,0,0,0,0,0,0,0,0,0-.02-.01-.04-.02-.06-.04-.03-.02-.06-.04-.09-.06,0,0-2.25-1.3-2.25-1.3l-2.77,1.67s2.37,1.24,2.41,1.26c.03,.02,.06,.04,.09,.06,.03,.02,.06,.04,.09,.07,.03,.02,.06,.05,.09,.07,.01,.01,.03,.02,.04,.03,.05,.04,.1,.08,.14,.12h0s0,0,0,0c.05,.04,.09,.09,.14,.13,0,0,.01,.01,.02,.02,.04,.04,.09,.09,.13,.13,0,0,.01,.01,.02,.02,.04,.05,.08,.09,.12,.14,0,0,.01,.02,.02,.03,.04,.05,.07,.1,.11,.14,.02,.03,.04,.05,.05,.08,.02,.03,.04,.06,.06,.09,.02,.04,.05,.07,.07,.11,.02,.02,.03,.05,.05,.07,.01,.02,.02,.04,.04,.07,.02,.04,.04,.08,.06,.12,0,.01,.01,.02,.02,.03,.03,.05,.06,.11,.08,.16,0,0,0,0,0,.01,.03,.06,.05,.12,.08,.18v.02c.03,.06,.05,.12,.07,.17,0,0,0,.01,0,.02,.02,.06,.04,.11,.06,.17,0,0,0,.02,0,.03,.02,.06,.03,.11,.05,.17,0,0,0,.02,0,.03,.01,.06,.03,.12,.04,.17,0,0,0,.02,0,.03,.01,.06,.02,.12,.03,.17,0,0,0,.02,0,.02,0,.06,.01,.12,.02,.17,0,.03,0,.06,0,.09,0,.03,0,.07,0,.1,0,.04,0,.07,0,.11,0,.04,0,.07,0,.11,0,.04,0,.08-.01,.12,0,.03,0,.06-.01,.09,0,0,0,.06-.03,.16l-9.69,59.91c-.05,.28-1.15,2.11-.9,1.96l2.65-2.25c.56-.48,.93-1.14,1.05-1.86l9.51-58.78c.05-.28,.12-.71,.12-.71,0-.03,0-.06,.01-.09,0-.03,0-.05,0-.08,0,0,0,0,0,0,0,0,0,0,0-.01,0,0,0-.02,0-.02,0-.04,0-.07,0-.11,0-.03,0-.06,0-.09,0,0,0,0,0-.01Z"/><path class="cls-24" d="M256.74,65.77c1.26,.73,2.11,2.41,1.89,3.75l-9.83,60.78c-.22,1.34-1.42,1.83-2.68,1.11l-93.09-53.75c-1.26-.73-2.11-2.41-1.89-3.75l9.83-60.78c.22-1.34,1.42-1.83,2.68-1.11l93.09,53.75Z"/><path class="cls-9" d="M260.59,53.79L168.33,.52h0s0,0,0,0l-.14-.08h0c-.1-.06-.23-.13-.24-.14-.03-.02-.06-.03-.1-.05-.03-.02-.06-.03-.1-.05-.03-.01-.06-.03-.1-.04-.03-.01-.07-.03-.1-.04-.03-.01-.07-.02-.1-.03-.04-.01-.07-.02-.11-.03,0,0,0,0,0,0h0s0,0,0,0c-.03,0-.06-.01-.09-.02-.02,0-.03,0-.05,0-.01,0-.03,0-.04,0,0,0-.02,0-.03,0-.04,0-.08,0-.11-.01,0,0,0,0,0,0h0s-.09,0-.13,0c0,0,0,0-.01,0-.02,0-.04,0-.06,0-.02,0-.05,0-.07,0,0,0-.01,0-.02,0-.03,0-.06,0-.09,.01-.02,0-.03,0-.05,0,0,0,0,0-.01,0-.06,.01-.12,.03-.18,.05,0,0,0,0-.01,0,0,0-.01,0-.02,0-.08,.03-.15,.06-.22,.1l-2.71,1.57c.07-.04,.14-.07,.22-.1,.03-.01,.06-.02,.09-.03,.04-.01,.07-.02,.11-.03,.04,0,.09-.02,.13-.02,.02,0,.03,0,.05,0,.06,0,.13,0,.19,0,.01,0,.02,0,.04,0,.07,0,.13,0,.2,.02,0,0,0,0,.01,0,.07,.01,.14,.02,.22,.04,0,0,.01,0,.02,0,.07,.02,.14,.04,.22,.07,0,0,.01,0,.02,0,.08,.03,.15,.06,.23,.1,.03,.02,.06,.03,.09,.05,.02,.01,.05,.03,.07,.04l.51,.29h0l92.41,53.35c.11,.06,.24,.06,.34,0l2.03-1.18c.23-.13,.23-.46,0-.59ZM167.42,.68h0Z"/><path class="cls-10" d="M263.03,57.42s0,0,0,0c0-.03,0-.07,0-.1,0-.03,0-.07,0-.1,0,0,0,0,0-.01,0,0,0,0,0-.01,0-.02,0-.05,0-.07,0-.03,0-.07-.01-.1,0-.02,0-.03,0-.05,0,0,0-.01,0-.02,0-.01,0-.02,0-.03,0-.03-.01-.07-.02-.1,0-.03-.01-.06-.02-.1,0,0,0,0,0,0h0s-.02-.07-.02-.11c0-.03-.02-.07-.03-.1,0,0,0-.02,0-.03,0,0,0-.01,0-.02,0-.02-.01-.04-.02-.05,0-.03-.02-.06-.03-.1,0-.02-.02-.05-.03-.07,0,0,0,0,0-.01,0,0,0,0,0-.01-.01-.03-.02-.06-.03-.09-.01-.03-.02-.06-.04-.09,0-.01-.01-.02-.02-.04v-.02s-.02-.02-.02-.03c-.01-.03-.03-.06-.04-.09-.01-.03-.03-.06-.04-.09,0,0,0,0,0,0,0,0,0,0,0-.01-.02-.03-.03-.06-.05-.09-.02-.03-.03-.06-.05-.09-.01-.02-.02-.04-.03-.06,0,0,0-.02-.02-.03-.03-.05-.06-.09-.09-.14,0-.01-.02-.03-.03-.04,0,0,0,0,0,0-.04-.06-.08-.11-.12-.17,0,0-.01-.02-.02-.02,0,0-.01-.01-.02-.02-.01-.02-.03-.04-.04-.06-.02-.03-.05-.06-.07-.09,0-.01-.02-.02-.03-.03,0,0,0-.01-.02-.02,0-.01-.02-.02-.03-.03-.02-.03-.05-.06-.07-.08-.02-.02-.04-.04-.06-.06,0,0,0,0-.01-.01,0,0,0,0,0,0-.03-.03-.05-.05-.08-.08-.03-.03-.06-.05-.09-.08h0s0,0,0,0c-.03-.03-.06-.05-.09-.07-.03-.03-.06-.05-.09-.08,0,0,0,0-.01,0,0,0,0,0-.01-.01-.02-.02-.04-.03-.07-.05-.03-.02-.06-.04-.09-.07,0,0-.02-.01-.03-.02,0,0,0,0,0,0,0,0,0,0,0,0-.02-.01-.04-.02-.06-.04-.03-.02-.06-.04-.09-.06,0,0-2.25-1.3-2.25-1.3l-2.77,1.67s2.38,1.24,2.41,1.26c.03,.02,.06,.04,.09,.06,.03,.02,.06,.04,.09,.07,.03,.02,.06,.05,.09,.07,.01,.01,.03,.02,.04,.03,.05,.04,.1,.08,.14,.12h0s.09,.09,.14,.13c0,0,.01,.01,.02,.02,.04,.04,.09,.09,.13,.13,0,0,.01,.01,.02,.02,.04,.05,.08,.09,.12,.14,0,0,.01,.02,.02,.03,.04,.05,.07,.1,.11,.14,.02,.03,.04,.05,.05,.08,.02,.03,.04,.06,.06,.09,.02,.04,.05,.07,.07,.11,.02,.02,.03,.05,.05,.07,.01,.02,.02,.04,.04,.07,.02,.04,.04,.08,.06,.12,0,.01,.01,.02,.02,.03,.03,.05,.06,.11,.08,.16,0,0,0,0,0,.01,.03,.06,.05,.12,.08,.18,0,0,0,.01,0,.02,.02,.06,.05,.12,.07,.17,0,0,0,.01,0,.02,.02,.06,.04,.11,.06,.17,0,0,0,.02,0,.03,.02,.06,.03,.11,.05,.17v.03c.02,.06,.03,.12,.04,.17,0,0,0,.02,0,.03,.01,.06,.02,.12,.03,.17,0,0,0,.02,0,.02,0,.06,.01,.12,.02,.17,0,.03,0,.06,0,.09,0,.03,0,.07,0,.1,0,.04,0,.07,0,.11,0,.04,0,.07,0,.11,0,.04,0,.08-.01,.12,0,.03,0,.06-.01,.09,0,0,0,.06-.03,.16l-9.69,59.91c-.05,.28-1.15,2.11-.9,1.96l2.65-2.25c.56-.48,.93-1.14,1.05-1.86l9.51-58.78c.05-.28,.12-.71,.12-.71,0-.03,0-.06,.01-.09,0-.03,0-.05,0-.08,0,0,0,0,0,0,0,0,0,0,0-.01,0,0,0-.02,0-.02,0-.04,0-.07,0-.11,0-.03,0-.06,0-.09,0,0,0,0,0-.01Z"/><path class="cls-24" d="M258.39,55.66c1.26,.73,2.11,2.41,1.89,3.75l-9.83,60.78c-.22,1.34-1.42,1.83-2.68,1.11l-93.09-53.75c-1.26-.73-2.11-2.41-1.89-3.75L162.63,3.02c.22-1.34,1.42-1.83,2.68-1.11l93.09,53.75Z"/><path class="cls-16" d="M253.41,69.68c1.2,.68,2.01,2.14,1.81,3.26l-8.89,50.99c-.19,1.12-1.33,1.48-2.52,.81l-88.3-50.02c-1.2-.68-2.01-2.14-1.81-3.26l8.89-50.99c.2-1.12,1.33-1.49,2.52-.81l88.3,50.02Z"/><path class="cls-4" d="M211.12,42.92c0,.59-.41,.82-.92,.53-.51-.29-.92-1.01-.92-1.59,0-.59,.41-.82,.92-.53s.92,1.01,.92,1.59Z"/><path class="cls-16" d="M255.19,59.43c1.2,.68,2.01,2.14,1.81,3.26l-8.89,50.99c-.19,1.12-1.33,1.49-2.52,.81l-88.3-50.02c-1.2-.68-2.01-2.14-1.81-3.26l8.89-50.99c.2-1.12,1.33-1.49,2.52-.81l88.3,50.02Z"/><path class="cls-4" d="M212.89,32.67c0,.59-.41,.82-.92,.53s-.92-1.01-.92-1.59c0-.59,.41-.82,.92-.53,.51,.29,.92,1.01,.92,1.59Z"/></g><polygon class="cls-3" points="218.6 101.4 213.25 98.31 214.78 89.2 220.14 92.3 218.6 101.4"/><polygon class="cls-4" points="225.17 105.19 219.81 102.1 220.82 96.15 226.17 99.24 225.17 105.19"/><polygon class="cls-23" points="231.94 109.1 226.58 106 228.59 94.07 233.95 97.17 231.94 109.1"/><path class="cls-3" d="M227.76,61.65l-6.22-3.51c-.56-.31-.95-1.22-.88-2.02h0c.07-.8,.58-1.19,1.14-.88l6.22,3.51c.56,.31,.95,1.22,.88,2.02h0c-.07,.8-.58,1.19-1.14,.88Z"/><path class="cls-21" d="M228.26,66.44l-5.92-3.36c-.53-.3-.94-1.1-.92-1.78h0c.03-.68,.48-.99,1.01-.68l5.92,3.36c.53,.3,.94,1.1,.92,1.78h0c-.03,.68-.48,.99-1.01,.68Z"/><path class="cls-23" d="M236.95,71.6l-6.02-3.42c-.54-.31-.96-1.11-.94-1.79h0c.02-.68,.48-.99,1.02-.68l6.02,3.42c.54,.31,.96,1.11,.94,1.79h0c-.02,.68-.48,.99-1.02,.68Z"/><path class="cls-23" d="M236.02,74.87l-5.13-2.93c-.46-.26-.78-1.02-.72-1.67h0c.06-.66,.49-.98,.95-.72l5.13,2.93c.46,.26,.78,1.02,.72,1.67h0c-.06,.66-.49,.98-.95,.72Z"/><path class="cls-3" d="M248.93,73.39l-7.74-4.32c-.69-.39-1.26-1.38-1.26-2.21h0c0-.83,.57-1.2,1.26-.81l7.74,4.32c.69,.39,1.26,1.38,1.26,2.21h0c0,.83-.57,1.2-1.26,.81Z"/><path class="cls-23" d="M244.43,76.04l-5.13-2.93c-.46-.26-.78-1.02-.72-1.67h0c.06-.66,.49-.98,.95-.72l5.13,2.93c.46,.26,.78,1.02,.72,1.67h0c-.06,.66-.49,.98-.95,.72Z"/><path class="cls-21" d="M243.09,62.97l-22.15-12.79c-.72-.42-1.53-.12-1.78,.66s.13,1.76,.85,2.18l22.15,12.79c.72,.42,1.53,.12,1.78-.66,.26-.78-.13-1.76-.85-2.18Z"/><path class="cls-21" d="M252.7,68.53l-26.96-15.56c-.88-.51-1.79-.27-2.01,.53s.32,1.87,1.2,2.38l26.96,15.56c.88,.51,1.79,.27,2.01-.53s-.32-1.87-1.2-2.38Z"/><path class="cls-4" d="M168.29,15.96l-9.17,51.88,44.44,25.82,9.17-51.88-44.44-25.82Z"/><path class="cls-14" d="M192.84,56.49l-4.95-2.84s-.09-.06-.13-.09l-6.88-3.95c-.05-.03-.1-.05-.15-.07l-4.32-2.48c-.62-.35-1.19,.08-1.28,.97-.09,.89,.35,1.9,.96,2.26l6.88,3.95c.05,.03,.1,.05,.15,.07l2.4,1.38s.09,.06,.13,.09l6.88,3.95c.62,.35,1.19-.08,1.28-.97,.09-.89-.35-1.9-.96-2.26Z"/><path class="cls-14" d="M195.4,72.18l-4.95-2.84s-.09-.06-.13-.09l-6.88-3.95c-.05-.03-.1-.05-.15-.07l-4.32-2.48c-.62-.35-1.19,.08-1.28,.97-.09,.89,.35,1.9,.96,2.26l6.88,3.95c.05,.03,.1,.05,.15,.07l2.4,1.38s.09,.06,.13,.09l6.88,3.95c.62,.35,1.19-.08,1.28-.97,.09-.89-.35-1.9-.96-2.26Z"/><path class="cls-14" d="M186.22,62.93l-6.88-3.95c-.62-.35-1.05-1.37-.96-2.26h0c.09-.89,.66-1.32,1.28-.97l6.88,3.95c.62,.35,1.05,1.37,.96,2.26h0c-.09,.89-.66,1.32-1.28,.97Z"/><path class="cls-14" d="M197.06,68.95l-6.88-3.95c-.62-.35-1.05-1.37-.96-2.26h0c.09-.89,.66-1.32,1.28-.97l6.88,3.95c.62,.35,1.05,1.37,.96,2.26h0c-.09,.89-.66,1.32-1.28,.97Z"/><polygon class="cls-24" points="168.29 15.96 212.73 41.78 211.04 50.53 166.67 25.09 168.29 15.96"/><path class="cls-3" d="M174.2,47.03c.11-.61-.18-1.23-.72-1.54l-2.72-1.56c-.62-.35-1.19,.08-1.28,.97-.09,.89,.35,1.9,.96,2.26l1.56,.9c.89,.51,2.01-.02,2.19-1.02h0Z"/><path class="cls-4" d="M173.88,24.15c0,1.22-.86,1.71-1.92,1.1s-1.92-2.1-1.92-3.32c0-1.22,.86-1.71,1.92-1.1,1.06,.61,1.92,2.1,1.92,3.32Z"/><path class="cls-7" d="M179.3,27.52c0,1.22-.86,1.71-1.92,1.1-1.06-.61-1.92-2.1-1.92-3.32,0-1.22,.86-1.71,1.92-1.1,1.06,.61,1.92,2.1,1.92,3.32Z"/><path class="cls-3" d="M184.86,31.16c0,1.22-.86,1.71-1.92,1.1-1.06-.61-1.92-2.1-1.92-3.32,0-1.22,.86-1.71,1.92-1.1,1.06,.61,1.92,2.1,1.92,3.32Z"/><path class="cls-24" d="M169.27,37.35c.14-.71,.32-1.03,.44-1.65,.07-.35-.07-.82-.72-1.17l.17-.86c.66,.31,.94,.04,1.02-.31,.13-.63,.1-1.05,.24-1.75,.22-1.08,.69-1.21,1.57-.77l.63,.32-.16,.78-.19-.1c-.41-.21-.56-.12-.67,.43-.11,.54-.16,1.04-.29,1.64-.15,.76-.45,.93-.98,.79v.04c.47,.37,.66,.78,.5,1.54-.12,.61-.26,1.07-.37,1.6-.11,.55-.02,.76,.39,.96l.19,.1-.16,.78-.63-.32c-.89-.44-1.22-.98-1-2.06Z"/><path class="cls-24" d="M165.68,61.2c-.12,.7-.3,1-.41,1.61-.06,.34,.1,.84,.79,1.28l-.15,.84c-.7-.4-.99-.18-1.05,.17-.11,.62-.07,1.05-.19,1.74-.19,1.06-.68,1.13-1.62,.56l-.68-.41,.14-.77,.2,.12c.44,.27,.59,.2,.69-.34,.09-.53,.14-1.03,.24-1.63,.13-.75,.44-.87,1-.67v-.04c-.51-.44-.71-.88-.58-1.63,.11-.6,.23-1.04,.33-1.57,.1-.54,0-.76-.45-1.03l-.2-.12,.14-.77,.67,.41c.94,.57,1.31,1.17,1.12,2.22Z"/><path class="cls-25" d="M198.15,70.85l-15.03-8.46c-1.29-.73-2.12-2.67-1.85-4.35l2.53-15.97c.26-1.67,1.52-2.44,2.81-1.72l15.03,8.46c1.29,.73,2.12,2.67,1.85,4.35l-2.53,15.97c-.26,1.67-1.52,2.44-2.81,1.72Z"/><g><polygon class="cls-4" points="187.41 58.59 184.13 51.88 189.23 49.47 189.92 50.9 186.55 52.49 189.13 57.76 187.41 58.59"/><polygon class="cls-4" points="195.35 62.68 194.66 61.25 197.98 59.68 195.37 54.35 197.09 53.52 200.41 60.29 195.35 62.68"/><polygon class="cls-4" points="190.83 61.85 189.12 61.42 194.06 50.7 195.77 51.13 190.83 61.85"/></g><polygon class="cls-2" points="189.05 154.82 134.06 123.07 156.23 110.27 211.22 142.02 189.05 154.82"/><polygon class="cls-15" points="204.27 144.25 152.16 114.17 155.02 112.51 207.13 142.6 204.27 144.25"/><polygon class="cls-15" points="198.31 147.61 146.21 117.53 149.07 115.87 201.18 145.96 198.31 147.61"/><polygon class="cls-15" points="192.25 151.51 140.14 121.43 143.01 119.78 195.11 149.86 192.25 151.51"/><g><path class="cls-22" d="M70.58,79.97l-5.11,15.47c-4.53,13.7-3.89,28.58,1.79,41.84l7.25,16.93,6.81-5.28-4.92-19.94c-1.46-5.93-1.09-12.14,.9-17.92,2.8-8.15,4.66-21.26-6.72-31.11Z"/><path class="cls-5" d="M87.6,80.32l-2.74,30.74c-1,2.46-23.32-4.03-22.21-7.72,.2-.65,4.64-36.81,15.28-44.5,8.64-6.25,12.5,7.64,9.68,21.49Z"/><ellipse class="cls-13" cx="100.83" cy="276.21" rx="34.5" ry="17.14" transform="translate(-4.88 1.83) rotate(-1.02)"/><path class="cls-3" d="M75,262.03l8.08-1.01c5.41-2.45,7.93-4.29,10.34-2.9l.68,.39c2.41,1.39,2.1,3.84-.68,5.45l-11.88,9.44c-2.78,1.61-6.53,1.1-8.75-.85,0,0-1.33-1.2-.38-6.25,.54-2.88,.35-2.98,2.58-4.27Z"/><path class="cls-3" d="M110.52,281.1l8,1.51c5.9-.68,8.87-1.66,10.73,.4l.53,.58c1.87,2.06,.83,4.3-2.31,4.98l-14.2,5.35c-3.14,.68-6.55-.95-8.07-3.49,0,0-.9-1.55,1.55-6.06,1.4-2.58,1.25-2.73,3.76-3.27Z"/><path class="cls-17" d="M116.09,283.08c0,4.04-9.84,4.04-9.84,0v-13.14h9.84v13.14Z"/><path class="cls-20" d="M117.33,274.77c-3.23,4.59-10.27,4.61-12.26,1.3l-17.09-136.76h35.5l-6.15,135.46Z"/><path class="cls-17" d="M82.61,263.64c-.22,3.66-10.06,3.66-9.84,0l.73-11.9h9.84l-.73,11.9Z"/><path class="cls-20" d="M84.54,258.35c-3.93,4.04-11.66,2.32-13.15-.6l5.21-118.56,24.72,3.66-16.78,115.5Z"/><ellipse class="cls-6" cx="100.83" cy="41.11" rx="10.47" ry="18.47" transform="translate(-4.44 13.27) rotate(-7.37)"/><path class="cls-22" d="M119.48,48.45c-2.44,8.5-11.55,11.57-16.9,6.02s-7.72-16.93-5.28-25.43c2.44-8.5,8.75-10.89,14.11-5.34s10.51,16.25,8.07,24.74Z"/><path class="cls-22" d="M98.87,72.97l-.91-.2c-3.08-.69-5.03-3.76-4.34-6.84l3.87-17.34c.69-3.08,3.76-5.03,6.84-4.35l.91,.2c3.08,.69,5.03,3.76,4.34,6.84l-1.27,17.21c-.69,3.08-6.37,5.16-9.44,4.48Z"/><path class="cls-18" d="M88.54,48.84s.92,8,12.29,6.4c8.16-1.15,5.78-14.42,13.94-15.75,8.97-1.46,10.6-12.55,7.06-16.8-3.54-4.25-16.29-9.02-23.45-5.87-5.14,2.27-13.3,3.39-14.04,14.1-.29,4.19-2.01,13.74,4.2,17.92Z"/><path class="cls-22" d="M114.8,44.99c-.59,2.07-2.75,3.26-4.81,2.67-2.07-.59-3.26-2.75-2.67-4.81,.59-2.07,2.75-3.26,4.81-2.67,2.07,.59,3.26,2.75,2.67,4.81Z"/><path class="cls-7" d="M75.56,137.65c2.9-15.92-.22-28.5,.03-45.43,0-30.43-1.46-37.85,14.63-33.22l4.53,1.2c2.18,.58,4.29,1.4,6.29,2.43,21.21,10.93,26.87,14.3,25.94,26.97,.1,20.88-2.98,44.29-3.42,54.56-4.37,14.44-43.15,3.82-48-6.51Z"/><path class="cls-26" d="M109.14,57.27l-.92-2.13s1.64,1.64,4.77,1.24c0,0-1.84,1.06-3.85,.89Z"/><path class="cls-22" d="M109.39,78.5s.18,22.26,18.33,58.09c4.99,9.85,37.22-8.53,37.22-8.53l-.11-11.19s-26.79,15.83-31.09,4.65c-4.85-12.6-3.59-45.52-24.34-43.01Z"/><path class="cls-7" d="M111.44,94.72l5.97,30.27c1.26,2.34,22.76-6.47,21.27-10.03-.26-.63-8.51-36.11-19.89-42.64-9.25-5.3-11.62,8.92-7.35,22.39Z"/><path class="cls-22" d="M172.74,125.28l-3.38,2.49c-2.6,1.91-6.28,1.36-8.2-1.24h0c-1.91-2.6-1.36-6.28,1.24-8.2l3.38-2.49c2.6-1.91,6.28-1.36,8.2,1.24h0c1.91,2.6,1.36,6.28-1.24,8.2Z"/><polygon class="cls-5" points="124.65 130.31 117.26 112.22 123.36 143.45 124.65 130.31"/></g><path class="cls-3" d="M242.18,78.33l-3.49-2.02c-.31-.18-.51-.75-.43-1.26h0c.08-.51,.39-.79,.71-.61l3.49,2.02c.31,.18,.51,.75,.43,1.26h0c-.08,.51-.39,.79-.71,.61Z"/><path class="cls-3" d="M232.98,77.36l-2.88-1.72c-.26-.15-.34-.77-.18-1.38h0c.16-.61,.5-.97,.76-.82l2.88,1.72c.26,.15,.34,.77,.18,1.38h0c-.16,.61-.5,.97-.76,.82Z"/><path class="cls-3" d="M230.32,79.42l-1.39-.78c-.12-.07-.07-.6,.11-1.19h0c.18-.58,.44-1,.56-.94l1.39,.78c.12,.07,.07,.6-.11,1.19h0c-.18,.58-.44,1-.56,.94Z"/><path class="cls-3" d="M241.64,69.26l-16.42-8.93c-1.47-.8-2.98-2.3-3.36-3.33h0c-.38-1.03,.52-1.23,1.98-.43l16.42,8.93c1.47,.8,2.98,2.3,3.36,3.33h0c.38,1.03-.51,1.23-1.98,.43Z"/></g></g></g></g></svg>