<?xml version="1.0" encoding="UTF-8"?><svg xmlns="http://www.w3.org/2000/svg" viewBox="0 0 309.17 306.42"><defs><style>.cls-1{fill:#e655be;}.cls-2{fill:#fff;}.cls-3{fill:#ffce43;}.cls-4{fill:#ff5c97;}.cls-5{fill:#7463ff;}.cls-6{fill:#998cff;}.cls-7{fill:#97cbff;}.cls-8{fill:#84ade3;}.cls-9{fill:#8fb6eb;}.cls-10{fill:#bad4f5;}.cls-11{fill:#bc7846;}.cls-12{fill:#dbefff;}.cls-13{fill:#dbedff;}.cls-14{fill:#e09252;}.cls-15{fill:#1f3b82;}.cls-16{fill:#45446c;}.cls-17{fill:#5b49f2;}.cls-18{fill:#2c4482;}.cls-19{fill:#88bdeb;mix-blend-mode:multiply;opacity:.36;}.cls-20{isolation:isolate;}</style></defs><g class="cls-20"><g id="Layer_2"><g id="eng_manager"><g><path class="cls-19" d="M244.08,256.17l45.63-27.4c3.89-2.4,3.84-8.08-.09-10.41l-135.3-80.44-17.78,56.25,107.54,62.01Z"/><g><polygon class="cls-6" points="156.39 235.54 252.54 180.03 156.99 124.87 59.9 180.26 156.39 235.54"/><polygon class="cls-17" points="156.39 235.54 156.25 306.19 252.4 250.68 252.4 180.03 156.39 235.54"/><polygon class="cls-5" points="156.39 235.54 59.9 180.26 59.9 247.57 158.08 306.42 156.39 235.54"/></g><path class="cls-3" d="M0,41.71l21.34,45.41,36.37-23.6L36.37,18.11,0,41.71Z"/><path class="cls-2" d="M17.23,66.36l5.65-3.6s.09-.08,.15-.11l7.85-5c.06-.04,.12-.07,.18-.09l4.93-3.15c.7-.45,1.6-.03,1.99,.93,.39,.96,.14,2.11-.56,2.56l-7.85,5c-.06,.04-.12,.07-.18,.09l-2.73,1.74s-.09,.08-.15,.11l-7.85,5c-.7,.45-1.6,.03-1.99-.93-.39-.96-.14-2.11,.56-2.56Z"/><path class="cls-2" d="M26.56,60.52l5.65-3.6s.09-.08,.15-.11l7.85-5c.06-.04,.12-.07,.18-.09l4.93-3.15c.7-.45,1.6-.03,1.99,.93,.39,.96,.14,2.11-.56,2.56l-7.85,5c-.06,.04-.12,.07-.18,.09l-2.73,1.74s-.09,.08-.15,.11l-7.85,5c-.7,.45-1.6,.03-1.99-.93s-.14-2.11,.56-2.56Z"/><path class="cls-2" d="M21.3,73.58l5.65-3.6s.09-.08,.15-.11l7.85-5c.06-.04,.12-.07,.18-.09l4.93-3.15c.7-.45,1.6-.03,1.99,.93,.39,.96,.14,2.11-.56,2.56l-7.85,5c-.06,.04-.12,.07-.18,.09l-2.73,1.74s-.09,.08-.15,.11l-7.85,5c-.7,.45-1.6,.03-1.99-.93-.39-.96-.14-2.11,.56-2.56Z"/><g><path class="cls-10" d="M155.89,55.58c-5.79,11.56-15.21,34.55-27.54,38.93-17.06,6.06-34.88-14.46-48.55-24.76-6.12-4.62-.12-15.09,6.09-10.41,11.07,8.34,25.07,15.66,39.09,10.43,9.37-3.5,16.13-11.54,20.5-20.27,3.48-6.94,13.89-.84,10.41,6.09h0Z"/><path class="cls-14" d="M78.74,66.62l-5.19-3.16c-2.7-1.64-3.56-5.19-1.92-7.88h0c1.64-2.7,5.19-3.56,7.88-1.92l5.19,3.16c2.7,1.64,3.56,5.19,1.92,7.88h0c-1.64,2.7-5.19,3.56-7.88,1.92Z"/><path class="cls-15" d="M108.65,33.97c5.87-3.94,5.43-10.39,5.43-10.39l.05-.03-.25-2.06c-6.65,1.6-10.71,7.46-10.71,7.46,0,0-.39,8.97,5.48,5.02Zm-4.37-4.63s3.26-4.65,8.35-5.8l.1,1.6s.33,4.79-4.04,7.72c-4.37,2.93-4.41-3.52-4.41-3.52Z"/><path class="cls-1" d="M74.08,154.29c1.74-16.35,8.4-27.72,27.67-29.15,1.21-.09,2.43,.12,3.57,.55l67.23,20s14.69,36.47-21.36,47.52c-18.24,5.59-53.67-12.91-69.78-23.43-5.16-3.37-7.98-9.36-7.33-15.49Z"/><path class="cls-14" d="M112.51,37.41c4.89,9.21,16.16,10.53,20.98,2.82,4.82-7.71,4.77-21.43-.12-30.64-4.89-9.21-12.77-10.43-17.59-2.72-4.82,7.71-8.16,21.32-3.27,30.53Z"/><path class="cls-14" d="M142.29,60.67l1-.46c3.38-1.54,4.89-5.57,3.34-8.96l-8.71-19.07c-1.54-3.38-5.57-4.89-8.96-3.34l-1,.46c-3.38,1.54-4.89,5.57-3.34,8.96l5.67,19.56c1.54,3.38,8.61,4.4,11.99,2.86Z"/><path d="M144.98,32s2.66,6.54-9.07,9.71c-9.38,2.54-10.2-15.23-19.94-14.77-10.71,.5-15.3-11.89-12.26-17.67,3.04-5.77,13.9-10.76,22.93-8.86,9.03,1.89,26.94,.88,18.33,31.59Z"/><path class="cls-10" d="M172.54,145.69c-1.55-15.77-7.72-16.23-6.17-36.82,.41-5.5,.56-11.01,.5-16.52-.33-30.06-2.77-50.48-19.75-45.59l-5.35,1.42c-2.57,.68-5.06,1.65-7.42,2.87-25.02,12.89-37.53,13.4-32.85,41.05,1.01,27.39,13.46,21.49,8.24,48.71,0,32.6,62.84,25.25,62.8,4.89Z"/><path class="cls-9" d="M105.31,112.26l13.64-29.74c1.06,17.03-.34,32.29-8.17,42.92l-5.47-13.18Z"/><path class="cls-11" d="M126.6,45.06l.54-2.68s-1.49,2.3-5.2,2.6c0,0,2.39,.77,4.66,.08Z"/><path d="M124.7,32.98s6.37,6.69,7.3,14.99c1.15,10.27,7.75,16.55,16.44,10.96,4.31-2.78,8.05-5.9,7.77-9-2.4-26.4-11.09-41.34-11.09-41.34l-20.41,24.39Z"/><path class="cls-10" d="M118.94,77.28s-3.06,63.41-36.57,42.9c-20.93-12.81-18.8-49.71-18.8-49.71l9.23-1.45s10.09,39.8,20.68,33.88c10.59-5.92,7.93-34.54,13.17-36.74,5.23-2.19,12.29,11.12,12.29,11.12Z"/><path class="cls-14" d="M70.16,78.1h0c2.83-.97,4.36-4.09,3.38-6.92l-4.18-12.17c-.97-2.83-4.09-4.36-6.92-3.38h0c-2.83,.97-4.36,4.09-3.38,6.92l4.18,12.17c.97,2.83,4.09,4.36,6.92,3.38Z"/><g><path class="cls-7" d="M70.31,77.53l13.07-9.75c.78-.57,1.01-1.83,.52-2.83l-12.81-25.99c-.49-.99-1.52-1.34-2.3-.77l-13,9.48c-.78,.57-1.01,1.83-.52,2.83l12.75,25.87c.32,.65,.65,.74,1.32,.9l.97,.26Z"/><path class="cls-7" d="M68.81,51.24s15.59,14.7,15.1,13.71l-12.82-26.89-1.23-.12c-.36-.07-.73,.01-1.06,.25l-13,9.48c-.38,.28-.63,.72-.73,1.22l13.74,2.35Z"/><path class="cls-15" d="M71.65,77.37l12.96-9.48c.78-.57,.97-1.83,.48-2.82l-12.81-25.99c-.49-.99-1.5-1.34-2.28-.77l-12.95,9.47c-.78,.57-.96,1.83-.47,2.82l12.81,25.99c.49,.99,1.48,1.34,2.26,.78Z"/><path class="cls-16" d="M57.09,52.67l.73,1.48c.05,.1,0,.16-.13,.13l.02-.02c-.12-.03-.22-.15-.27-.25l-.73-1.48c-.05-.1-.04-.16,.08-.13h0c.13,.04,.24,.16,.29,.26Z"/><path class="cls-16" d="M58.37,55.26l.73,1.48c.05,.1,0,.16-.13,.13l.02-.02c-.13-.03-.22-.15-.27-.25l-.73-1.48c-.05-.1-.04-.16,.08-.13h0c.13,.04,.24,.16,.29,.26Z"/><path class="cls-13" d="M69.61,73.08l12.76-9.31-11.23-22.93-12.68,9.25,11.34,22.32c.1,.19-.36,.79-.19,.66Z"/><path class="cls-2" d="M62.03,46.24l4.01-2.92c.14-.1,.18-.33,.09-.51h0c-.09-.18-.28-.24-.42-.14l-4.01,2.92c-.14,.1-.18,.33-.1,.51h0c.09,.18,.28,.24,.42,.14Z"/></g><path class="cls-15" d="M103.45,30.37l14.97-2.33c.53-.08,.9-.59,.82-1.12h0c-.08-.53-.59-.9-1.12-.82l-14.97,2.33c-.53,.08-.9,.59-.82,1.12h0c.08,.53,.59,.9,1.12,.82Z"/><path class="cls-14" d="M117.06,32.27c1.19,2.24,3.97,3.09,6.21,1.9,2.24-1.19,3.09-3.97,1.9-6.21-1.19-2.24-3.97-3.09-6.21-1.9-2.24,1.19-3.09,3.97-1.9,6.21Z"/><g><g><path class="cls-18" d="M63.43,57.3c1.75,3,5.53,3.74,8.42,1.65,2.9-2.09,3.82-6.21,2.07-9.21s-5.52-3.74-8.42-1.65-3.82,6.21-2.07,9.21Zm1.73-1.24c-1.18-2.01-.56-4.78,1.39-6.17,1.94-1.4,4.47-.9,5.65,1.11,1.18,2.01,.56,4.78-1.39,6.17-1.94,1.4-4.47,.9-5.65-1.11Z"/><path class="cls-4" d="M63.43,57.3c-1.07-1.84-1.14-4.09-.37-6.04l1.83,.79c-.5,1.3-.45,2.79,.27,4.01,.97,1.66,2.87,2.29,4.6,1.66l.6,2.04c-2.59,.98-5.46,.05-6.93-2.46Z"/><path class="cls-2" d="M69.76,46.96l-.32,2.17c-.96-.13-2,.11-2.9,.76-.82,.59-1.4,1.43-1.72,2.34l-1.91-.58c.46-1.39,1.34-2.66,2.58-3.56,1.33-.96,2.85-1.32,4.27-1.14Z"/></g><path class="cls-2" d="M71.49,64.83l5.59-4.02c.37-.26,.46-.84,.2-1.28h0c-.26-.44-.77-.59-1.14-.32l-5.59,4.02c-.37,.26-.46,.84-.2,1.28h0c.26,.44,.77,.59,1.14,.32Z"/><path class="cls-2" d="M73.2,67.57l5.59-4.02c.37-.26,.46-.84,.2-1.28h0c-.26-.44-.77-.59-1.14-.32l-5.59,4.02c-.37,.26-.46,.84-.2,1.28h0c.26,.44,.77,.59,1.14,.32Z"/></g><path class="cls-14" d="M65.14,73.72l-1.56-3.25c1.25-.03,2.72,5.09,2.69,4.05l-.05-14.49c-.03-1.04-1.08-1.86-2.33-1.82h0c-1.25,.03-2.26,.91-2.23,1.95l.2,7.15c.03,1.04,2.03,6.44,3.28,6.4Z"/></g><polygon class="cls-2" points="14.43 63.73 31.97 52.96 22.07 31.55 4.53 42.32 14.43 63.73"/><path class="cls-3" d="M16.83,58.97l11.07-7.32c-1.27-2.81-2.3-3.63-3.03-3.82-.35-.09-.71-.02-1.02,.04-.32,.06-.7,.07-1.06,.08-.2,0-.41,0-.6,.02h0s-.02,0-.02,0c-.16,.01-.31,.03-.45,.06h-.05s0,.02,0,.02l-.22,.03s0,0,0,0c-.1-.03-.2-.07-.3-.1-.03,0-.14-.07-.14-.04-.02-.04-.04-.09-.05-.12-.15-.36-.29-.71-.44-1.07,0,0,0,0,0-.01,.07-.28,.11-.58,.08-.92-.02-.23-.07-.47-.14-.7,.42-.3,.24-1.07,.08-1.59-.12-.41-.47-1.42-.92-1.13-.02-.06-.03-.12-.04-.18-.08-.35-.16-.7-.3-1.03s-.33-.63-.57-.83c-.08-.07-.18-.12-.27-.08,0-.1-.02-.19-.07-.3-.37-.79-1.11-.85-1.61-.78-.69,.09-1.35,.33-1.85,.88-.5,.55-.81,1.45-.71,2.45,.01,.13,.04,.27,.1,.38-.03,.07-.04,.16-.04,.24,0,.36,.1,.71,.24,1.04,.15,.32,.34,.61,.54,.88,.03,.04,.07,.09,.1,.15-.33,.32,.11,1.16,.3,1.49,.27,.47,.71,1.13,1.18,.82,.3,.49,.69,.86,1.14,1.02,.14,.35,.28,.69,.43,1.04,.02,.05,.05,.11,.07,.16,0,.03-.04,.08-.05,.1-.07,.15-.14,.29-.21,.44l-.54,.81h0c-.09,.13-.18,.26-.27,.39-.27,.39-.56,.79-.78,1.07-.22,.27-.47,.58-.61,.98h0c-.3,.86,.07,3.26,.72,4.68l.35,.76Zm-1.24-12.17s-.04-.07-.07-.12c.03,.04,.05,.08,.07,.12Z"/><polygon class="cls-2" points="172.54 283.21 191.75 272.04 191.75 257.65 172.54 268.83 172.54 283.21"/><polygon class="cls-2" points="198.04 268.83 217.25 257.65 217.25 231.23 198.04 242.4 198.04 268.83"/><g><polygon class="cls-12" points="292.62 186.67 309.17 177.11 292.73 167.62 276.02 177.15 292.62 186.67"/><polygon class="cls-8" points="292.62 186.67 292.6 186.65 292.6 205.66 309.15 196.1 309.15 177.13 292.62 186.67"/><polygon class="cls-10" points="292.62 186.67 276.02 177.15 276.02 195.57 292.91 205.7 292.91 186.5 292.62 186.67"/></g></g></g></g></g></svg>