<?xml version="1.0" encoding="UTF-8"?><svg xmlns="http://www.w3.org/2000/svg" viewBox="0 0 292.99 311.9"><defs><style>.cls-1{fill:#e6f0ff;}.cls-2{fill:#e655be;}.cls-3{fill:#fff;}.cls-4{fill:#ffc2b0;}.cls-5{fill:#ffce43;}.cls-6{fill:#998cff;}.cls-7{fill:#84ade3;}.cls-8{fill:#bad4f5;}.cls-9{fill:#333135;}.cls-10{fill:#bfdfff;}.cls-11{fill:#a4bbde;}.cls-12{fill:#dbefff;}.cls-13{fill:#db39af;}.cls-14{fill:#cad8eb;}.cls-15{fill:#a36d33;}.cls-16{fill:#5366c4;}.cls-17{fill:#5b49f2;}.cls-18{fill:#2c1f9c;}.cls-19{fill:#29479c;}.cls-20{fill:#2c4482;}.cls-21{fill:#5986ff;}.cls-22{fill:#2f29c2;}.cls-23{fill:#84572a;}.cls-24{fill:#a8c4e5;opacity:.4;}.cls-24,.cls-25{mix-blend-mode:multiply;}.cls-25{fill:#88bdeb;opacity:.36;}.cls-26{isolation:isolate;}</style></defs><g class="cls-26"><g id="Layer_2"><g id="executive"><g><g><path class="cls-25" d="M244.47,270.34l45.63-24.94c3.89-2.19,3.84-7.35-.09-9.48l-135.3-73.22-17.78,51.2,107.54,56.44Z"/><path class="cls-11" d="M237.87,273.82l-95.1-57.4c-5.95-3.13-10.77-11.51-10.77-18.73V8.77c0-7.22,4.82-10.54,10.77-7.41l99.29,52.18c5.95,3.13,10.77,11.51,10.77,18.73v188.03c0,4.75-1.95,6.73-5.23,8.45l-9.73,5.07Z"/><path class="cls-14" d="M182.87,96.35s-50.91,108.37-50.91,101.16L123.6,6.47,136.08,.47c1.83-.79,4.14-.61,6.65,.71l99.29,52.18c2.9,1.53,5.54,4.31,7.48,7.59l-66.62,35.41Z"/><path class="cls-1" d="M232.06,273.21l-99.04-52.18c-5.95-3.13-10.53-11.51-10.53-18.73V13.38c0-7.22,4.7-10.54,10.64-7.41l98.99,52.18c5.95,3.13,10.47,11.51,10.47,18.73v188.92c0,7.22-4.59,10.54-10.53,7.41Z"/><path class="cls-18" d="M230.07,273.88l-99.04-52.18c-5.95-3.13-10.53-11.51-10.53-18.73V14.05c0-7.22,4.7-10.54,10.64-7.41l98.99,52.18c5.95,3.13,10.47,11.51,10.47,18.73v188.92c0,7.22-4.59,10.54-10.53,7.41Z"/><path class="cls-20" d="M246.62,91.04v10.79c0,.75,.49,1.1,1.11,.77l-.15-.09c.62-.33,.8-1.21,.8-1.96v-10.79c0-.75-.19-1.1-.81-.77v.09c-.62,.33-.96,1.21-.96,1.96Z"/><path class="cls-20" d="M246.62,109.93v10.79c0,.75,.49,1.1,1.11,.77l-.15-.09c.62-.33,.8-1.21,.8-1.96v-10.79c0-.75-.19-1.1-.81-.77v.09c-.62,.33-.96,1.21-.96,1.96Z"/><path class="cls-17" d="M227.33,241.6l-96.57-50.75c-1-.53-1.62-1.5-1.62-2.56V28.75c0-2.27,2.71-3.7,4.87-2.56l96.57,50.75c1,.53,1.62,1.5,1.62,2.56V239.04c0,2.27-2.71,3.7-4.87,2.56Z"/><path class="cls-16" d="M197.44,53.93l-30.63-16.09c-1.07-.56-1.95-2.09-1.95-3.4h0c0-1.3,.88-1.91,1.95-1.34l30.63,16.09c1.07,.56,1.95,2.09,1.95,3.4h0c0,1.3-.88,1.91-1.95,1.34Z"/></g><polygon class="cls-6" points="178 115.37 178 146.34 178 174.41 178 201.9 218.88 223.38 218.88 192.49 218.88 167.75 218.88 136.85 178 115.37"/><g><polygon class="cls-6" points="170.67 152.27 170.67 142.51 170.67 111.52 130.84 90.59 130.84 121.48 130.84 131.34 170.67 152.27"/><polygon class="cls-6" points="130.84 141.38 130.84 146.22 130.84 177.11 170.67 198.05 170.67 169.66 170.67 162.32 130.84 141.38"/></g><polygon class="cls-6" points="218.99 130.53 130.95 84.26 130.95 28.63 218.99 74.89 218.99 130.53"/><path class="cls-3" d="M169.12,49.68v47.28s47.76,24.68,47.76,24.68v-47.28s-47.76-24.68-47.76-24.68Z"/><g><path class="cls-25" d="M35.29,201.73l22.92-13.77c1.95-1.21,1.93-4.06-.04-5.23l-21.18-12.6-28.18,14.24,26.48,17.35Z"/><ellipse class="cls-24" cx="88.05" cy="294.55" rx="34.91" ry="17.34" transform="translate(-5.21 1.61) rotate(-1.02)"/><path class="cls-13" d="M80.15,103.06s13.53,5.68,37.71-26.92c4.9-6.6,11.21-30.06,11.21-30.06l-5.83-2.6s-8.79,20-15.98,26.44c-9.66,8.65-36.11,20.31-37.25,24.68s10.13,8.46,10.13,8.46Z"/><path d="M62.43,282.98l7.59-.95c5.08-2.3,7.45-4.03,9.72-2.72l.64,.37c2.26,1.31,1.98,3.61-.64,5.12l-11.16,8.87c-2.61,1.51-6.13,1.03-8.22-.8,0,0-1.25-1.13-.36-5.87,.51-2.7,.33-2.8,2.42-4.01Z"/><path class="cls-15" d="M71.4,283.31c-.61,5.25-10.22,5.25-10.22,1.25l5.33-121.13,32.07-9.04-27.18,128.92Z"/><path d="M94.53,294.55l7.52,1.42c5.54-.64,8.33-1.56,10.08,.38l.5,.55c1.75,1.94,.78,4.04-2.17,4.68l-13.34,5.03c-2.95,.64-6.15-.89-7.58-3.27,0,0-.84-1.45,1.46-5.7,1.31-2.42,1.17-2.57,3.53-3.08Z"/><path class="cls-15" d="M100.66,297.76c-1.67,4.24-9.02,3.31-8.89-.17,3.43-41.97-4.47-81.61-14.65-120.18l30.8-3.33c1.2,45.13,.8,83.81-7.26,123.68Z"/><path class="cls-18" d="M106.02,163.16l10.71,58.79s-26.62,26.38-57.06,0l3.42-55.2,42.93-3.58Z"/><ellipse class="cls-4" cx="86.69" cy="75.43" rx="9.84" ry="17.36" transform="translate(-8.96 11.74) rotate(-7.37)"/><path class="cls-15" d="M104.21,82.33c-2.29,7.98-10.85,10.87-15.88,5.66-5.03-5.21-7.25-15.9-4.96-23.89,2.29-7.98,8.22-10.23,13.25-5.02,5.03,5.21,9.87,15.26,7.58,23.25Z"/><path class="cls-15" d="M84.85,105.36l-.86-.19c-2.89-.64-4.73-3.54-4.08-6.43l3.63-16.29c.64-2.89,3.54-4.73,6.43-4.08l.86,.19c2.89,.64,4.73,3.54,4.08,6.43l-1.19,16.17c-.64,2.89-5.98,4.85-8.87,4.21Z"/><path class="cls-9" d="M78.02,83.47s-.99,5.53,8.67,6.07c7.73,.43,5.43-13.55,13.09-14.8,8.43-1.37,9.96-11.79,6.63-15.78-3.32-4-12.6-6.09-19.33-3.12-6.72,2.97-20.84,5.13-9.07,27.64Z"/><path class="cls-15" d="M99.81,79.07c-.56,1.94-2.58,3.06-4.52,2.51-1.94-.56-3.06-2.58-2.51-4.52,.56-1.94,2.58-3.06,4.52-2.51s3.06,2.58,2.51,4.52Z"/><path class="cls-2" d="M62.95,166.12c2.73-14.96-.2-26.78,.03-42.68,0-28.58-1.37-35.56,13.74-31.21l4.26,1.13c2.04,.54,4.03,1.31,5.91,2.28,19.92,10.26,25.24,13.43,24.37,25.34,.09,19.61-9.04,23.61-4.19,40.78-4.11,13.56-39.57,14.06-44.12,4.35Z"/><path class="cls-23" d="M94.49,90.61l-.87-2s1.54,1.54,4.48,1.17c0,0-1.73,.99-3.61,.83Z"/><ellipse class="cls-5" cx="78.76" cy="67.79" rx="6.96" ry="8.09"/><path class="cls-9" d="M78.58,65.26c.33-4.14-5.32-5.97-7.54-2.45-.72,1.15-1.37,2.75-1.87,4.97-2.81,12.44-23.76,10.63-13.48,32.52,0,0-9.35,14.36,8.03,20.41,8.89,3.1,8.69-19.8,8.69-19.8,0,0,3.55-10.53,6.97-18.79,1.61-3.87,1.76-8.28,.05-12.11-.7-1.57-.98-3.15-.86-4.73Z"/><path class="cls-18" d="M80.86,91.4c-1.66-.4-3.18,1.05-2.9,2.73,.31,1.86,1.45,4.09,4.86,5.25,4.71,1.6,9.89,.74,12.38,.15,.59-.14,.71-.92,.19-1.24-2.8-1.73-9.54-5.68-14.53-6.89Z"/><polygon class="cls-3" points="139.43 121.92 116.73 108.77 130.09 69.7 152.79 82.85 139.43 121.92"/><path class="cls-2" d="M93.27,116.78s19.54,47.51,40.86,24.62c21.32-22.89,13.83-39.02,13.83-39.02l-2.86-.78s-8.67,28.74-17.9,25.9c-9.23-2.84-21.77-20.59-26.21-21.42-4.44-.84-7.72,10.71-7.72,10.71Z"/><rect class="cls-15" x="122.73" y="32.3" width="10.16" height="13.81" rx="3.7" ry="3.7" transform="translate(224.49 131.54) rotate(-153.38)"/><g><polygon class="cls-12" points="22.2 183.78 44.32 171.01 22.34 158.32 0 171.06 22.2 183.78"/><polygon class="cls-7" points="22.2 183.78 22.17 183.76 22.17 209.17 44.29 196.4 44.29 171.03 22.2 183.78"/><polygon class="cls-8" points="22.2 183.78 0 171.06 0 195.68 22.59 209.22 22.59 183.56 22.2 183.78"/></g><path class="cls-15" d="M147.45,105.7h0c-2.05,0-3.72-1.67-3.72-3.72v-3.81c0-2.05,1.67-3.72,3.72-3.72h0c2.05,0,3.72,1.67,3.72,3.72v3.81c0,2.05-1.67,3.72-3.72,3.72Z"/><g><path class="cls-2" d="M134.53,83.96l-3.88-2.24c-.79-.45-1.2-1.56-.93-2.46h0c.28-.91,1.14-1.27,1.93-.82l3.88,2.24c.79,.45,1.2,1.56,.93,2.46h0c-.28,.91-1.14,1.27-1.93,.82Z"/><path class="cls-10" d="M138.15,92.75l-5.85-3.38c-.62-.36-.95-1.23-.73-1.95h0c.22-.72,.9-1.01,1.52-.65l5.85,3.38c.62,.36,.95,1.23,.73,1.95h0c-.22,.72-.9,1.01-1.52,.65Z"/><path class="cls-10" d="M141.24,101.53l-10.76-6.21c-.62-.36-.95-1.23-.73-1.95h0c.22-.72,.9-1.01,1.52-.65l10.76,6.21c.62,.36,.95,1.23,.73,1.95h0c-.22,.72-.9,1.01-1.52,.65Z"/><path class="cls-10" d="M134.53,104.65l-5.85-3.38c-.62-.36-.95-1.23-.73-1.95h0c.22-.72,.9-1.01,1.52-.65l5.85,3.38c.62,.36,.95,1.23,.73,1.95h0c-.22,.72-.9,1.01-1.52,.65Z"/><path class="cls-2" d="M127.76,107.36l-4.01-2.31c-.62-.36-.95-1.23-.73-1.95h0c.22-.72,.9-1.01,1.52-.65l4.01,2.31c.62,.36,.95,1.23,.73,1.95h0c-.22,.72-.9,1.01-1.52,.65Z"/></g></g><polygon class="cls-22" points="169.08 49.68 216.87 74.36 216.87 83.7 169.04 59.24 169.08 49.68"/><path class="cls-3" d="M176.56,58.25c.22,1.28-.6,1.79-1.85,1.15-1.25-.64-2.44-2.2-2.66-3.47-.22-1.28,.6-1.79,1.85-1.15,1.25,.64,2.44,2.2,2.66,3.47Z"/><path class="cls-5" d="M182.96,61.77c.22,1.28-.6,1.79-1.85,1.15-1.25-.64-2.44-2.2-2.66-3.47-.22-1.28,.6-1.79,1.85-1.15s2.44,2.2,2.66,3.47Z"/><path class="cls-2" d="M189.56,65.58c.22,1.28-.6,1.79-1.85,1.15-1.25-.64-2.44-2.2-2.66-3.47-.22-1.28,.6-1.79,1.85-1.15,1.25,.64,2.44,2.2,2.66,3.47Z"/><polygon class="cls-5" points="215.71 119.18 205.43 114.1 205.43 97 215.71 102.09 215.71 119.18"/><path class="cls-19" d="M206.75,93.98l-7.39-3.74c-.66-.33-1.18-1.23-1.16-2h0c.03-.77,.59-1.12,1.25-.78l7.39,3.74c.66,.33,1.18,1.23,1.16,2h0c-.03,.77-.59,1.12-1.25,.78Z"/><path class="cls-21" d="M185.79,83.92l-8.09-4.16c-.72-.37-1.32-1.32-1.32-2.1h0c0-.78,.59-1.12,1.32-.74l8.09,4.16c.72,.37,1.32,1.32,1.32,2.1h0c0,.78-.59,1.12-1.32,.74Z"/><path class="cls-21" d="M183.85,87.24l-6.36-3.31c-.57-.3-.97-1.15-.9-1.89h0c.08-.74,.6-1.11,1.17-.81l6.36,3.31c.57,.3,.97,1.15,.9,1.89h0c-.08,.74-.6,1.11-1.17,.81Z"/><path class="cls-2" d="M209.41,91.26l-9.61-4.88c-.86-.44-1.56-1.56-1.56-2.5h0c0-.94,.71-1.35,1.57-.91l9.61,4.88c.86,.44,1.56,1.56,1.56,2.5h0c0,.94-.71,1.35-1.57,.91Z"/><path class="cls-10" d="M202.77,96.19l-6.39-3.27c-.57-.29-.98-1.14-.91-1.89h0c.07-.74,.6-1.11,1.17-.82l6.39,3.27c.57,.29,.98,1.14,.91,1.89h0c-.07,.74-.6,1.11-1.17,.82Z"/><path class="cls-19" d="M202.16,79.49l-27.5-14.45c-.9-.47-1.9-.14-2.21,.74s.16,1.99,1.06,2.46l27.5,14.45c.9,.47,1.9,.14,2.21-.74,.32-.88-.16-1.99-1.06-2.46Z"/><path class="cls-19" d="M214.09,85.76l-33.47-17.59c-1.09-.58-2.22-.31-2.49,.6-.28,.9,.39,2.11,1.49,2.69l33.47,17.59c1.09,.58,2.22,.31,2.49-.6s-.39-2.11-1.49-2.69Z"/><path class="cls-10" d="M200,98.3l-4.35-2.25c-.39-.2-.63-.84-.54-1.42h0c.09-.58,.48-.89,.87-.69l4.35,2.25c.39,.2,.63,.84,.54,1.42h0c-.09,.58-.48,.89-.87,.69Z"/><path class="cls-2" d="M180.09,90.05l-3.57-1.94c-.32-.17-.42-.87-.22-1.56h0c.2-.68,.62-1.1,.94-.93l3.57,1.94c.32,.17,.42,.87,.22,1.56h0c-.2,.68-.62,1.1-.94,.93Z"/><path class="cls-2" d="M200.35,86.59l-20.39-10.09c-1.82-.9-3.7-2.6-4.17-3.77h0c-.47-1.17,.64-1.38,2.46-.48l20.39,10.09c1.82,.9,3.7,2.6,4.17,3.77h0c.47,1.17-.64,1.38-2.46,.48Z"/><path class="cls-19" d="M199.99,90.56l-9.11-4.56c-.81-.41-1.52-1.4-1.57-2.2h0c-.05-.8,.58-1.12,1.39-.71l9.11,4.56c.81,.41,1.52,1.4,1.57,2.2h0c.05,.8-.58,1.12-1.39,.71Z"/><g id="_6aWjWX"><path d="M210.35,115.7c-.24-.08-.49-.17-.73-.25-.27-.09-.37-.23-.36-.5,.02-.48,.04-.96,.06-1.43,0-.09-.02-.13-.1-.19-1.52-1.03-2.31-2.39-2.45-4.02,0-.03,0-.06,0-.09-.02-.24,.12-.36,.36-.28,.52,.17,1.03,.35,1.55,.53,.17,.06,.28,.2,.31,.38,.02,.09,.02,.18,.04,.28,.15,.68,.59,1.15,1.19,1.49,.33,.18,.67,.27,1,.29,.98,.06,1.27-1.09,.62-1.99-.38-.52-.85-.93-1.35-1.29-.47-.34-.95-.66-1.41-1.02-.64-.49-1.2-1.07-1.6-1.79-.46-.82-.61-1.62-.47-2.37,.27-1.43,1.21-2.06,2.68-2,.09,0,.13-.02,.13-.12,.01-.45,.03-.9,.05-1.35,.01-.25,.12-.33,.38-.24,.49,.17,.99,.34,1.48,.51,.25,.09,.36,.23,.35,.48-.02,.5-.04,1.01-.06,1.51,0,.08,.02,.13,.1,.19,1.2,.93,1.86,2.08,2.01,3.44,0,.07,.01,.13,.02,.2,0,.21-.13,.32-.34,.25-.53-.17-1.05-.36-1.58-.54-.21-.07-.3-.21-.34-.46-.07-.47-.31-.87-.73-1.18-.56-.42-1.25-.52-1.66-.25-.4,.26-.54,.96,.09,1.61,.37,.38,.78,.68,1.2,.97,.69,.47,1.36,.98,1.96,1.6,.69,.7,1.23,1.48,1.49,2.37,.52,1.82-.17,3.94-2.57,3.78-.1,0-.14,.02-.14,.12-.01,.46-.03,.92-.05,1.38-.01,.27-.12,.34-.4,.25-.24-.08-.49-.17-.73-.25h0Z"/></g></g></g></g></g></svg>