<svg width="645" height="448" viewBox="0 0 645 448" fill="none" xmlns="http://www.w3.org/2000/svg">
    <g filter="url(#filter0_d_39_6663)">
        <circle cx="70" cy="370" r="48" fill="url(#paint0_radial_39_6663)" />
    </g>
    <path
        d="M630 70.5C630 79.8637 627.693 88.6445 623.63 96.3481C614.311 114.013 595.794 126 574.5 126C543.848 126 519 101.152 519 70.5C519 39.8482 543.848 15 574.5 15C594.763 15 612.508 25.8506 622.214 42.1303L633.494 35.4052L622.214 42.1303C627.157 50.4205 630 60.1053 630 70.5Z"
        stroke="url(#paint1_linear_39_6663)" stroke-width="30" />
    <g filter="url(#filter1_b_39_6663)">
        <rect x="74" y="74" width="497" height="358" rx="12" fill="url(#paint2_linear_39_6663)" />
        <circle cx="89.9998" cy="90" r="4" fill="#FF5F57" />
        <circle cx="104" cy="90" r="4" fill="#FEBC2E" />
        <circle cx="118" cy="90" r="4" fill="#28C840" />
        <g clip-path="url(#clip0_39_6663)">
            <g opacity="0.43">
                <path
                    d="M502.196 285.307C511.342 290.563 511.342 299.173 502.307 304.429L341.122 398.364C332.087 403.619 317.251 403.619 308.216 398.364L145.916 304.429C136.769 299.173 136.769 290.563 145.804 285.307L306.989 191.372C316.024 186.116 330.749 186.116 339.895 191.372L502.196 285.307ZM485.798 313.263L501.638 304.094C510.339 299.061 510.339 290.786 501.526 285.754L485.575 276.584L454.008 295.036L485.798 313.263ZM421.324 350.837L452.892 332.386L421.101 313.934L389.534 332.386L421.324 350.837ZM356.85 388.411L388.418 369.96L356.627 351.508L325.06 369.96L356.85 388.411ZM291.596 275.801L323.163 257.35L291.373 238.899L259.805 257.35L291.596 275.801ZM356.404 313.263L387.972 294.812L356.181 276.361L324.613 294.812L356.404 313.263ZM227.122 313.263L258.689 294.812L226.899 276.361L195.331 294.812L227.122 313.263ZM356.07 238.228L387.637 219.776L355.847 201.325L324.167 219.776L356.07 238.228ZM291.93 350.837L323.498 332.386L291.819 314.046L260.251 332.498L291.93 350.837ZM420.878 275.801L452.446 257.35L420.655 238.899L389.087 257.35L420.878 275.801ZM323.61 219.441L355.177 200.989L339.226 191.82C330.525 186.787 316.247 186.787 307.547 191.82L291.707 200.989L323.61 219.441ZM340.453 398.028L356.293 388.858L324.502 370.407L292.934 388.858L308.885 398.028C317.475 403.06 331.752 403.06 340.453 398.028ZM259.136 257.015L290.703 238.563L258.913 220.112L227.345 238.563L259.136 257.015ZM388.864 332.05L420.432 313.599L388.641 295.147L357.074 313.599L388.864 332.05ZM323.944 294.477L355.512 276.025L323.721 257.574L292.153 276.137L323.944 294.477ZM389.087 369.624L420.655 351.173L388.864 332.833L357.297 351.284L389.087 369.624ZM324.39 369.624L355.958 351.173L324.167 332.833L292.6 351.284L324.39 369.624ZM453.338 294.477L484.906 276.025L453.115 257.574L421.547 276.137L453.338 294.477ZM453.561 332.05L485.129 313.599L453.338 295.147L421.771 313.599L453.561 332.05ZM194.662 294.477L226.229 276.137L194.439 257.686L162.871 276.137L194.662 294.477ZM259.582 332.05L291.15 313.599L259.359 295.147L227.791 313.599L259.582 332.05ZM388.418 257.015L419.986 238.563L388.195 220.112L356.627 238.563L388.418 257.015ZM194.885 332.05L226.452 313.599L194.662 295.147L163.094 313.599L194.885 332.05ZM259.805 369.624L291.373 351.173L259.582 332.721L228.014 351.173L259.805 369.624ZM259.359 294.477L290.926 276.025L259.136 257.574L227.568 276.137L259.359 294.477ZM323.833 257.015L355.4 238.563L323.61 220.112L292.042 238.563L323.833 257.015ZM388.641 294.477L420.209 276.025L388.418 257.574L356.85 276.137L388.641 294.477ZM324.167 332.05L355.735 313.599L323.944 295.147L292.377 313.599L324.167 332.05ZM162.425 313.263L193.992 294.812L162.202 276.361L146.362 285.53C137.661 290.563 137.661 298.838 146.474 303.87L162.425 313.263ZM292.153 388.411L323.721 369.96L291.93 351.508L260.363 369.96L292.153 388.411ZM227.345 350.837L258.913 332.386L227.122 314.046L195.554 332.498L227.345 350.837ZM421.101 313.263L452.669 294.812L420.878 276.361L389.31 294.812L421.101 313.263ZM226.899 275.69L258.466 257.238L226.676 238.787L195.108 257.238L226.899 275.69ZM291.373 238.228L322.94 219.776L291.15 201.325L259.582 219.776L291.373 238.228ZM356.627 350.837L388.195 332.386L356.404 313.934L324.837 332.386L356.627 350.837ZM291.819 313.263L323.386 294.812L291.596 276.361L260.028 294.812L291.819 313.263ZM356.181 275.69L387.749 257.238L355.958 238.787L324.39 257.238L356.181 275.69Z"
                    fill="#8DABFF" />
            </g>
            <g opacity="0.29">
                <path
                    d="M502.196 294.029C511.342 299.285 511.342 307.896 502.307 313.152L341.122 407.086C332.087 412.342 317.251 412.342 308.216 407.086L145.916 313.152C136.769 307.896 136.769 299.285 145.804 294.029L306.989 200.095C316.024 194.839 330.749 194.839 339.895 200.095L502.196 294.029ZM485.798 321.986L501.638 312.816C510.339 307.784 510.339 299.509 501.526 294.477L485.575 285.307L454.008 303.758L485.798 321.986ZM421.324 359.56L452.892 341.108L421.101 322.657L389.534 341.108L421.324 359.56ZM356.85 397.133L388.418 378.682L356.627 360.231L325.06 378.682L356.85 397.133ZM291.596 284.524L323.163 266.073L291.373 247.621L259.805 266.073L291.596 284.524ZM356.404 321.986L387.972 303.535L356.181 285.083L324.613 303.535L356.404 321.986ZM227.122 321.986L258.689 303.535L226.899 285.083L195.331 303.535L227.122 321.986ZM356.07 246.95L387.637 228.499L355.847 210.047L324.167 228.499L356.07 246.95ZM291.93 359.56L323.498 341.108L291.819 322.769L260.251 341.22L291.93 359.56ZM420.878 284.524L452.446 266.073L420.655 247.621L389.087 266.073L420.878 284.524ZM323.61 228.163L355.177 209.712L339.226 200.542C330.525 195.51 316.247 195.51 307.547 200.542L291.707 209.712L323.61 228.163ZM340.453 406.751L356.293 397.581L324.502 379.129L292.934 397.581L308.885 406.751C317.475 411.783 331.752 411.783 340.453 406.751ZM259.136 265.737L290.703 247.286L258.913 228.834L227.345 247.286L259.136 265.737ZM388.864 340.773L420.432 322.321L388.641 303.87L357.074 322.321L388.864 340.773ZM323.944 303.199L355.512 284.748L323.721 266.296L292.153 284.748L323.944 303.199ZM389.087 378.347L420.655 359.895L388.864 341.556L357.297 360.007L389.087 378.347ZM324.39 378.347L355.958 359.895L324.167 341.556L292.6 360.007L324.39 378.347ZM453.338 303.199L484.906 284.748L453.115 266.296L421.547 284.748L453.338 303.199ZM453.561 340.773L485.129 322.321L453.338 303.87L421.771 322.321L453.561 340.773ZM194.662 303.199L226.229 284.748L194.439 266.296L162.871 284.748L194.662 303.199ZM259.582 340.773L291.15 322.321L259.359 303.87L227.791 322.321L259.582 340.773ZM388.418 265.737L419.986 247.286L388.195 228.834L356.627 247.286L388.418 265.737ZM194.885 340.773L226.452 322.321L194.662 303.87L163.094 322.321L194.885 340.773ZM259.805 378.347L291.373 359.895L259.582 341.444L228.014 359.895L259.805 378.347ZM259.359 303.199L290.926 284.748L259.136 266.296L227.568 284.748L259.359 303.199ZM323.833 265.737L355.4 247.286L323.61 228.834L292.042 247.286L323.833 265.737ZM388.641 303.199L420.209 284.748L388.418 266.296L356.85 284.748L388.641 303.199ZM324.167 340.773L355.735 322.321L323.944 303.87L292.377 322.321L324.167 340.773ZM162.425 321.986L193.992 303.535L162.202 285.083L146.362 294.253C137.661 299.285 137.661 307.56 146.474 312.593L162.425 321.986ZM292.153 397.133L323.721 378.682L291.93 360.231L260.363 378.682L292.153 397.133ZM227.345 359.56L258.913 341.108L227.122 322.769L195.554 341.22L227.345 359.56ZM421.101 321.986L452.669 303.535L420.878 285.083L389.31 303.535L421.101 321.986ZM226.899 284.412L258.466 265.961L226.676 247.509L195.108 266.073L226.899 284.412ZM291.373 246.95L322.94 228.499L291.15 210.159L259.582 228.611L291.373 246.95ZM356.627 359.56L388.195 341.108L356.404 322.657L324.837 341.108L356.627 359.56ZM291.819 321.986L323.386 303.535L291.596 285.083L260.028 303.535L291.819 321.986ZM356.181 284.412L387.749 265.961L355.958 247.509L324.39 266.073L356.181 284.412Z"
                    fill="#8DABFF" />
            </g>
            <path opacity="0.25"
                d="M413.962 292.24C419.428 295.483 419.54 300.627 414.074 303.758L333.203 350.837C327.737 354.08 318.813 354.08 313.236 350.837L231.918 303.758C226.452 300.515 226.341 295.371 231.807 292.24L312.678 245.161C318.144 241.918 327.067 241.918 332.645 245.161L413.962 292.24Z"
                fill="#3B4572" />
            <path
                d="M314.351 333.84L233.034 286.761C230.245 285.195 228.907 283.07 228.907 280.946V286.649C228.907 288.773 230.245 290.898 233.034 292.464L314.351 339.543C316.248 340.661 318.479 341.332 320.933 341.667V335.964C318.479 335.629 316.248 334.958 314.351 333.84Z"
                fill="#3B4572" />
            <path
                d="M320.933 335.964V341.668C322.717 341.891 324.502 342.003 326.175 341.891V336.188C324.391 336.3 322.606 336.3 320.933 335.964Z"
                fill="#4D5686" />
            <path
                d="M415.078 286.761L334.207 333.84C333.426 334.287 332.645 334.622 331.864 334.958V340.661C332.645 340.326 333.537 339.99 334.207 339.543L415.078 292.464C417.755 290.898 419.205 288.773 419.205 286.761V281.057C419.205 283.07 417.867 285.195 415.078 286.761Z"
                fill="#4D5686" />
            <path
                d="M326.175 336.188V341.891C328.183 341.779 330.079 341.332 331.864 340.661V334.958C330.079 335.629 328.183 336.076 326.175 336.188Z"
                fill="#3B4572" />
            <path
                d="M415.078 275.242C420.544 278.485 420.655 283.629 415.19 286.76L334.318 333.84C328.852 337.083 319.929 337.083 314.351 333.84L233.034 286.76C227.568 283.518 227.457 278.373 232.922 275.242L313.794 228.163C319.259 224.92 328.183 224.92 333.761 228.163L415.078 275.242Z"
                fill="#5B639D" />
            <path
                d="M447.984 259.81L441.737 263.501C442.518 263.053 442.964 262.047 442.964 260.705L449.211 257.015C449.211 258.357 448.765 259.363 447.984 259.81Z"
                fill="#0D1B28" />
            <path
                d="M329.745 47.2277L335.991 43.5375C336.772 43.0902 337.888 43.0902 339.115 43.8729L332.868 47.5632C331.641 46.7804 330.525 46.7804 329.745 47.2277Z"
                fill="#5B639D" />
            <path d="M332.868 47.5632L339.114 43.8729L406.154 82.6768L399.907 86.3671L332.868 47.5632Z"
                fill="#5B639D" />
            <path
                d="M399.907 86.367L406.154 82.6768C407.269 83.3477 408.385 83.4595 409.277 83.0122L403.031 86.7025C402.138 87.038 401.023 87.038 399.907 86.367Z"
                fill="#5B639D" />
            <path d="M402.919 86.5908L409.166 83.0123L413.962 80.2167L407.715 83.907L402.919 86.5908Z" fill="#5B639D" />
            <path
                d="M407.715 83.9069L413.962 80.2166C414.743 79.7693 415.858 79.8811 417.085 80.5521L410.839 84.2424C409.612 83.5714 408.496 83.4596 407.715 83.9069Z"
                fill="#5B639D" />
            <path d="M443.411 111.528L449.657 107.838L449.323 257.015L442.964 260.593L443.411 111.528Z"
                fill="#3B4572" />
            <path d="M443.411 108.173L449.657 104.483V107.838L443.411 111.528V108.173Z" fill="#3B4572" />
            <path d="M410.839 84.2424L417.085 80.5521L445.307 96.9907L439.06 100.569L410.839 84.2424Z" fill="#5B639D" />
            <path
                d="M439.06 100.569C441.514 101.911 443.41 105.378 443.41 108.061V111.416L442.964 260.481C442.964 263.277 440.956 264.395 438.614 262.941L332.422 201.437C329.968 200.095 328.071 196.628 328.071 193.944L328.517 49.9115C328.517 47.1159 330.525 45.9976 332.868 47.4513L399.907 86.2552C401.023 86.9262 402.138 87.038 403.031 86.5907L407.827 83.9068C408.608 83.4595 409.723 83.5714 410.95 84.2423L439.06 100.569Z"
                fill="#0C2133" />
            <path
                d="M439.06 100.569L445.307 96.8788C447.761 98.2207 449.657 101.687 449.657 104.371L443.41 108.061C443.41 105.378 441.514 102.023 439.06 100.569Z"
                fill="#5B639D" />
            <path
                d="M314.351 312.928L233.034 265.849C230.245 264.283 228.907 262.159 228.907 260.034V274.46C228.907 276.584 230.245 278.709 233.034 280.275L314.351 327.354C316.248 328.472 318.479 329.143 320.933 329.478V315.053C318.479 314.717 316.248 314.046 314.351 312.928Z"
                fill="#A3A6C8" />
            <path
                d="M320.933 315.053V329.478C322.717 329.702 324.502 329.814 326.175 329.702V315.276C324.391 315.388 322.606 315.276 320.933 315.053Z"
                fill="#CCCEE5" />
            <path
                d="M326.175 315.276V329.702C328.183 329.59 330.079 329.143 331.864 328.472V314.046C330.079 314.605 328.183 315.053 326.175 315.276Z"
                fill="#A3A6C8" />
            <path
                d="M415.078 265.849L334.207 312.928C333.426 313.375 332.645 313.711 331.864 314.046V328.472C332.645 328.136 333.537 327.801 334.207 327.354L415.078 280.275C417.755 278.709 419.205 276.584 419.205 274.572V260.146C419.205 262.159 417.867 264.283 415.078 265.849Z"
                fill="#CCCEE5" />
            <path
                d="M415.078 254.219C420.544 257.462 420.655 262.606 415.19 265.737L334.318 312.816C328.852 316.059 319.929 316.059 314.351 312.816L233.034 265.737C227.568 262.494 227.457 257.35 232.922 254.219L313.794 207.14C319.259 203.897 328.183 203.897 333.761 207.14L415.078 254.219Z"
                fill="#F7F7F7" />
            <path
                d="M324.279 307.001C322.048 307.001 319.817 306.554 318.479 305.771L239.615 260.146L317.921 214.52C319.259 213.738 321.49 213.29 323.721 213.29C325.952 213.29 328.183 213.738 329.522 214.52L408.385 260.146L330.08 305.771C328.741 306.442 326.622 307.001 324.279 307.001ZM246.308 260.034L320.263 302.864C320.821 303.199 322.271 303.646 324.391 303.646C326.51 303.646 327.96 303.087 328.518 302.864L401.916 260.146L327.96 217.316C327.402 216.981 325.952 216.533 323.833 216.533C321.714 216.533 320.263 217.093 319.706 217.316L246.308 260.034Z"
                fill="#5B639D" />
            <path
                d="M258.801 286.425C259.582 286.872 260.251 288.103 260.251 288.997C260.251 289.892 259.582 290.339 258.801 289.892C258.02 289.444 257.351 288.214 257.351 287.32C257.239 286.313 257.909 285.978 258.801 286.425Z"
                fill="#7AD367" />
            <path
                d="M263.486 289.109C264.267 289.556 264.936 290.786 264.936 291.681C264.936 292.576 264.267 293.023 263.486 292.576C262.705 292.128 262.036 290.898 262.036 290.004C262.036 289.109 262.705 288.662 263.486 289.109Z"
                fill="#FA7F1D" />
            <path
                d="M290.592 304.877C291.373 305.324 292.042 306.554 292.042 307.449C292.042 308.343 291.373 308.79 290.592 308.343C289.811 307.896 289.142 306.666 289.142 305.771C289.142 304.765 289.811 304.429 290.592 304.877Z"
                fill="#F7F7F7" />
            <path
                d="M272.41 295.259C272.745 295.483 273.079 295.93 273.079 296.378C273.079 296.825 272.745 296.937 272.41 296.713L269.733 295.148C269.398 294.924 269.063 294.477 269.063 294.029C269.063 293.582 269.398 293.47 269.733 293.694L272.41 295.259Z"
                fill="#F7F7F7" />
            <path
                d="M277.541 298.279C277.876 298.502 278.211 298.95 278.211 299.397C278.211 299.844 277.876 299.956 277.541 299.732L274.864 298.167C274.529 297.943 274.195 297.496 274.195 297.049C274.195 296.601 274.529 296.489 274.864 296.713L277.541 298.279Z"
                fill="#7AD367" />
            <path
                d="M291.484 303.646C293.158 304.541 294.385 306.889 294.385 308.79C294.385 310.692 293.046 311.362 291.484 310.468L258.243 291.234C256.57 290.339 255.343 287.991 255.343 286.201C255.343 284.3 256.682 283.629 258.243 284.524L291.484 303.646ZM290.592 308.231C291.373 308.679 292.042 308.343 292.042 307.337C292.042 306.442 291.373 305.212 290.592 304.765C289.811 304.317 289.142 304.653 289.142 305.659C289.142 306.666 289.811 307.784 290.592 308.231ZM263.486 292.576C264.267 293.023 264.936 292.687 264.936 291.681C264.936 290.786 264.267 289.556 263.486 289.109C262.705 288.662 262.036 288.997 262.036 290.004C262.036 290.898 262.705 292.128 263.486 292.576ZM258.801 289.892C259.582 290.339 260.251 290.004 260.251 288.997C260.251 288.103 259.582 286.872 258.801 286.425C258.02 285.978 257.351 286.313 257.351 287.32C257.24 288.214 257.909 289.333 258.801 289.892ZM277.541 299.732C277.876 299.956 278.21 299.732 278.21 299.397C278.21 298.95 277.876 298.502 277.541 298.279L274.864 296.713C274.529 296.49 274.195 296.713 274.195 297.049C274.195 297.496 274.529 297.943 274.864 298.167L277.541 299.732ZM272.41 296.825C272.745 297.049 273.079 296.825 273.079 296.49C273.079 296.042 272.745 295.595 272.41 295.371L269.733 293.806C269.398 293.582 269.063 293.806 269.063 294.141C269.063 294.588 269.398 295.036 269.733 295.259L272.41 296.825Z"
                fill="#132334" />
            <path
                d="M394.33 283.853C393.549 284.3 392.88 285.53 392.88 286.425C392.88 287.32 393.549 287.767 394.33 287.32C395.111 286.872 395.78 285.642 395.78 284.748C395.892 283.741 395.222 283.406 394.33 283.853Z"
                fill="#7AD367" />
            <path
                d="M389.645 286.649C388.864 287.096 388.195 288.326 388.195 289.221C388.195 290.115 388.864 290.563 389.645 290.115C390.426 289.668 391.095 288.438 391.095 287.543C391.095 286.537 390.426 286.09 389.645 286.649Z"
                fill="#FA7F1D" />
            <path
                d="M362.539 302.305C361.758 302.752 361.089 303.982 361.089 304.877C361.089 305.771 361.758 306.218 362.539 305.771C363.32 305.324 363.989 304.094 363.989 303.199C363.989 302.193 363.32 301.857 362.539 302.305Z"
                fill="#F7F7F7" />
            <path
                d="M380.721 292.799C380.386 293.023 380.052 293.47 380.052 293.917C380.052 294.365 380.386 294.477 380.721 294.253L383.398 292.687C383.733 292.464 384.067 292.016 384.067 291.569C384.067 291.122 383.733 291.01 383.398 291.234L380.721 292.799Z"
                fill="#F7F7F7" />
            <path
                d="M375.59 295.707C375.256 295.93 374.921 296.378 374.921 296.825C374.921 297.272 375.256 297.384 375.59 297.16L378.267 295.595C378.602 295.371 378.937 294.924 378.937 294.477C378.937 294.029 378.602 293.917 378.267 294.141L375.59 295.707Z"
                fill="#7AD367" />
            <path
                d="M394.888 281.84C396.561 280.946 397.788 281.617 397.788 283.518C397.788 285.419 396.449 287.655 394.888 288.55L361.647 307.784C359.974 308.679 358.747 308.008 358.747 306.107C358.747 304.206 360.085 301.969 361.647 300.963L394.888 281.84ZM362.539 305.771C363.32 305.324 363.989 304.094 363.989 303.199C363.989 302.304 363.32 301.857 362.539 302.304C361.758 302.752 361.089 303.982 361.089 304.877C360.978 305.883 361.647 306.218 362.539 305.771ZM389.645 290.004C390.426 289.556 391.095 288.326 391.095 287.432C391.095 286.537 390.426 286.09 389.645 286.537C388.864 286.984 388.195 288.214 388.195 289.109C388.195 290.115 388.864 290.563 389.645 290.004ZM394.33 287.32C395.111 286.872 395.78 285.642 395.78 284.748C395.78 283.853 395.111 283.406 394.33 283.853C393.549 284.3 392.88 285.53 392.88 286.425C392.88 287.432 393.549 287.767 394.33 287.32ZM375.59 297.16L378.267 295.595C378.602 295.371 378.937 294.924 378.937 294.477C378.937 294.029 378.602 293.918 378.267 294.141L375.59 295.707C375.255 295.93 374.921 296.378 374.921 296.825C375.032 297.272 375.255 297.384 375.59 297.16ZM380.721 294.253L383.398 292.687C383.733 292.464 384.068 292.016 384.068 291.569C384.068 291.122 383.733 291.01 383.398 291.234L380.721 292.799C380.387 293.023 380.052 293.47 380.052 293.917C380.052 294.253 380.387 294.477 380.721 294.253Z"
                fill="#132334" />
            <path
                d="M282.895 359.448C279.326 359.448 275.979 358.665 273.414 357.1L210.39 320.644C207.378 318.967 205.816 316.506 205.816 313.823C205.816 311.139 207.378 308.79 210.39 307.001C212.955 305.547 216.302 304.653 219.871 304.653C223.441 304.653 226.787 305.436 229.353 307.001L292.377 343.457C295.388 345.134 296.95 347.594 296.95 350.278C296.95 352.962 295.388 355.31 292.377 357.1C289.923 358.665 286.465 359.448 282.895 359.448Z"
                fill="#F7F7F7" />
            <path
                d="M291.261 345.47C295.946 348.153 295.946 352.515 291.261 355.199C286.688 357.882 279.103 357.882 274.418 355.199L211.505 318.743C206.82 316.059 206.82 311.698 211.394 309.014C215.967 306.33 223.552 306.33 228.237 309.014L291.261 345.47Z"
                fill="#FA7F1D" />
            <path
                d="M274.529 347.93L255.789 337.083C253.447 335.741 252.22 333.952 252.331 332.162V339.431C252.331 341.22 253.447 343.01 255.789 344.351L274.529 355.199C276.314 356.205 278.656 356.876 280.999 357.1V349.831C278.656 349.607 276.314 349.048 274.529 347.93Z"
                fill="#A3A6C8" />
            <path
                d="M280.999 349.831V357.1C282.226 357.211 283.453 357.211 284.68 357.1V349.831C283.453 349.943 282.226 349.943 280.999 349.831Z"
                fill="#CCCEE5" />
            <path
                d="M291.373 347.93C290.592 348.377 289.588 348.824 288.584 349.16V356.429C289.588 356.093 290.48 355.758 291.373 355.31C293.715 353.969 294.831 352.179 294.831 350.502V343.233C294.719 344.799 293.604 346.588 291.373 347.93Z"
                fill="#CCCEE5" />
            <path
                d="M284.68 349.831V357.1C286.018 356.988 287.357 356.764 288.584 356.317V349.048C287.357 349.495 286.018 349.719 284.68 349.831Z"
                fill="#A3A6C8" />
            <path
                d="M291.261 338.201C295.946 340.885 295.946 345.246 291.261 347.93C286.688 350.614 279.102 350.614 274.418 347.93L255.678 337.083C250.993 334.399 250.993 330.038 255.566 327.354C260.14 324.67 267.725 324.67 272.41 327.354L291.261 338.201Z"
                fill="#F7F7F7" />
            <path
                d="M284.345 337.977C285.349 338.536 285.349 339.431 284.345 339.99L277.764 343.792C276.76 344.351 275.199 344.351 274.306 343.792C273.302 343.233 273.302 342.338 274.306 341.779L280.887 337.977C281.78 337.418 283.341 337.418 284.345 337.977Z"
                fill="#CCCEE5" />
            <path
                d="M278.433 334.622C279.437 335.181 279.437 336.076 278.433 336.635L271.852 340.437C270.848 340.996 269.286 340.996 268.394 340.437C267.39 339.878 267.39 338.983 268.394 338.424L274.975 334.622C275.979 334.063 277.541 334.063 278.433 334.622Z"
                fill="#CCCEE5" />
            <path
                d="M272.856 331.379C273.86 331.938 273.86 332.833 272.856 333.392L266.275 337.194C265.271 337.753 263.709 337.753 262.817 337.194C261.813 336.635 261.813 335.741 262.817 335.181L269.398 331.379C270.402 330.82 271.964 330.82 272.856 331.379Z"
                fill="#CCCEE5" />
            <path
                d="M226.118 315.053C227.233 315.724 227.233 316.73 226.118 317.289C225.002 317.96 223.329 317.96 222.214 317.289C221.098 316.618 221.098 315.612 222.214 315.053C223.329 314.494 225.002 314.494 226.118 315.053Z"
                fill="#F7F7F7" />
            <path
                d="M235.265 320.309C236.38 320.979 236.38 321.986 235.265 322.545C234.149 323.216 232.476 323.216 231.361 322.545C230.245 321.874 230.245 320.868 231.361 320.309C232.364 319.749 234.149 319.749 235.265 320.309Z"
                fill="#F7F7F7" />
            <path
                d="M244.3 325.564C245.415 326.235 245.415 327.242 244.3 327.801C243.184 328.472 241.511 328.472 240.396 327.801C239.28 327.13 239.28 326.124 240.396 325.564C241.511 325.005 243.296 325.005 244.3 325.564Z"
                fill="#F7F7F7" />
            <path d="M473.64 186.899V189.471L467.17 193.162V190.59L473.64 186.899Z" fill="#8DABFF" />
            <path d="M473.64 182.762V185.334L467.17 189.024V186.452L473.64 182.762Z" fill="#8DABFF" />
            <path d="M464.716 191.932L464.828 194.504L461.593 196.405V193.833L464.716 191.932Z" fill="#8DABFF" />
            <path d="M464.716 187.794V190.478L461.593 192.267V189.695L464.716 187.794Z" fill="#8DABFF" />
            <path d="M479.105 183.656V186.228L475.871 188.129V185.557L479.105 183.656Z" fill="#8DABFF" />
            <path d="M479.105 179.519V182.203L475.871 183.992V181.42L479.105 179.519Z" fill="#8DABFF" />
            <path d="M209.051 218.099L209.163 220.671L205.705 222.684V220.112L209.051 218.099Z" fill="#8DABFF" />
            <path d="M209.163 222.348V224.92L205.705 226.933V224.361L209.163 222.348Z" fill="#8DABFF" />
            <path d="M214.517 214.968V217.54L211.171 219.553V216.981L214.517 214.968Z" fill="#8DABFF" />
            <path d="M214.517 219.217V221.789L211.171 223.802V221.23L214.517 219.217Z" fill="#8DABFF" />
            <path d="M225.114 208.929V211.501L216.637 216.422V213.85L225.114 208.929Z" fill="#8DABFF" />
            <path d="M225.114 213.179V215.751L216.637 220.671V218.099L225.114 213.179Z" fill="#8DABFF" />
            <path d="M464.27 354.192V356.764L457.912 360.566L457.8 357.994L464.27 354.192Z" fill="#8DABFF" />
            <path d="M464.27 349.831V352.403L457.8 356.093V353.521L464.27 349.831Z" fill="#8DABFF" />
            <path d="M468.174 347.482V350.166L465.497 351.62V349.048L468.174 347.482Z" fill="#8DABFF" />
            <path d="M473.305 344.575V347.147L471.409 348.265V345.581L473.305 344.575Z" fill="#8DABFF" />
            <path d="M476.54 342.674V345.246L474.756 346.364L474.644 343.792L476.54 342.674Z" fill="#8DABFF" />
            <path d="M468.174 351.955V354.527L465.497 356.093V353.521L468.174 351.955Z" fill="#8DABFF" />
            <path d="M473.305 349.048V351.62L471.409 352.626V350.054L473.305 349.048Z" fill="#8DABFF" />
            <path d="M476.54 347.147V349.719L474.755 350.725V348.153L476.54 347.147Z" fill="#8DABFF" />
            <path d="M361.424 38.2816V40.8536L364.882 42.7547V40.1827L361.424 38.2816Z" fill="#8DABFF" />
            <path d="M361.424 42.531V45.103L364.77 47.0041L364.882 44.4321L361.424 42.531Z" fill="#8DABFF" />
            <path d="M356.069 35.1505V37.7225L359.416 39.6236V37.0516L356.069 35.1505Z" fill="#8DABFF" />
            <path d="M356.069 39.3999V41.9719L359.416 43.873V41.301L356.069 39.3999Z" fill="#8DABFF" />
            <path d="M345.473 29V31.572L353.95 36.4924V33.9204L345.473 29Z" fill="#8DABFF" />
            <path d="M345.473 33.2494V35.8214L353.95 40.7418V38.1698L345.473 33.2494Z" fill="#8DABFF" />
            <path d="M179.269 354.192V356.764L185.627 360.566V357.994L179.269 354.192Z" fill="#8DABFF" />
            <path d="M179.269 349.831V352.403L185.627 356.093V353.521L179.269 349.831Z" fill="#8DABFF" />
            <path d="M175.364 347.482V350.166L178.041 351.62V349.048L175.364 347.482Z" fill="#8DABFF" />
            <path d="M170.233 344.575V347.147L172.129 348.265V345.581L170.233 344.575Z" fill="#8DABFF" />
            <path d="M166.998 342.674V345.246L168.783 346.364V343.792L166.998 342.674Z" fill="#8DABFF" />
            <path d="M175.364 351.955V354.527L178.041 356.093V353.521L175.364 351.955Z" fill="#8DABFF" />
            <path d="M170.233 349.048V351.62L172.129 352.626V350.054L170.233 349.048Z" fill="#8DABFF" />
            <path d="M166.998 347.147V349.719L168.783 350.725V348.153L166.998 347.147Z" fill="#8DABFF" />
            <path
                d="M417.3 99.6742C418.152 99.1777 418.141 97.5631 417.274 96.068C416.407 94.5728 415.013 93.7633 414.161 94.2598C413.309 94.7564 413.321 96.371 414.188 97.8661C415.054 99.3613 416.448 100.171 417.3 99.6742Z"
                fill="white" />
            <path
                d="M426.042 104.851C426.895 104.355 426.883 102.74 426.016 101.245C425.149 99.7499 423.756 98.9404 422.903 99.437C422.051 99.9335 422.063 101.548 422.93 103.043C423.797 104.538 425.19 105.348 426.042 104.851Z"
                fill="white" />
            <path
                d="M434.825 109.876C435.677 109.379 435.665 107.765 434.799 106.269C433.932 104.774 432.538 103.965 431.686 104.461C430.834 104.958 430.846 106.572 431.713 108.068C432.579 109.563 433.973 110.372 434.825 109.876Z"
                fill="white" />
            <path
                d="M348.931 108.621C349.6 108.956 350.158 109.963 350.158 110.633C350.158 111.416 349.6 111.64 348.931 111.304L337.218 104.483C336.549 104.148 335.991 103.141 335.991 102.47C335.991 101.687 336.549 101.464 337.218 101.799L348.931 108.621Z"
                fill="white" />
            <path
                d="M363.209 116.784C363.878 117.119 364.436 118.126 364.436 118.797C364.436 119.58 363.878 119.803 363.209 119.468L357.074 116.001C356.404 115.666 355.847 114.659 355.847 113.988C355.847 113.206 356.404 112.982 357.074 113.317L363.209 116.784Z"
                fill="white" />
            <path
                d="M389.199 131.881C389.868 132.216 390.426 133.223 390.426 133.893C390.426 134.676 389.868 134.9 389.199 134.564L373.136 125.283C372.467 124.947 371.909 123.941 371.909 123.27C371.909 122.487 372.467 122.263 373.136 122.599L389.199 131.881Z"
                fill="white" />
            <path
                d="M406.043 141.609C406.712 141.945 407.27 142.951 407.27 143.622C407.27 144.405 406.712 144.629 406.043 144.293L399.238 140.379C398.569 140.044 398.011 139.037 398.011 138.366C398.011 137.584 398.569 137.36 399.238 137.696L406.043 141.609Z"
                fill="white" />
            <path
                d="M405.15 227.828C405.819 228.163 406.377 229.17 406.377 229.841C406.377 230.512 405.819 230.847 405.15 230.512L399.015 227.045C398.346 226.71 397.788 225.703 397.788 225.032C397.788 224.361 398.346 224.026 399.015 224.361L405.15 227.828Z"
                fill="white" />
            <path
                d="M431.252 242.924C431.921 243.26 432.479 244.266 432.479 244.937C432.479 245.72 431.921 245.944 431.252 245.608L415.189 236.327C414.52 235.991 413.962 234.985 413.962 234.314C413.962 233.643 414.52 233.307 415.189 233.643L431.252 242.924Z"
                fill="white" />
            <path opacity="0.4"
                d="M367.559 134.676C368.228 135.012 368.786 136.018 368.786 136.689C368.786 137.472 368.228 137.696 367.559 137.36L356.292 130.874C355.623 130.539 355.065 129.532 355.065 128.861C355.065 128.19 355.623 127.855 356.292 128.19L367.559 134.676Z"
                fill="white" />
            <path opacity="0.4"
                d="M378.156 140.715C378.825 141.05 379.383 142.057 379.383 142.728C379.383 143.399 378.825 143.734 378.156 143.399L373.806 140.938C373.136 140.603 372.579 139.597 372.579 138.926C372.579 138.255 373.136 137.919 373.806 138.255L378.156 140.715Z"
                fill="white" />
            <path opacity="0.4"
                d="M390.872 159.166C391.541 159.502 392.099 160.508 392.099 161.179C392.099 161.85 391.541 162.186 390.872 161.85L373.694 151.898C373.025 151.562 372.467 150.556 372.467 149.885C372.467 149.214 373.025 148.878 373.694 149.214L390.872 159.166Z"
                fill="white" />
            <path opacity="0.4"
                d="M395.111 150.556C395.78 150.891 396.338 151.898 396.338 152.569C396.338 153.351 395.78 153.575 395.111 153.24L385.518 147.648C384.849 147.313 384.291 146.306 384.291 145.635C384.291 144.964 384.849 144.629 385.518 144.964L395.111 150.556Z"
                fill="white" />
            <path opacity="0.4"
                d="M417.755 163.639C418.424 163.975 418.982 164.981 418.982 165.652C418.982 166.323 418.424 166.659 417.755 166.323L404.369 158.607C403.7 158.272 403.142 157.265 403.142 156.594C403.142 155.811 403.7 155.588 404.369 155.923L417.755 163.639Z"
                fill="white" />
            <path opacity="0.4"
                d="M367.559 145.635C368.228 145.971 368.786 146.977 368.786 147.648C368.786 148.431 368.228 148.655 367.559 148.319L356.292 141.833C355.623 141.498 355.065 140.491 355.065 139.82C355.065 139.149 355.623 138.814 356.292 139.149L367.559 145.635Z"
                fill="white" />
            <path opacity="0.4"
                d="M337.664 117.902C337.999 118.126 338.334 118.685 338.334 119.132C338.334 119.58 337.999 119.692 337.664 119.468C337.33 119.244 336.995 118.685 336.995 118.35C336.995 117.902 337.218 117.679 337.664 117.902Z"
                fill="white" />
            <path opacity="0.4"
                d="M342.126 120.474C342.461 120.698 342.796 121.257 342.796 121.704C342.796 122.152 342.461 122.264 342.126 122.04C341.792 121.816 341.457 121.257 341.457 120.922C341.457 120.474 341.792 120.251 342.126 120.474Z"
                fill="white" />
            <path opacity="0.4"
                d="M346.588 123.046C346.923 123.27 347.258 123.829 347.258 124.276C347.258 124.724 346.923 124.835 346.588 124.612C346.254 124.388 345.919 123.829 345.919 123.494C345.919 123.046 346.254 122.823 346.588 123.046Z"
                fill="white" />
            <path opacity="0.4"
                d="M337.664 128.638C337.999 128.861 338.334 129.42 338.334 129.756C338.334 130.203 337.999 130.315 337.664 130.091C337.33 129.868 336.995 129.309 336.995 128.973C336.995 128.526 337.218 128.414 337.664 128.638Z"
                fill="white" />
            <path opacity="0.4"
                d="M342.126 131.21C342.461 131.433 342.796 131.992 342.796 132.328C342.796 132.775 342.461 132.887 342.126 132.663C341.792 132.44 341.457 131.881 341.457 131.545C341.457 131.21 341.68 130.986 342.126 131.21Z"
                fill="white" />
            <path opacity="0.4"
                d="M346.588 133.782C346.923 134.005 347.258 134.564 347.258 134.9C347.258 135.347 346.923 135.459 346.588 135.235C346.254 135.012 345.919 134.453 345.919 134.117C345.919 133.782 346.254 133.558 346.588 133.782Z"
                fill="white" />
            <path opacity="0.91"
                d="M272.186 160.396C300.185 144.07 346.03 144.07 374.252 160.396C384.848 166.547 391.541 174.151 394.218 182.091H398.569C395.892 173.48 388.753 165.317 377.375 158.607C347.48 141.274 298.958 141.274 269.175 158.607C258.02 165.093 251.104 173.145 248.315 181.532H252.666C255.454 173.816 261.924 166.435 272.186 160.396Z"
                fill="#FA7F1D" />
            <path opacity="0.91"
                d="M272.187 183.433C300.185 167.106 346.03 167.106 374.252 183.433C389.422 192.267 396.561 204.009 395.446 215.527H399.796C400.911 203.338 393.438 190.925 377.375 181.643C347.481 164.31 298.958 164.31 269.175 181.643C253.001 191.037 245.639 203.785 247.2 216.086H251.55C249.989 204.456 256.793 192.491 272.187 183.433Z"
                fill="#FA7F1D" />
            <path opacity="0.25"
                d="M371.162 260.992C371.205 245.737 349.915 233.31 323.609 233.236C297.304 233.161 275.944 245.467 275.901 260.721C275.858 275.976 297.148 288.403 323.453 288.478C349.759 288.553 371.119 276.247 371.162 260.992Z"
                fill="#3B4572" />
            <path
                d="M290.48 259.698C281.11 254.219 276.425 247.174 276.425 240.017V247.845C276.425 255.002 281.11 262.159 290.48 267.526C294.942 270.098 300.185 272.111 305.762 273.453V265.513C300.185 264.283 295.054 262.27 290.48 259.698Z"
                fill="#3B4572" />
            <path
                d="M305.762 265.625V273.565C307.1 273.901 308.327 274.124 309.666 274.46V266.52C308.327 266.184 306.989 265.961 305.762 265.625Z"
                fill="#4D5686" />
            <path
                d="M313.236 267.079C312.008 266.967 310.893 266.744 309.666 266.52V274.46C310.893 274.683 312.008 274.907 313.236 275.019C313.57 275.019 313.793 275.131 314.128 275.131V267.303C313.793 267.079 313.459 267.079 313.236 267.079Z"
                fill="#3B4572" />
            <path
                d="M357.854 259.698C349.042 264.842 337.776 267.526 326.175 267.75C323.721 267.862 321.378 267.75 318.924 267.638C317.251 267.526 315.578 267.414 313.905 267.191V275.019C315.578 275.242 317.251 275.354 318.924 275.466C321.267 275.578 323.721 275.69 326.175 275.578C337.664 275.242 349.042 272.559 357.743 267.526C367.001 262.159 371.574 255.114 371.574 248.068V240.241C371.686 247.286 367.112 254.331 357.854 259.698Z"
                fill="#4D5686" />
            <path
                d="M371.727 240.281C371.77 225.026 350.48 212.599 324.175 212.524C297.869 212.449 276.509 224.755 276.466 240.01C276.423 255.265 297.713 267.692 324.019 267.767C350.324 267.841 371.684 255.536 371.727 240.281Z"
                fill="#5B639D" />
            <path
                d="M305.762 235.208V259.363C307.101 259.698 308.328 259.922 309.666 260.258V236.103C308.328 235.879 306.989 235.544 305.762 235.208Z"
                fill="#CCCEE5" />
            <path
                d="M313.236 236.662C312.008 236.55 310.893 236.327 309.666 236.103V260.258C310.893 260.481 312.008 260.705 313.236 260.817C313.57 260.817 313.793 260.929 314.128 260.929V236.774C313.793 236.774 313.459 236.662 313.236 236.662Z"
                fill="#A3A6C8" />
            <path
                d="M357.854 229.282C349.042 234.426 337.776 237.109 326.175 237.333C323.721 237.445 321.378 237.333 318.924 237.221C317.251 237.109 315.578 236.998 313.905 236.774V260.929C315.578 261.152 317.251 261.264 318.924 261.376C321.267 261.488 323.721 261.599 326.175 261.488C337.664 261.152 349.042 258.468 357.743 253.436C367.001 248.068 371.574 241.023 371.574 233.978V209.936C371.686 216.981 367.112 223.914 357.854 229.282Z"
                fill="#CCCEE5" />
            <path
                d="M290.48 229.282C281.11 223.802 276.425 216.757 276.425 209.6V233.643C276.425 240.8 281.11 247.957 290.48 253.324C294.942 255.896 300.185 257.909 305.762 259.251V235.097C300.185 233.866 295.054 231.965 290.48 229.282Z"
                fill="#A3A6C8" />
            <path
                d="M371.666 209.925C371.709 194.67 350.419 182.243 324.114 182.168C297.808 182.094 276.448 194.399 276.405 209.654C276.362 224.909 297.652 237.336 323.958 237.411C350.263 237.485 371.623 225.18 371.666 209.925Z"
                fill="#F7F7F7" />
            <path
                d="M290.48 198.753C281.11 193.274 276.425 186.228 276.425 179.072V203.114C276.425 210.271 281.11 217.428 290.48 222.796C294.942 225.368 300.185 227.381 305.762 228.723V204.568C300.185 203.338 295.054 201.325 290.48 198.753Z"
                fill="#A3A6C8" />
            <path
                d="M305.762 204.68V228.834C307.101 229.17 308.328 229.394 309.666 229.729V205.574C308.328 205.239 306.989 205.015 305.762 204.68Z"
                fill="#CCCEE5" />
            <path
                d="M313.236 206.133C312.008 206.022 310.893 205.798 309.666 205.574V229.729C310.893 229.953 312.008 230.176 313.236 230.288C313.57 230.288 313.793 230.4 314.128 230.4V206.245C313.793 206.133 313.459 206.133 313.236 206.133Z"
                fill="#A3A6C8" />
            <path
                d="M357.854 198.753C349.042 203.897 337.776 206.581 326.175 206.805C323.721 206.916 321.378 206.805 318.924 206.693C317.251 206.581 315.578 206.469 313.905 206.245V230.288C315.578 230.512 317.251 230.624 318.924 230.735C321.267 230.847 323.721 230.959 326.175 230.847C337.664 230.512 349.042 227.828 357.743 222.796C367.001 217.428 371.574 210.383 371.574 203.338V179.295C371.686 186.34 367.112 193.385 357.854 198.753Z"
                fill="#CCCEE5" />
            <path
                d="M371.718 179.344C371.761 164.089 350.472 151.662 324.166 151.587C297.86 151.513 276.501 163.818 276.457 179.073C276.414 194.328 297.704 206.755 324.01 206.83C350.315 206.904 371.675 194.599 371.718 179.344Z"
                fill="#F7F7F7" />
            <path
                d="M290.48 184.998C281.11 179.519 276.425 172.474 276.425 165.317V173.145C276.425 180.302 281.11 187.458 290.48 192.826C294.942 195.398 300.185 197.411 305.762 198.753V190.813C300.185 189.583 295.054 187.682 290.48 184.998Z"
                fill="#3B4572" />
            <path
                d="M305.762 190.925V198.865C307.101 199.2 308.328 199.424 309.666 199.759V191.82C308.328 191.596 306.989 191.261 305.762 190.925Z"
                fill="#4D5686" />
            <path
                d="M313.236 192.379C312.008 192.267 310.893 192.043 309.666 191.82V199.759C310.893 199.983 312.008 200.207 313.236 200.319C313.57 200.319 313.793 200.43 314.128 200.43V192.602C313.793 192.491 313.459 192.379 313.236 192.379Z"
                fill="#3B4572" />
            <path
                d="M357.854 184.998C349.042 190.142 337.776 192.826 326.175 193.05C323.721 193.162 321.378 193.05 318.924 192.938C317.251 192.826 315.578 192.714 313.905 192.491V200.319C315.578 200.542 317.251 200.654 318.924 200.766C321.267 200.878 323.721 200.989 326.175 200.878C337.664 200.542 349.042 197.858 357.743 192.826C367.001 187.458 371.574 180.413 371.574 173.368V165.54C371.686 172.697 367.112 179.631 357.854 184.998Z"
                fill="#4D5686" />
            <path
                d="M371.664 165.643C371.707 150.389 350.417 137.961 324.112 137.887C297.806 137.812 276.446 150.118 276.403 165.373C276.36 180.627 297.65 193.054 323.956 193.129C350.261 193.204 371.621 180.898 371.664 165.643Z"
                fill="#5B639D" />
            <path
                d="M324.279 191.596C313.013 191.596 301.746 189.136 293.157 184.104C284.568 179.183 279.883 172.474 279.883 165.317C279.883 158.272 284.568 151.562 292.934 146.642C310.001 136.689 337.888 136.689 355.066 146.642C363.655 151.562 368.34 158.272 368.34 165.429C368.34 172.474 363.655 179.183 355.289 184.104C346.7 189.136 335.433 191.596 324.279 191.596ZM323.944 141.609C313.124 141.609 302.304 143.958 294.05 148.766C286.353 153.239 282.114 159.166 282.114 165.429C282.114 171.691 286.465 177.73 294.273 182.203C310.782 191.82 337.664 191.82 354.173 182.203C361.87 177.73 366.109 171.803 366.109 165.54C366.109 159.278 361.758 153.239 353.95 148.766C345.584 143.958 334.764 141.609 323.944 141.609Z"
                fill="#8B95C6" />
            <path
                d="M345.361 151.45C345.361 151.674 345.696 156.482 334.987 161.403L342.684 161.179C342.573 161.515 341.569 167.889 338.669 171.467C336.884 173.816 330.079 177.841 321.602 178.065V174.598C324.502 174.375 327.179 173.704 329.41 172.362C334.653 169.342 334.541 164.422 329.299 161.403C324.056 158.383 315.578 158.383 310.336 161.403C305.093 164.422 305.205 169.342 310.447 172.362C312.344 173.48 314.798 174.151 317.252 174.487V177.841C314.017 177.506 310.001 176.835 306.655 174.934C306.32 174.71 305.985 174.486 305.651 174.263C291.596 164.422 305.762 155.588 320.933 154.246C336.103 153.016 344.915 151.45 345.361 151.45Z"
                fill="#CCCEE5" />
            <path
                d="M329.198 166.835C329.206 163.809 325.018 161.343 319.843 161.329C314.668 161.314 310.466 163.755 310.458 166.782C310.449 169.808 314.637 172.273 319.812 172.288C324.987 172.302 329.189 169.861 329.198 166.835Z"
                fill="#CCCEE5" />
            <path
                d="M327.96 198.641C328.884 198.641 329.633 197.89 329.633 196.964C329.633 196.037 328.884 195.286 327.96 195.286C327.036 195.286 326.287 196.037 326.287 196.964C326.287 197.89 327.036 198.641 327.96 198.641Z"
                fill="#F7F7F7" />
            <path
                d="M323.163 198.641C324.088 198.641 324.837 197.89 324.837 196.964C324.837 196.037 324.088 195.286 323.163 195.286C322.239 195.286 321.49 196.037 321.49 196.964C321.49 197.89 322.239 198.641 323.163 198.641Z"
                fill="#F7F7F7" />
            <path
                d="M318.367 198.641C319.291 198.641 320.04 197.89 320.04 196.964C320.04 196.037 319.291 195.286 318.367 195.286C317.443 195.286 316.694 196.037 316.694 196.964C316.694 197.89 317.443 198.641 318.367 198.641Z"
                fill="#F7F7F7" />
            <path
                d="M327.96 273.341C328.884 273.341 329.633 272.59 329.633 271.664C329.633 270.738 328.884 269.987 327.96 269.987C327.036 269.987 326.287 270.738 326.287 271.664C326.287 272.59 327.036 273.341 327.96 273.341Z"
                fill="#F7F7F7" />
            <path
                d="M323.163 273.341C324.088 273.341 324.837 272.59 324.837 271.664C324.837 270.738 324.088 269.987 323.163 269.987C322.239 269.987 321.49 270.738 321.49 271.664C321.49 272.59 322.239 273.341 323.163 273.341Z"
                fill="#F7F7F7" />
            <path
                d="M318.367 273.341C319.291 273.341 320.04 272.59 320.04 271.664C320.04 270.738 319.291 269.987 318.367 269.987C317.443 269.987 316.694 270.738 316.694 271.664C316.694 272.59 317.443 273.341 318.367 273.341Z"
                fill="#F7F7F7" />
            <path
                d="M323.498 227.381C321.936 227.381 320.598 226.039 320.598 224.473V213.067C320.598 211.501 321.936 210.159 323.498 210.159C325.06 210.159 326.398 211.501 326.398 213.067V224.473C326.398 226.151 325.06 227.381 323.498 227.381Z"
                fill="#4D5686" />
            <path
                d="M323.498 225.927C322.829 225.927 322.271 225.368 322.271 224.697V212.843C322.271 212.172 322.829 211.613 323.498 211.613C324.167 211.613 324.725 212.172 324.725 212.843V224.697C324.613 225.368 324.167 225.927 323.498 225.927Z"
                fill="#F7F7F7" />
            <path
                d="M323.498 257.238C321.936 257.238 320.598 255.896 320.598 254.331V242.924C320.598 241.359 321.936 240.017 323.498 240.017C325.06 240.017 326.398 241.359 326.398 242.924V254.331C326.398 256.008 325.06 257.238 323.498 257.238Z"
                fill="#4D5686" />
            <path
                d="M323.498 255.785C322.829 255.785 322.271 255.225 322.271 254.554V242.701C322.271 242.03 322.829 241.471 323.498 241.471C324.167 241.471 324.725 242.03 324.725 242.701V254.554C324.613 255.225 324.167 255.785 323.498 255.785Z"
                fill="#F7F7F7" />
            <path opacity="0.91"
                d="M398.569 182.091H394.219C398.681 195.286 392.099 209.488 374.586 219.665C346.588 235.991 300.743 235.991 272.521 219.665C254.674 209.265 248.093 194.839 252.666 181.532H248.316C243.742 195.51 250.77 210.607 269.51 221.454C299.404 238.787 347.927 238.787 377.71 221.454C396.003 210.83 402.919 195.957 398.569 182.091Z"
                fill="#FA7F1D" />
            <path opacity="0.91"
                d="M395.446 215.639C394.442 225.48 387.526 235.208 374.586 242.813C346.588 259.139 300.743 259.139 272.521 242.813C259.805 235.432 252.778 225.927 251.439 216.31H247.2C248.539 226.598 255.901 236.774 269.51 244.602C299.404 261.935 347.927 261.935 377.71 244.602C391.43 236.55 398.792 226.262 399.796 215.751H395.446V215.639Z"
                fill="#FA7F1D" />
        </g>
        <rect x="74.5" y="74.5" width="496" height="357" rx="11.5" stroke="url(#paint3_linear_39_6663)" />
    </g>
    <defs>
        <filter id="filter0_d_39_6663" x="0" y="308" width="140" height="140" filterUnits="userSpaceOnUse"
            color-interpolation-filters="sRGB">
            <feFlood flood-opacity="0" result="BackgroundImageFix" />
            <feColorMatrix in="SourceAlpha" type="matrix" values="0 0 0 0 0 0 0 0 0 0 0 0 0 0 0 0 0 0 127 0"
                result="hardAlpha" />
            <feOffset dy="8" />
            <feGaussianBlur in="BackgroundImage" stdDeviation="11" />
            <feComposite in2="hardAlpha" operator="out" />
            <feColorMatrix type="matrix" values="0 0 0 0 0 0 0 0 0 0.0537501 0 0 0 0 0.5375 0 0 0 0.25 0" />
            <feBlend mode="normal" in2="BackgroundImageFix" result="effect1_dropShadow_39_6663" />
            <feBlend mode="normal" in="SourceGraphic" in2="effect1_dropShadow_39_6663" result="shape" />
        </filter>
        <filter id="filter1_b_39_6663" x="49" y="4" width="547" height="453" filterUnits="userSpaceOnUse"
            color-interpolation-filters="sRGB">
            <feFlood flood-opacity="0" result="BackgroundImageFix" />
            <feGaussianBlur in="BackgroundImage" stdDeviation="12.5" />
            <feComposite in2="SourceAlpha" operator="in" result="effect1_backgroundBlur_39_6663" />
            <feBlend mode="normal" in="SourceGraphic" in2="effect1_backgroundBlur_39_6663" result="shape" />
        </filter>
        <radialGradient id="paint0_radial_39_6663" cx="0" cy="0" r="1" gradientUnits="userSpaceOnUse"
            gradientTransform="translate(55.5455 341.636) rotate(79.2815) scale(77.7196)">
            <stop stop-color="#DBFBFF" />
            <stop offset="0.182292" stop-color="#77E5F4" />
            <stop offset="0.5625" stop-color="#3EC1D3" />
            <stop offset="1" stop-color="#0453CA" />
        </radialGradient>
        <linearGradient id="paint1_linear_39_6663" x1="504" y1="141" x2="674.12" y2="74.5469"
            gradientUnits="userSpaceOnUse">
            <stop stop-color="#D31B2E" />
            <stop offset="1" stop-color="#FFAF0F" />
        </linearGradient>
        <linearGradient id="paint2_linear_39_6663" x1="322.5" y1="74" x2="323.428" y2="431.999"
            gradientUnits="userSpaceOnUse">
            <stop stop-color="#CBC2FF" stop-opacity="0.29" />
            <stop offset="1" stop-color="white" stop-opacity="0.05" />
        </linearGradient>
        <linearGradient id="paint3_linear_39_6663" x1="74" y1="74" x2="619.587" y2="354.937"
            gradientUnits="userSpaceOnUse">
            <stop stop-color="white" stop-opacity="0.2" />
            <stop offset="1" stop-color="white" stop-opacity="0.05" />
        </linearGradient>
        <clipPath id="clip0_39_6663">
            <rect width="370" height="382" fill="white" transform="translate(139 29)" />
        </clipPath>
    </defs>
</svg>