<svg width="24" height="25" viewBox="0 0 24 25" fill="none" xmlns="http://www.w3.org/2000/svg">
<path d="M4.59597 15.2998C4.2538 13.0757 3.91163 10.8516 3.56946 8.62749C3.49358 8.13446 4.05456 7.79819 4.4536 8.0975C5.51965 8.89704 6.58564 9.69652 7.65169 10.4961C8.00269 10.7593 8.50275 10.6736 8.74609 10.3086L11.4086 6.31482C11.6899 5.89278 12.31 5.89278 12.5914 6.31482L15.2539 10.3086C15.4972 10.6736 15.9973 10.7592 16.3483 10.4961C17.4143 9.69652 18.4803 8.89704 19.5464 8.0975C19.9454 7.79819 20.5064 8.13446 20.4306 8.62749C20.0884 10.8516 19.7462 13.0757 19.4041 15.2998H4.59597Z" fill="#6E7587"/>
<path d="M4.59597 15.2998C4.2538 13.0757 3.91163 10.8516 3.56946 8.62749C3.49358 8.13446 4.05456 7.79819 4.4536 8.0975C5.51965 8.89704 6.58564 9.69652 7.65169 10.4961C8.00269 10.7593 8.50275 10.6736 8.74609 10.3086L11.4086 6.31482C11.6899 5.89278 12.31 5.89278 12.5914 6.31482L15.2539 10.3086C15.4972 10.6736 15.9973 10.7592 16.3483 10.4961C17.4143 9.69652 18.4803 8.89704 19.5464 8.0975C19.9454 7.79819 20.5064 8.13446 20.4306 8.62749C20.0884 10.8516 19.7462 13.0757 19.4041 15.2998H4.59597Z" fill="#FFAF0F"/>
<path d="M18.6322 19.0019H5.36822C4.94185 19.0019 4.59619 18.6562 4.59619 18.2299V16.5339H19.4043V18.2299C19.4042 18.6562 19.0586 19.0019 18.6322 19.0019Z" fill="#6E7587"/>
<path d="M18.6322 19.0019H5.36822C4.94185 19.0019 4.59619 18.6562 4.59619 18.2299V16.5339H19.4043V18.2299C19.4042 18.6562 19.0586 19.0019 18.6322 19.0019Z" fill="#FFAF0F"/>
</svg>
