<svg width="143" height="313" viewBox="0 0 143 313" fill="none" xmlns="http://www.w3.org/2000/svg">
<path d="M-13.5 276.676C52.8716 276.676 106.676 222.872 106.676 156.5C106.676 90.1284 52.8716 36.3235 -13.5 36.3235C-79.8716 36.3235 -133.676 90.1284 -133.676 156.5C-133.676 222.872 -79.8716 276.676 -13.5 276.676ZM142.5 156.5C142.5 242.656 72.6564 312.5 -13.5 312.5C-99.6564 312.5 -169.5 242.656 -169.5 156.5C-169.5 70.3436 -99.6564 0.5 -13.5 0.5C72.6564 0.5 142.5 70.3436 142.5 156.5Z" fill="url(#paint0_linear_39_6997)" stroke="url(#paint1_linear_39_6997)"/>
<defs>
<linearGradient id="paint0_linear_39_6997" x1="-13.5" y1="-1.29938e-05" x2="95.5" y2="142.5" gradientUnits="userSpaceOnUse">
<stop stop-color="#E6F9FF" stop-opacity="0.28"/>
<stop offset="1" stop-color="#E3E6FF" stop-opacity="0"/>
</linearGradient>
<linearGradient id="paint1_linear_39_6997" x1="-13.5" y1="0" x2="-13.5" y2="313" gradientUnits="userSpaceOnUse">
<stop stop-color="white" stop-opacity="0.41"/>
<stop offset="1" stop-color="white" stop-opacity="0"/>
</linearGradient>
</defs>
</svg>
