<svg width="278" height="200" viewBox="0 0 278 200" fill="none" xmlns="http://www.w3.org/2000/svg">
<g opacity="0.43">
<path d="M228.963 133.714C233.472 136.318 233.536 140.571 229.027 143.175L148.754 189.841C144.245 192.445 136.879 192.445 132.37 189.841L51.5894 143.238C47.0805 140.635 47.017 136.381 51.5259 133.778L131.798 87.1747C136.307 84.5715 143.674 84.5715 148.183 87.1747L228.963 133.714ZM220.771 147.619L228.646 143.048C232.964 140.508 232.964 136.445 228.582 133.905L220.644 129.333L204.894 138.476L220.771 147.619ZM188.7 166.286L204.45 157.143L188.637 148L172.887 157.143L188.7 166.286ZM156.629 184.889L172.379 175.746L156.566 166.603L140.816 175.746L156.629 184.889ZM124.114 128.952L139.864 119.81L124.05 110.667L108.301 119.81L124.114 128.952ZM156.439 147.619L172.188 138.476L156.312 129.333L140.562 138.476L156.439 147.619ZM92.0431 147.619L107.793 138.476L91.9796 129.333L76.23 138.476L92.0431 147.619ZM156.185 110.349L171.934 101.206L156.121 92.0636L140.372 101.206L156.185 110.349ZM124.304 166.286L140.054 157.143L124.241 148L108.491 157.143L124.304 166.286ZM188.51 128.952L204.259 119.81L188.446 110.667L172.696 119.81L188.51 128.952ZM140.054 101.016L155.804 91.8731L147.865 87.3017C143.483 84.762 136.434 84.762 132.116 87.3017L124.241 91.8731L140.054 101.016ZM148.437 189.651L156.312 185.079L140.499 175.937L124.749 185.079L132.687 189.651C137.006 192.191 144.118 192.191 148.437 189.651ZM107.983 119.683L123.733 110.54L107.92 101.397L92.1701 110.54L107.983 119.683ZM172.569 156.952L188.319 147.81L172.506 138.667L156.756 147.81L172.569 156.952ZM140.245 138.286L155.994 129.143L140.181 120L124.431 129.143L140.245 138.286ZM172.696 175.556L188.446 166.413L172.633 157.27L156.883 166.413L172.696 175.556ZM140.499 175.556L156.248 166.413L140.435 157.27L124.685 166.413L140.499 175.556ZM204.64 138.286L220.39 129.143L204.577 120L188.827 129.143L204.64 138.286ZM204.767 156.952L220.517 147.81L204.704 138.667L188.954 147.81L204.767 156.952ZM75.8489 138.286L91.5985 129.143L75.7854 120L60.0358 129.143L75.8489 138.286ZM108.174 156.952L123.923 147.81L108.047 138.667L92.2971 147.81L108.174 156.952ZM172.379 119.683L188.129 110.54L172.315 101.397L156.566 110.54L172.379 119.683ZM75.9759 156.952L91.7256 147.81L75.9124 138.667L60.1628 147.81L75.9759 156.952ZM108.301 175.556L124.05 166.413L108.237 157.27L92.4876 166.413L108.301 175.556ZM108.047 138.286L123.796 129.143L107.983 120L92.2336 129.143L108.047 138.286ZM140.181 119.683L155.931 110.54L140.118 101.397L124.368 110.54L140.181 119.683ZM172.442 138.286L188.192 129.143L172.379 120L156.629 129.143L172.442 138.286ZM140.372 156.952L156.121 147.81L140.308 138.667L124.558 147.81L140.372 156.952ZM59.8453 147.619L75.5949 138.476L59.7818 129.333L51.907 133.905C47.5885 136.445 47.5885 140.508 51.9705 143.048L59.8453 147.619ZM124.431 184.889L140.181 175.746L124.368 166.603L108.618 175.746L124.431 184.889ZM92.1066 166.286L107.856 157.143L92.0431 148L76.2935 157.143L92.1066 166.286ZM188.637 147.619L204.386 138.476L188.573 129.333L172.823 138.476L188.637 147.619ZM91.9161 128.952L107.666 119.81L91.8526 110.667L76.103 119.81L91.9161 128.952ZM123.987 110.349L139.737 101.206L123.923 92.0636L108.174 101.206L123.987 110.349ZM156.502 166.286L172.252 157.143L156.439 148L140.689 157.143L156.502 166.286ZM124.241 147.619L139.991 138.476L124.177 129.333L108.428 138.476L124.241 147.619ZM156.312 128.952L172.061 119.81L156.248 110.667L140.499 119.81L156.312 128.952Z" fill="#8DABFF"/>
</g>
<g opacity="0.29">
<path d="M228.963 138.095C233.472 140.698 233.536 144.952 229.027 147.556L148.754 194.159C144.245 196.762 136.879 196.762 132.37 194.159L51.5894 147.556C47.0805 144.952 47.017 140.698 51.5259 138.095L131.798 91.4286C136.307 88.8254 143.674 88.8254 148.183 91.4286L228.963 138.095ZM220.771 151.937L228.646 147.365C232.964 144.825 232.964 140.762 228.582 138.222L220.644 133.651L204.894 142.794L220.771 151.937ZM188.7 170.603L204.45 161.46L188.637 152.317L172.887 161.46L188.7 170.603ZM156.629 189.206L172.379 180.063L156.566 170.921L140.816 180.063L156.629 189.206ZM124.114 133.333L139.864 124.19L124.05 115.048L108.301 124.19L124.114 133.333ZM156.439 151.937L172.188 142.794L156.312 133.651L140.562 142.794L156.439 151.937ZM92.0431 151.937L107.793 142.794L91.9796 133.651L76.23 142.794L92.0431 151.937ZM156.185 114.667L171.934 105.524L156.121 96.381L140.372 105.524L156.185 114.667ZM124.304 170.603L140.054 161.46L124.241 152.317L108.491 161.46L124.304 170.603ZM188.51 133.333L204.259 124.19L188.446 115.048L172.696 124.19L188.51 133.333ZM140.054 105.333L155.804 96.1905L147.865 91.6191C143.483 89.0794 136.434 89.0794 132.116 91.6191L124.241 96.1905L140.054 105.333ZM148.437 193.968L156.312 189.397L140.499 180.254L124.749 189.397L132.687 193.968C137.006 196.508 144.118 196.508 148.437 193.968ZM107.983 124L123.733 114.857L107.92 105.714L92.1701 114.857L107.983 124ZM172.569 161.27L188.319 152.127L172.506 142.984L156.756 152.127L172.569 161.27ZM140.245 142.603L155.994 133.46L140.181 124.317L124.431 133.46L140.245 142.603ZM172.696 179.937L188.446 170.794L172.633 161.651L156.82 170.794L172.696 179.937ZM140.499 179.937L156.248 170.794L140.435 161.651L124.622 170.794L140.499 179.937ZM204.64 142.603L220.39 133.46L204.577 124.381L188.827 133.524L204.64 142.603ZM204.767 161.27L220.517 152.127L204.704 142.984L188.954 152.127L204.767 161.27ZM75.8489 142.603L91.5985 133.46L75.7854 124.317L60.0358 133.46L75.8489 142.603ZM108.174 161.27L123.923 152.127L108.047 142.984L92.2971 152.127L108.174 161.27ZM172.379 124L188.129 114.857L172.315 105.714L156.566 114.857L172.379 124ZM75.9759 161.27L91.7256 152.127L75.9124 142.984L60.1628 152.127L75.9759 161.27ZM108.301 179.937L124.05 170.794L108.237 161.651L92.4241 170.794L108.301 179.937ZM108.047 142.603L123.796 133.46L107.983 124.317L92.2336 133.46L108.047 142.603ZM140.181 124L155.931 114.857L140.118 105.714L124.368 114.857L140.181 124ZM172.442 142.603L188.192 133.46L172.379 124.317L156.629 133.46L172.442 142.603ZM140.372 161.27L156.121 152.127L140.308 142.984L124.558 152.127L140.372 161.27ZM59.8453 151.937L75.5949 142.794L59.7818 133.651L51.907 138.222C47.5885 140.762 47.5885 144.825 51.9705 147.365L59.8453 151.937ZM124.431 189.206L140.181 180.063L124.368 170.921L108.618 180.063L124.431 189.206ZM92.1066 170.603L107.856 161.46L92.0431 152.317L76.2935 161.46L92.1066 170.603ZM188.637 151.937L204.386 142.794L188.573 133.651L172.823 142.794L188.637 151.937ZM91.9161 133.333L107.666 124.19L91.8526 115.048L76.103 124.19L91.9161 133.333ZM123.987 114.667L139.737 105.524L123.923 96.381L108.174 105.524L123.987 114.667ZM156.502 170.603L172.252 161.46L156.439 152.317L140.689 161.46L156.502 170.603ZM124.241 151.937L139.991 142.794L124.177 133.651L108.428 142.794L124.241 151.937ZM156.312 133.333L172.061 124.19L156.248 115.048L140.499 124.19L156.312 133.333Z" fill="#8DABFF"/>
</g>
<path d="M211.372 39.1746C213.849 40.6349 215.881 44.127 215.881 46.9841V51.9365L215.69 122.603C215.69 125.46 213.658 126.603 211.181 125.206L149.898 89.8413C147.421 88.381 145.389 84.8889 145.389 82.0318L145.579 11.6191C145.579 8.76192 147.611 7.61906 150.088 9.01589L183.302 28.1905C184.509 28.8889 185.652 29.0159 186.477 28.508L188.383 27.4286C189.208 26.9207 190.351 27.0476 191.558 27.746L211.372 39.1746Z" fill="#3B4572"/>
<path opacity="0.25" d="M206.609 145.841C209.657 147.619 209.657 150.413 206.673 152.191L147.929 186.349C144.944 188.127 140.054 188.127 137.006 186.349L77.8814 152.191C74.8331 150.413 74.8331 147.619 77.8179 145.841L136.561 111.683C139.546 109.905 144.436 109.905 147.485 111.683L206.609 145.841Z" fill="#3B4572"/>
<path d="M137.006 176.635L77.8812 142.476C76.357 141.587 75.595 140.444 75.595 139.302V141.333C75.595 142.476 76.357 143.619 77.8812 144.508L137.006 178.667C138.212 179.365 139.673 179.746 141.197 179.937V177.905C139.61 177.714 138.149 177.333 137.006 176.635Z" fill="#3B4572"/>
<path d="M144.246 177.841V179.873C145.516 179.683 146.722 179.302 147.738 178.794V176.762C146.722 177.27 145.516 177.651 144.246 177.841Z" fill="#3B4572"/>
<path d="M206.673 142.476L147.929 176.635C147.866 176.635 147.802 176.698 147.739 176.698V178.73C147.802 178.73 147.866 178.667 147.866 178.667L206.609 144.508C208.133 143.619 208.832 142.476 208.832 141.397V139.365C208.895 140.508 208.133 141.651 206.673 142.476Z" fill="#4D5686"/>
<path d="M141.134 177.905V179.937C142.15 180.064 143.23 180 144.246 179.873V177.841C143.23 177.968 142.213 177.968 141.134 177.905Z" fill="#4D5686"/>
<path d="M206.609 136.19C209.657 137.968 209.657 140.762 206.673 142.54L147.929 176.698C144.944 178.476 140.054 178.476 137.006 176.698L77.8814 142.54C74.8331 140.762 74.8331 137.968 77.8179 136.19L136.561 102.032C139.546 100.254 144.436 100.254 147.485 102.032L206.609 136.19Z" fill="#5B639D"/>
<path d="M137.006 169.778L77.8812 135.619C76.357 134.73 75.595 133.587 75.595 132.444V137.079C75.595 138.222 76.357 139.365 77.8812 140.254L137.006 174.413C138.212 175.111 139.673 175.492 141.197 175.683V171.048C139.61 170.857 138.149 170.476 137.006 169.778Z" fill="#A3A6C8"/>
<path d="M141.134 171.048V175.683C142.15 175.81 143.23 175.746 144.246 175.619V170.984C143.23 171.111 142.213 171.111 141.134 171.048Z" fill="#CCCEE5"/>
<path d="M144.246 170.984V175.619C145.516 175.429 146.722 175.048 147.738 174.54V169.905C146.722 170.413 145.516 170.794 144.246 170.984Z" fill="#A3A6C8"/>
<path d="M206.673 135.683L147.929 169.841C147.866 169.841 147.802 169.905 147.739 169.905V174.54C147.802 174.54 147.866 174.476 147.866 174.476L206.609 140.318C208.133 139.429 208.832 138.286 208.832 137.206V132.572C208.895 133.651 208.133 134.794 206.673 135.683Z" fill="#CCCEE5"/>
<path d="M206.609 129.333C209.657 131.111 209.657 133.905 206.673 135.683L147.929 169.841C144.944 171.619 140.054 171.619 137.006 169.841L77.8814 135.683C74.8331 133.905 74.8331 131.111 77.8179 129.333L136.561 95.1746C139.546 93.3969 144.436 93.3969 147.485 95.1746L206.609 129.333Z" fill="#F7F7F7"/>
<path d="M217.532 123.873L214.738 125.524C215.563 125.079 216.071 124.063 216.071 122.603L218.866 120.952C218.802 122.413 218.294 123.365 217.532 123.873Z" fill="#4D5686"/>
<path d="M147.23 8.69839L150.025 7.0476C150.85 6.53966 151.993 6.66665 153.264 7.36506L150.469 9.01585C149.199 8.25395 148.056 8.19046 147.23 8.69839Z" fill="#5B639D"/>
<path d="M150.469 9.01578L153.264 7.36499L186.477 26.5396L183.683 28.1904L150.469 9.01578Z" fill="#5B639D"/>
<path d="M183.683 28.1905L186.477 26.5397C187.684 27.2381 188.827 27.3651 189.653 26.8571L186.858 28.5079C186.033 29.0159 184.89 28.8889 183.683 28.1905Z" fill="#5B639D"/>
<path d="M186.859 28.5079L189.653 26.8571L191.558 25.8412L188.764 27.4285L186.859 28.5079Z" fill="#1F81E0"/>
<path d="M188.764 27.4285L191.558 25.7777C192.384 25.2698 193.527 25.3968 194.733 26.0952L191.939 27.746C190.732 27.0475 189.589 26.9206 188.764 27.4285Z" fill="#5B639D"/>
<path d="M216.262 51.9364L219.057 50.2856L218.803 120.952L216.072 122.603L216.262 51.9364Z" fill="#4D5686"/>
<path d="M216.262 46.984L219.056 45.3333V50.2856L216.262 51.9364V46.984Z" fill="#4D5686"/>
<path d="M191.939 27.746L194.733 26.1587L214.548 37.5873L211.753 39.1746L191.939 27.746Z" fill="#5B639D"/>
<path d="M211.753 39.1745C214.23 40.6348 216.262 44.1269 216.262 46.984V51.9364L216.072 122.603C216.072 125.46 214.039 126.603 211.563 125.206L150.279 89.8412C147.802 88.3808 145.77 84.8888 145.77 82.0316L145.96 11.6189C145.96 8.7618 147.993 7.61894 150.469 9.01576L183.683 28.1904C184.89 28.8888 186.033 29.0158 186.859 28.5078L188.764 27.4285C189.589 26.9205 190.732 27.0475 191.939 27.7459L211.753 39.1745Z" fill="#3B4572"/>
<path d="M211.753 39.1746L214.547 37.5238C217.024 38.9841 219.056 42.4762 219.056 45.3333L216.262 46.9841C216.262 44.127 214.23 40.6349 211.753 39.1746Z" fill="#5B639D"/>
<path opacity="0.25" d="M165.139 115.746C165.901 116.19 165.901 116.952 165.139 117.397L163.806 118.159L144.627 129.27C143.865 129.714 142.594 129.714 141.832 129.27L122.653 118.222C121.891 117.778 121.891 117.016 122.653 116.571L141.769 105.46C142.531 105.016 143.801 105.016 144.563 105.46L154.978 111.492C155.359 111.683 155.867 111.809 156.375 111.809H157.518C158.026 111.809 158.535 111.936 158.916 112.127L165.139 115.746Z" fill="#3B4572"/>
<path d="M144.5 121.651C144.246 121.778 143.992 121.841 143.674 121.905V126.349C143.992 126.286 144.246 126.222 144.5 126.095L144.944 125.841V121.397L144.5 121.651Z" fill="#3B4572"/>
<path d="M165.012 109.778L163.679 110.54L144.944 121.397V125.841L163.679 114.984L165.012 114.222C165.393 113.968 165.584 113.714 165.584 113.397V108.889C165.584 109.27 165.393 109.524 165.012 109.778Z" fill="#4D5686"/>
<path d="M142.404 121.968V126.476C142.849 126.54 143.293 126.54 143.674 126.476V122.032C143.293 122.032 142.785 122.032 142.404 121.968Z" fill="#4D5686"/>
<path d="M141.705 121.651L122.526 110.54C122.145 110.286 121.955 110.032 121.955 109.714V114.222C121.955 114.54 122.145 114.794 122.526 115.048L141.705 126.159C141.896 126.286 142.15 126.349 142.404 126.413V121.905C142.15 121.905 141.896 121.778 141.705 121.651Z" fill="#3B4572"/>
<path d="M164.949 108.127C165.711 108.571 165.711 109.333 164.949 109.778L163.615 110.54L144.436 121.651C143.674 122.095 142.404 122.095 141.642 121.651L122.463 110.54C121.701 110.095 121.701 109.333 122.463 108.889L141.578 97.7778C142.34 97.3333 143.611 97.3333 144.373 97.7778L154.788 103.81C155.169 104 155.677 104.127 156.185 104.127H157.328C157.836 104.127 158.344 104.254 158.725 104.444L164.949 108.127Z" fill="#5B639D"/>
<path d="M144.69 101.778C144.944 101.905 144.944 102.159 144.69 102.349C144.436 102.476 143.992 102.476 143.738 102.349L140.626 100.508C140.372 100.381 140.372 100.127 140.626 99.9365C140.88 99.8096 141.324 99.8096 141.578 99.9365L144.69 101.778Z" fill="white"/>
<path d="M146.342 106.159C146.596 106.286 146.596 106.54 146.342 106.73C146.088 106.857 145.643 106.857 145.389 106.73L140.372 103.809C140.118 103.683 140.118 103.429 140.372 103.238C140.626 103.111 141.07 103.111 141.325 103.238L146.342 106.159Z" fill="white"/>
<path d="M148.183 103.746C148.437 103.873 148.437 104.127 148.183 104.317C147.929 104.444 147.484 104.444 147.23 104.317L145.833 103.492C145.579 103.365 145.579 103.111 145.833 102.921C146.087 102.794 146.532 102.794 146.786 102.921L148.183 103.746Z" fill="white"/>
<path d="M157.963 109.397C158.217 109.524 158.217 109.778 157.963 109.968C157.709 110.095 157.264 110.095 157.01 109.968L154.216 108.317C153.962 108.19 153.962 107.936 154.216 107.746C154.47 107.619 154.915 107.619 155.169 107.746L157.963 109.397Z" fill="white"/>
<path d="M150.152 108.381C150.406 108.508 150.406 108.762 150.152 108.952C149.898 109.079 149.453 109.079 149.199 108.952L147.611 108C147.357 107.873 147.357 107.619 147.611 107.429C147.865 107.302 148.31 107.302 148.564 107.429L150.152 108.381Z" fill="white"/>
<path d="M139.737 115.365C139.991 115.492 139.991 115.746 139.737 115.936C139.483 116.063 139.038 116.063 138.784 115.936L136.752 114.794C136.498 114.667 136.498 114.413 136.752 114.222C137.006 114.095 137.45 114.095 137.704 114.222L139.737 115.365Z" fill="white"/>
<path d="M143.356 117.46C143.61 117.587 143.61 117.841 143.356 118.032C143.102 118.159 142.658 118.159 142.404 118.032L141.197 117.333C140.943 117.206 140.943 116.952 141.197 116.762C141.451 116.635 141.896 116.635 142.15 116.762L143.356 117.46Z" fill="white"/>
<path opacity="0.25" d="M193.59 132.127C194.352 132.571 194.352 133.333 193.59 133.778L192.257 134.54L173.078 145.651C172.316 146.095 171.046 146.095 170.283 145.651L151.105 134.54C150.342 134.095 150.342 133.333 151.105 132.889L170.22 121.778C170.982 121.333 172.252 121.333 173.014 121.778L183.429 127.81C183.81 128 184.318 128.127 184.826 128.127H185.97C186.478 128.127 186.986 128.254 187.367 128.444L193.59 132.127Z" fill="#3B4572"/>
<path d="M172.951 138.032C172.697 138.159 172.443 138.222 172.125 138.286V142.73C172.443 142.667 172.697 142.603 172.951 142.476L173.395 142.222V137.778L172.951 138.032Z" fill="#3B4572"/>
<path d="M193.4 126.095L192.066 126.857L173.332 137.778V142.222L192.066 131.365L193.4 130.603C193.781 130.349 193.971 130.095 193.971 129.778V125.27C193.971 125.587 193.781 125.905 193.4 126.095Z" fill="#4D5686"/>
<path d="M170.792 138.286V142.794C171.236 142.857 171.681 142.857 172.062 142.794V138.349C171.681 138.349 171.236 138.349 170.792 138.286Z" fill="#4D5686"/>
<path d="M170.093 138.032L150.914 126.921C150.533 126.667 150.342 126.413 150.342 126.095V130.603C150.342 130.921 150.533 131.175 150.914 131.429L170.093 142.54C170.283 142.667 170.537 142.73 170.791 142.794V138.286C170.537 138.222 170.347 138.159 170.093 138.032Z" fill="#3B4572"/>
<path d="M193.4 124.508C194.162 124.952 194.162 125.714 193.4 126.159L192.066 126.921L172.887 138.032C172.125 138.476 170.855 138.476 170.093 138.032L150.914 126.921C150.152 126.476 150.152 125.714 150.914 125.27L170.029 114.159C170.791 113.714 172.062 113.714 172.824 114.159L183.239 120.191C183.62 120.381 184.128 120.508 184.636 120.508H185.779C186.287 120.508 186.795 120.635 187.176 120.825L193.4 124.508Z" fill="#5B639D"/>
<path d="M173.141 118.095C173.395 118.222 173.395 118.476 173.141 118.667C172.887 118.794 172.443 118.794 172.189 118.667L169.077 116.825C168.823 116.698 168.823 116.445 169.077 116.254C169.331 116.127 169.775 116.127 170.029 116.254L173.141 118.095Z" fill="white"/>
<path d="M174.729 122.54C174.983 122.667 174.983 122.921 174.729 123.111C174.475 123.238 174.03 123.238 173.776 123.111L168.759 120.191C168.505 120.064 168.505 119.81 168.759 119.619C169.013 119.492 169.458 119.492 169.712 119.619L174.729 122.54Z" fill="white"/>
<path d="M176.57 120.127C176.824 120.254 176.824 120.508 176.57 120.698C176.316 120.825 175.872 120.825 175.618 120.698L174.221 119.873C173.967 119.746 173.967 119.492 174.221 119.302C174.475 119.175 174.919 119.175 175.173 119.302L176.57 120.127Z" fill="white"/>
<path d="M186.35 125.778C186.604 125.905 186.604 126.159 186.35 126.349C186.096 126.476 185.652 126.476 185.398 126.349L182.603 124.698C182.349 124.571 182.349 124.317 182.603 124.127C182.857 124 183.302 124 183.556 124.127L186.35 125.778Z" fill="white"/>
<path d="M178.603 124.762C178.857 124.889 178.857 125.143 178.603 125.333C178.349 125.46 177.904 125.46 177.65 125.333L176.063 124.381C175.809 124.254 175.809 124 176.063 123.81C176.317 123.683 176.761 123.683 177.015 123.81L178.603 124.762Z" fill="white"/>
<path d="M168.124 131.746C168.378 131.873 168.378 132.127 168.124 132.317C167.87 132.444 167.425 132.444 167.171 132.317L165.139 131.175C164.885 131.048 164.885 130.794 165.139 130.603C165.393 130.476 165.838 130.476 166.092 130.603L168.124 131.746Z" fill="white"/>
<path d="M171.808 133.841C172.062 133.968 172.062 134.222 171.808 134.413C171.553 134.54 171.109 134.54 170.855 134.413L169.648 133.714C169.394 133.587 169.394 133.333 169.648 133.143C169.902 133.016 170.347 133.016 170.601 133.143L171.808 133.841Z" fill="white"/>
<path opacity="0.25" d="M135.545 133.333C136.307 133.778 136.307 134.54 135.545 134.984L134.212 135.746L115.033 146.857C114.271 147.302 113 147.302 112.238 146.857L93.0594 135.746C92.2973 135.302 92.2973 134.54 93.0594 134.095L112.175 122.984C112.937 122.54 114.207 122.54 114.969 122.984L125.384 129.016C125.765 129.206 126.273 129.333 126.781 129.333H127.924C128.433 129.333 128.941 129.46 129.322 129.651L135.545 133.333Z" fill="#3B4572"/>
<path d="M114.905 139.302C114.651 139.429 114.397 139.492 114.08 139.556V144C114.397 143.936 114.651 143.873 114.905 143.746L115.35 143.492V139.048L114.905 139.302Z" fill="#3B4572"/>
<path d="M135.418 127.365L134.085 128.127L115.35 139.048V143.492L134.085 132.635L135.418 131.873C135.799 131.619 135.99 131.365 135.99 131.048V126.54C135.99 126.857 135.799 127.175 135.418 127.365Z" fill="#4D5686"/>
<path d="M112.81 139.555V144.063C113.254 144.127 113.699 144.127 114.08 144.063V139.619C113.699 139.619 113.191 139.619 112.81 139.555Z" fill="#4D5686"/>
<path d="M112.111 139.301L92.9324 128.19C92.5514 127.936 92.3608 127.682 92.3608 127.365V131.873C92.3608 132.19 92.5514 132.444 92.9324 132.698L112.111 143.809C112.302 143.936 112.556 144 112.81 144.063V139.555C112.556 139.492 112.302 139.428 112.111 139.301Z" fill="#3B4572"/>
<path d="M135.355 125.714C136.117 126.159 136.117 126.921 135.355 127.365L134.021 128.127L114.842 139.238C114.08 139.683 112.81 139.683 112.048 139.238L92.8687 128.127C92.1066 127.683 92.1066 126.921 92.8687 126.476L111.984 115.365C112.746 114.921 114.016 114.921 114.778 115.365L125.194 121.397C125.575 121.587 126.083 121.714 126.591 121.714H127.734C128.242 121.714 128.75 121.841 129.131 122.032L135.355 125.714Z" fill="#5B639D"/>
<path d="M115.096 119.365C115.35 119.492 115.35 119.746 115.096 119.936C114.842 120.063 114.397 120.063 114.143 119.936L111.032 118.095C110.778 117.968 110.778 117.714 111.032 117.524C111.286 117.397 111.73 117.397 111.984 117.524L115.096 119.365Z" fill="white"/>
<path d="M116.747 123.81C117.001 123.937 117.001 124.191 116.747 124.381C116.493 124.508 116.049 124.508 115.795 124.381L110.778 121.46C110.524 121.333 110.524 121.079 110.778 120.889C111.032 120.762 111.476 120.762 111.73 120.889L116.747 123.81Z" fill="white"/>
<path d="M118.589 121.397C118.843 121.524 118.843 121.778 118.589 121.968C118.335 122.095 117.89 122.095 117.636 121.968L116.239 121.143C115.985 121.016 115.985 120.762 116.239 120.571C116.493 120.444 116.938 120.444 117.192 120.571L118.589 121.397Z" fill="white"/>
<path d="M128.369 126.984C128.623 127.111 128.623 127.365 128.369 127.555C128.115 127.682 127.67 127.682 127.416 127.555L124.622 125.905C124.368 125.778 124.368 125.524 124.622 125.333C124.876 125.206 125.321 125.206 125.575 125.333L128.369 126.984Z" fill="white"/>
<path d="M120.558 126.032C120.812 126.159 120.812 126.413 120.558 126.603C120.304 126.73 119.859 126.73 119.605 126.603L118.017 125.651C117.763 125.524 117.763 125.27 118.017 125.079C118.271 124.952 118.716 124.952 118.97 125.079L120.558 126.032Z" fill="white"/>
<path d="M110.143 133.016C110.397 133.143 110.397 133.397 110.143 133.587C109.889 133.714 109.444 133.714 109.19 133.587L107.158 132.444C106.904 132.317 106.904 132.063 107.158 131.873C107.412 131.746 107.856 131.746 108.11 131.873L110.143 133.016Z" fill="white"/>
<path d="M113.762 135.111C114.016 135.238 114.016 135.492 113.762 135.682C113.508 135.809 113.064 135.809 112.81 135.682L111.603 134.984C111.349 134.857 111.349 134.603 111.603 134.413C111.857 134.286 112.302 134.286 112.556 134.413L113.762 135.111Z" fill="white"/>
<path opacity="0.25" d="M163.996 149.714C164.758 150.159 164.758 150.921 163.996 151.365L162.663 152.127L143.484 163.238C142.721 163.683 141.451 163.683 140.689 163.238L121.51 152.127C120.748 151.683 120.748 150.921 121.51 150.476L140.626 139.365C141.388 138.921 142.658 138.921 143.42 139.365L153.835 145.397C154.216 145.587 154.724 145.714 155.232 145.714H156.375C156.883 145.714 157.391 145.841 157.773 146.032L163.996 149.714Z" fill="#3B4572"/>
<path d="M143.356 155.619C143.102 155.746 142.848 155.81 142.531 155.873V160.318C142.848 160.254 143.102 160.191 143.356 160.064L143.801 159.81V155.365L143.356 155.619Z" fill="#3B4572"/>
<path d="M163.806 143.746L162.472 144.508L143.738 155.365V159.81L162.472 148.952L163.806 148.191C164.187 147.937 164.377 147.683 164.377 147.365V142.857C164.377 143.175 164.187 143.492 163.806 143.746Z" fill="#4D5686"/>
<path d="M141.261 155.873V160.381C141.706 160.444 142.15 160.444 142.531 160.381V155.937C142.087 156 141.642 156 141.261 155.873Z" fill="#4D5686"/>
<path d="M140.499 155.619L121.32 144.508C120.939 144.254 120.748 144 120.748 143.682V148.19C120.748 148.508 120.939 148.762 121.32 149.016L140.499 160.127C140.689 160.254 140.943 160.317 141.197 160.381V155.873C140.943 155.809 140.753 155.746 140.499 155.619Z" fill="#3B4572"/>
<path d="M163.805 142.095C164.568 142.54 164.568 143.302 163.805 143.746L162.472 144.508L143.293 155.619C142.531 156.064 141.261 156.064 140.499 155.619L121.32 144.508C120.558 144.064 120.558 143.302 121.32 142.857L140.435 131.746C141.197 131.302 142.467 131.302 143.229 131.746L153.644 137.778C154.025 137.968 154.534 138.095 155.042 138.095H156.185C156.693 138.095 157.201 138.222 157.582 138.413L163.805 142.095Z" fill="#5B639D"/>
<path d="M143.547 135.683C143.801 135.81 143.801 136.064 143.547 136.254C143.293 136.381 142.849 136.381 142.595 136.254L139.483 134.413C139.229 134.286 139.229 134.032 139.483 133.841C139.737 133.714 140.181 133.714 140.435 133.841L143.547 135.683Z" fill="white"/>
<path d="M145.135 140.127C145.389 140.254 145.389 140.508 145.135 140.699C144.881 140.826 144.436 140.826 144.182 140.699L139.165 137.778C138.911 137.651 138.911 137.397 139.165 137.207C139.419 137.08 139.864 137.08 140.118 137.207L145.135 140.127Z" fill="white"/>
<path d="M147.04 137.714C147.294 137.841 147.294 138.095 147.04 138.286C146.786 138.413 146.341 138.413 146.087 138.286L144.69 137.46C144.436 137.334 144.436 137.08 144.69 136.889C144.944 136.762 145.389 136.762 145.643 136.889L147.04 137.714Z" fill="white"/>
<path d="M156.756 143.365C157.01 143.492 157.01 143.746 156.756 143.937C156.502 144.064 156.058 144.064 155.804 143.937L153.009 142.286C152.755 142.159 152.755 141.905 153.009 141.714C153.263 141.587 153.708 141.587 153.962 141.714L156.756 143.365Z" fill="white"/>
<path d="M149.009 142.349C149.263 142.476 149.263 142.73 149.009 142.921C148.755 143.048 148.31 143.048 148.056 142.921L146.468 141.968C146.214 141.841 146.214 141.587 146.468 141.397C146.722 141.27 147.167 141.27 147.421 141.397L149.009 142.349Z" fill="white"/>
<path d="M138.53 149.333C138.784 149.46 138.784 149.714 138.53 149.905C138.276 150.032 137.831 150.032 137.577 149.905L135.545 148.762C135.291 148.635 135.291 148.381 135.545 148.191C135.799 148.064 136.244 148.064 136.498 148.191L138.53 149.333Z" fill="white"/>
<path d="M142.213 151.429C142.467 151.556 142.467 151.81 142.213 152C141.959 152.127 141.515 152.127 141.261 152L140.054 151.302C139.8 151.175 139.8 150.921 140.054 150.73C140.308 150.603 140.753 150.603 141.007 150.73L142.213 151.429Z" fill="white"/>
<path d="M207.879 45.5874L205.656 46.6033L203.497 43.0477L207.879 45.5874Z" fill="#F7F7F7"/>
<path d="M155.677 26.7937C156.502 27.2381 157.137 28.4445 157.137 29.3968C157.137 30.3492 156.439 30.7302 155.613 30.2222C154.788 29.7778 154.153 28.5714 154.153 27.6826C154.216 26.7302 154.851 26.3492 155.677 26.7937Z" fill="#7AD367"/>
<path d="M155.677 38.6031C156.502 39.0476 157.137 40.2539 157.137 41.2063C157.137 42.1587 156.439 42.5396 155.613 42.0317C154.788 41.5872 154.153 40.3809 154.153 39.492C154.153 38.5396 154.851 38.1587 155.677 38.6031Z" fill="#FA7F1D"/>
<path d="M155.613 50.4762C156.439 50.9206 157.074 52.127 157.074 53.0158C157.074 53.9682 156.375 54.3492 155.55 53.8412C154.724 53.3968 154.089 52.1904 154.089 51.2381C154.153 50.3492 154.788 49.9682 155.613 50.4762Z" fill="#1EBBF9"/>
<path d="M158.217 76.8888V84.5079L155.232 82.7936L155.296 75.1746L158.217 76.8888Z" fill="#7AD367"/>
<path d="M162.853 70.4762V87.1747L159.868 85.4604L159.932 68.762L162.853 70.4762Z" fill="#7AD367"/>
<path d="M167.489 79.619L167.425 89.7777L164.441 88.0634L164.504 77.9047L167.489 79.619Z" fill="#F7F7F7"/>
<path d="M172.061 74.4763V92.4445L169.077 90.7302L169.14 72.762L172.061 74.4763Z" fill="#1EBBF9"/>
<path d="M176.634 86.4127V95.1111L173.713 93.3968V84.6984L176.634 86.4127Z" fill="#F7F7F7"/>
<path d="M181.27 91.3651V97.7778L178.285 96.0636V89.7144L181.27 91.3651Z" fill="#F7F7F7"/>
<path d="M185.906 87.3651L185.842 100.444L182.921 98.7301V85.6508L185.906 87.3651Z" fill="#1EBBF9"/>
<path d="M190.542 82.6032L190.478 103.111L187.493 101.397L187.557 80.8889L190.542 82.6032Z" fill="#7AD367"/>
<path d="M195.114 97.0158L195.051 105.778L192.13 104.063V95.3015L195.114 97.0158Z" fill="#7AD367"/>
<path d="M199.75 90.4126L199.687 108.381L196.702 106.73L196.766 88.6984L199.75 90.4126Z" fill="#1EBBF9"/>
<path d="M204.323 97.4604L204.259 111.048L201.338 109.333V95.7461L204.323 97.4604Z" fill="#1EBBF9"/>
<path d="M168.314 35.2381C168.632 35.4285 168.822 35.8095 168.822 36.127C168.822 36.4444 168.568 36.5714 168.314 36.4444L161.773 32.6349C161.456 32.4444 161.265 32.0635 161.265 31.746C161.265 31.4285 161.519 31.3016 161.773 31.4285L168.314 35.2381Z" fill="white"/>
<path d="M173.522 38.2222C173.84 38.4127 174.03 38.7936 174.03 39.1111C174.03 39.4286 173.776 39.5556 173.522 39.4286L171.935 38.5397C171.617 38.3492 171.427 37.9682 171.427 37.6508C171.427 37.3333 171.681 37.2063 171.935 37.3333L173.522 38.2222Z" fill="white"/>
<path d="M187.303 46.1588C187.621 46.3492 187.811 46.7302 187.811 47.0477C187.811 47.3651 187.557 47.4921 187.303 47.3651L177.714 41.8413C177.396 41.6508 177.206 41.2699 177.206 40.9524C177.206 40.635 177.46 40.508 177.714 40.635L187.303 46.1588Z" fill="white"/>
<path d="M163.806 44.4444C164.123 44.6349 164.314 45.0159 164.314 45.3333C164.314 45.6508 164.06 45.7778 163.806 45.6508L161.011 44.0635C160.694 43.873 160.503 43.4921 160.503 43.1746C160.503 42.8571 160.757 42.7301 161.011 42.8571L163.806 44.4444Z" fill="white"/>
<path d="M173.077 49.7778C173.395 49.9682 173.585 50.3492 173.585 50.6666C173.585 50.9841 173.331 51.1111 173.077 50.9841L166.346 47.1111C166.028 46.9206 165.838 46.5397 165.838 46.2222C165.838 45.9047 166.092 45.7778 166.346 45.9047L173.077 49.7778Z" fill="white"/>
<path d="M189.335 59.1746C189.653 59.3651 189.843 59.7461 189.843 60.0635C189.843 60.381 189.589 60.508 189.335 60.381L183.239 56.8889C182.921 56.6984 182.73 56.3175 182.73 56C182.73 55.6826 182.984 55.5556 183.239 55.6826L189.335 59.1746Z" fill="white"/>
<path d="M198.607 64.508C198.925 64.6985 199.115 65.0794 199.115 65.3969C199.115 65.7144 198.861 65.8413 198.607 65.7144L192.51 62.2223C192.193 62.0318 192.002 61.6509 192.002 61.3334C192.002 61.0159 192.256 60.889 192.51 61.0159L198.607 64.508Z" fill="white"/>
<path d="M162.853 55.746C163.17 55.9365 163.361 56.3174 163.361 56.6349C163.361 56.9524 163.107 57.0793 162.853 56.9524L160.567 55.619C160.249 55.4285 160.059 55.0476 160.059 54.7301C160.059 54.4127 160.313 54.2857 160.567 54.4127L162.853 55.746Z" fill="white"/>
<path d="M170.918 60.3809C171.236 60.5714 171.426 60.9523 171.426 61.2698C171.426 61.5873 171.172 61.7143 170.918 61.5873L165.901 58.6666C165.584 58.4762 165.393 58.0952 165.393 57.7777C165.393 57.4603 165.647 57.3333 165.901 57.4603L170.918 60.3809Z" fill="white"/>
<path d="M185.398 68.7619C185.715 68.9524 185.906 69.3334 185.906 69.6508C185.906 69.9683 185.652 70.0953 185.398 69.9683L175.872 64.4445C175.554 64.254 175.364 63.873 175.364 63.5556C175.364 63.2381 175.618 63.1111 175.872 63.2381L185.398 68.7619Z" fill="white"/>
<path d="M197.718 75.8731C198.036 76.0636 198.226 76.4445 198.226 76.762C198.226 77.0795 197.972 77.2064 197.718 77.0795L194.416 75.1747C194.098 74.9842 193.908 74.6033 193.908 74.2858C193.908 73.9683 194.162 73.8414 194.416 73.9683L197.718 75.8731Z" fill="white"/>
<path d="M201.846 44.889C204.323 46.3493 206.355 49.8414 206.355 52.6985V57.6509L206.164 128.318C206.164 131.175 204.132 132.318 201.655 130.921L140.372 95.5557C137.895 94.0953 135.863 90.6033 135.863 87.7461L135.99 17.2699C135.99 14.4128 138.022 13.2699 140.499 14.6668L173.712 33.8414C174.919 34.5398 176.062 34.6668 176.888 34.1588L178.793 33.0795C179.619 32.5715 180.762 32.6985 181.968 33.3969L201.846 44.889Z" fill="url(#paint0_linear_39_7023)"/>
<g opacity="0.4">
<path d="M192.257 50.6032C194.733 52.0635 196.765 55.5556 196.765 58.4127V63.3651L196.575 133.968C196.575 136.825 194.543 137.968 192.066 136.571L130.782 101.206C128.305 99.7461 126.273 96.254 126.273 93.3969L126.464 22.9842C126.464 20.127 128.496 18.9842 130.973 20.381L164.187 39.5556C165.393 40.254 166.536 40.381 167.362 39.8731L169.267 38.7937C170.093 38.2858 171.236 38.4127 172.442 39.1112L192.257 50.6032Z" fill="url(#paint1_linear_39_7023)"/>
</g>
<g opacity="0.21">
<path d="M182.73 56.3175C185.207 57.7778 187.239 61.2698 187.239 64.127V69.0794L186.985 139.683C186.985 142.54 184.953 143.683 182.476 142.286L121.193 106.921C118.716 105.46 116.684 101.968 116.684 99.1111L116.874 28.6984C116.874 25.8413 118.906 24.6984 121.383 26.0952L154.597 45.2698C155.804 45.9683 156.947 46.0952 157.772 45.5873L159.678 44.5079C160.503 44 161.646 44.127 162.853 44.8254L182.73 56.3175Z" fill="url(#paint2_linear_39_7023)"/>
</g>
<path d="M163.805 137.968C164.568 138.413 164.568 139.175 163.805 139.619L162.472 140.381L143.293 151.492C142.531 151.937 141.261 151.937 140.499 151.492L121.32 140.381C120.558 139.937 120.558 139.175 121.32 138.73L140.435 127.619C141.197 127.175 142.467 127.175 143.229 127.619L153.644 133.651C154.025 133.841 154.534 133.968 155.042 133.968H156.185C156.693 133.968 157.201 134.095 157.582 134.286L163.805 137.968Z" fill="url(#paint3_linear_39_7023)"/>
<path d="M163.805 132.889C164.568 133.333 164.568 134.095 163.805 134.54L162.472 135.302L143.293 146.413C142.531 146.857 141.261 146.857 140.499 146.413L121.32 135.302C120.558 134.857 120.558 134.095 121.32 133.651L140.435 122.54C141.197 122.095 142.467 122.095 143.229 122.54L153.644 128.571C154.025 128.762 154.534 128.889 155.042 128.889H156.185C156.693 128.889 157.201 129.016 157.582 129.206L163.805 132.889Z" fill="url(#paint4_linear_39_7023)"/>
<path d="M163.805 127.746C164.568 128.19 164.568 128.952 163.805 129.397L162.472 130.159L143.293 141.27C142.531 141.714 141.261 141.714 140.499 141.27L121.32 130.159C120.558 129.714 120.558 128.952 121.32 128.508L140.435 117.397C141.197 116.952 142.467 116.952 143.229 117.397L153.644 123.429C154.025 123.619 154.534 123.746 155.042 123.746H156.185C156.693 123.746 157.201 123.873 157.582 124.063L163.805 127.746Z" fill="url(#paint5_linear_39_7023)"/>
<path d="M233.408 96.8889V98.3492L229.725 100.444V98.9841L233.408 96.8889Z" fill="#8DABFF"/>
<path d="M233.408 94.5397V96L229.725 98.0952V96.6349L233.408 94.5397Z" fill="#8DABFF"/>
<path d="M228.328 99.8096V101.27L226.486 102.349V100.889L228.328 99.8096Z" fill="#8DABFF"/>
<path d="M228.328 97.4603V98.9206L226.486 100V98.4762L228.328 97.4603Z" fill="#8DABFF"/>
<path d="M236.52 95.1112V96.5715L234.679 97.5874V96.1271L236.52 95.1112Z" fill="#8DABFF"/>
<path d="M236.52 92.762V94.2223L234.679 95.2381V93.7778L236.52 92.762Z" fill="#8DABFF"/>
<path d="M45.6834 56.762V58.2223L42 60.381V58.9207L45.6834 56.762Z" fill="#8DABFF"/>
<path d="M45.6834 54.2223V55.6826L42 57.8413V56.381L45.6834 54.2223Z" fill="#8DABFF"/>
<path d="M47.9062 52.9524V54.4127L46.3821 55.3016V53.8413L47.9062 52.9524Z" fill="#8DABFF"/>
<path d="M50.8274 51.238V52.7618L49.7478 53.3333V51.873L50.8274 51.238Z" fill="#8DABFF"/>
<path d="M52.6692 50.1587V51.6825L51.6531 52.2539V50.7936L52.6692 50.1587Z" fill="#8DABFF"/>
<path d="M47.9062 55.4921V56.9524L46.3821 57.8413V56.381L47.9062 55.4921Z" fill="#8DABFF"/>
<path d="M50.8274 53.7778V55.3016L49.7478 55.8731V54.4128L50.8274 53.7778Z" fill="#8DABFF"/>
<path d="M52.6692 52.6985V54.2223L51.6531 54.7937V53.3334L52.6692 52.6985Z" fill="#8DABFF"/>
<path d="M167.934 5.2699V6.73022L169.902 7.87307V6.41275L167.934 5.2699Z" fill="#8DABFF"/>
<path d="M167.934 7.6825V9.14281L169.902 10.2857V8.82535L167.934 7.6825Z" fill="#8DABFF"/>
<path d="M164.822 3.49207V4.95238L166.79 6.09524V4.57143L164.822 3.49207Z" fill="#8DABFF"/>
<path d="M164.822 5.90479V7.3651L166.79 8.50796V7.04764L164.822 5.90479Z" fill="#8DABFF"/>
<path d="M158.789 0V1.46032L163.679 4.25397V2.79365L158.789 0Z" fill="#8DABFF"/>
<path d="M158.789 2.4126V3.87292L163.679 6.73006V5.20625L158.789 2.4126Z" fill="#8DABFF"/>
<path d="M119.605 196.381V197.841L123.288 200V198.476L119.605 196.381Z" fill="#8DABFF"/>
<path d="M119.668 193.841L119.605 195.302L123.288 197.46V195.937L119.668 193.841Z" fill="#8DABFF"/>
<path d="M117.446 192.571V194.032L118.906 194.921V193.46L117.446 192.571Z" fill="#8DABFF"/>
<path d="M114.524 190.857L114.461 192.317L115.541 192.952V191.492L114.524 190.857Z" fill="#8DABFF"/>
<path d="M112.619 189.778V191.238L113.699 191.873V190.413L112.619 189.778Z" fill="#8DABFF"/>
<path d="M117.446 195.111L117.382 196.571L118.906 197.46V196L117.446 195.111Z" fill="#8DABFF"/>
<path d="M114.461 193.397V194.857L115.541 195.492V194.032L114.461 193.397Z" fill="#8DABFF"/>
<path d="M112.619 192.318V193.778L113.699 194.413V192.952L112.619 192.318Z" fill="#8DABFF"/>
<g opacity="0.47">
<path opacity="0.4" d="M46.0645 64.4445V68.5714L42.4446 70.6667V66.5397L46.0645 64.4445Z" fill="#7BAEFF"/>
<path d="M52.6692 60.6349V64.7619L49.0493 66.8571V62.7301L52.6692 60.6349Z" fill="#7BAEFF"/>
<path opacity="0.2" d="M59.2739 56.762V60.9524L55.6541 63.0477V58.8572L59.2739 56.762Z" fill="#7BAEFF"/>
<path opacity="0.6" d="M65.8784 52.9523V57.1427L62.2585 59.238V55.0475L65.8784 52.9523Z" fill="#7BAEFF"/>
<path d="M72.4832 49.1428L72.5467 53.3333L68.8633 55.4285V51.2381L72.4832 49.1428Z" fill="#7BAEFF"/>
<path d="M79.1514 45.3334V49.5238L75.468 51.6191V47.4286L79.1514 45.3334Z" fill="#7BAEFF"/>
<path opacity="0.4" d="M85.7561 41.5238V45.7143L82.1363 47.8095L82.0728 43.619L85.7561 41.5238Z" fill="#7BAEFF"/>
<path opacity="0.4" d="M92.3609 37.7142V41.9047L88.741 43.9999L88.6775 39.8095L92.3609 37.7142Z" fill="#7BAEFF"/>
<path opacity="0.6" d="M98.9653 33.9048V38.0953L95.3455 40.1905V36L98.9653 33.9048Z" fill="#7BAEFF"/>
<path d="M105.57 30.0952V34.2222L101.95 36.3174V32.1905L105.57 30.0952Z" fill="#7BAEFF"/>
<path d="M112.175 26.2856V30.4126L108.555 32.5079V28.3809L112.175 26.2856Z" fill="#7BAEFF"/>
<path opacity="0.6" d="M46.0645 71.619V75.8095L42.4446 77.9047V73.7143L46.0645 71.619Z" fill="#7BAEFF"/>
<path opacity="0.6" d="M52.6692 67.8096L52.7327 72L49.0493 74.0953V69.9048L52.6692 67.8096Z" fill="#7BAEFF"/>
<path d="M59.2739 64L59.3374 68.1905L55.6541 70.2857V66.0952L59.2739 64Z" fill="#7BAEFF"/>
<path d="M65.9419 60.1904V64.3809L62.3221 66.4761L62.2585 62.2857L65.9419 60.1904Z" fill="#7BAEFF"/>
<path d="M72.5467 56.381V60.5715L68.9268 62.6667L68.8633 58.4762L72.5467 56.381Z" fill="#7BAEFF"/>
<path opacity="0.4" d="M79.1514 52.5714V56.7619L75.5315 58.8571V54.6666L79.1514 52.5714Z" fill="#7BAEFF"/>
<path d="M85.7561 48.762V52.8889L82.1362 54.9842V50.8572L85.7561 48.762Z" fill="#7BAEFF"/>
<g opacity="0.6">
<path d="M92.3606 44.9523V49.0793L88.7407 51.1745V47.0475L92.3606 44.9523Z" fill="#7BAEFF"/>
</g>
<path d="M98.9653 41.0793V45.2698L95.3455 47.3651V43.1746L98.9653 41.0793Z" fill="#7BAEFF"/>
<path d="M105.57 37.2698V41.4603L101.95 43.5555V39.365L105.57 37.2698Z" fill="#7BAEFF"/>
<path opacity="0.2" d="M112.175 33.4603L112.238 37.6508L108.555 39.746V35.5556L112.175 33.4603Z" fill="#7BAEFF"/>
<path d="M46.128 78.8571V83.0475L42.4446 85.1428V80.9523L46.128 78.8571Z" fill="#7BAEFF"/>
<path opacity="0.2" d="M52.7327 75.0476V79.2381L49.1128 81.3333L49.0493 77.1428L52.7327 75.0476Z" fill="#7BAEFF"/>
<path d="M59.3372 71.2382V75.4286L55.7173 77.5239V73.3334L59.3372 71.2382Z" fill="#7BAEFF"/>
<path opacity="0.4" d="M65.9419 67.4285V71.5555L62.322 73.6507V69.5237L65.9419 67.4285Z" fill="#7BAEFF"/>
<path opacity="0.4" d="M72.5466 63.5555V67.746L68.9268 69.8413V65.7143L72.5466 63.5555Z" fill="#7BAEFF"/>
<path d="M79.1514 59.746V63.9364L75.5315 66.0317V61.8412L79.1514 59.746Z" fill="#7BAEFF"/>
<path opacity="0.6" d="M85.7561 55.9365V60.127L82.1362 62.2222V58.0318L85.7561 55.9365Z" fill="#7BAEFF"/>
<path d="M92.3606 52.127L92.4241 56.3174L88.7407 58.4127V54.2222L92.3606 52.127Z" fill="#7BAEFF"/>
<path d="M98.9653 48.3174L99.0288 52.5079L95.3455 54.6031V50.4126L98.9653 48.3174Z" fill="#7BAEFF"/>
<path d="M105.634 44.5079V48.6984L102.014 50.7936L101.95 46.6032L105.634 44.5079Z" fill="#7BAEFF"/>
<path d="M112.238 40.6984V44.8888L108.618 46.9841V42.7936L112.238 40.6984Z" fill="#7BAEFF"/>
<path d="M46.1279 86.0952V90.2857L42.5081 92.3809V88.1904L46.1279 86.0952Z" fill="#7BAEFF"/>
<path opacity="0.2" d="M52.7327 82.2856V86.4126L49.1128 88.5079V84.3809L52.7327 82.2856Z" fill="#7BAEFF"/>
<path opacity="0.4" d="M59.3372 78.4127V82.6032L55.7173 84.6984V80.508L59.3372 78.4127Z" fill="#7BAEFF"/>
<path d="M65.9419 74.6031V78.7936L62.322 80.8889V76.6984L65.9419 74.6031Z" fill="#7BAEFF"/>
<path opacity="0.2" d="M72.5466 70.7937L72.6101 74.9842L68.9268 77.0794V72.8889L72.5466 70.7937Z" fill="#7BAEFF"/>
<path d="M79.1514 66.9841L79.2149 71.1746L75.5315 73.2698V69.0794L79.1514 66.9841Z" fill="#7BAEFF"/>
<path d="M85.8196 63.1746V67.365L82.1997 69.4603L82.1362 65.2698L85.8196 63.1746Z" fill="#7BAEFF"/>
<path d="M92.4241 59.3651V63.5556L88.8042 65.6508L88.7407 61.4604L92.4241 59.3651Z" fill="#7BAEFF"/>
<path d="M99.0288 55.5554V59.7459L95.4089 61.8411V57.6507L99.0288 55.5554Z" fill="#7BAEFF"/>
<path opacity="0.2" d="M105.634 51.746V55.873L102.014 57.9682V53.8412L105.634 51.746Z" fill="#7BAEFF"/>
<path opacity="0.2" d="M112.238 47.8729V52.0634L108.618 54.1586V50.0317L112.238 47.8729Z" fill="#7BAEFF"/>
<path opacity="0.4" d="M46.1279 93.2699V97.4604L42.5081 99.5556V95.3651L46.1279 93.2699Z" fill="#7BAEFF"/>
<path d="M52.7327 89.4602V93.6507L49.1128 95.7459V91.5554L52.7327 89.4602Z" fill="#7BAEFF"/>
<path d="M59.3372 85.6508L59.4007 89.8412L55.7173 91.9365V87.746L59.3372 85.6508Z" fill="#7BAEFF"/>
<path d="M66.0054 81.8413V86.0318L62.3855 88.127L62.322 83.9365L66.0054 81.8413Z" fill="#7BAEFF"/>
<path d="M72.6101 78.0317V82.2222L68.9903 84.3175L68.9268 80.127L72.6101 78.0317Z" fill="#7BAEFF"/>
<path d="M79.2148 74.2222V78.3492L75.595 80.5079V76.3174L79.2148 74.2222Z" fill="#7BAEFF"/>
<path d="M85.8193 70.4127V74.5397L82.1995 76.6349V72.508L85.8193 70.4127Z" fill="#7BAEFF"/>
<path opacity="0.2" d="M92.4241 66.6031V70.7301L88.8042 72.8254V68.6984L92.4241 66.6031Z" fill="#7BAEFF"/>
<path opacity="0.6" d="M99.0288 62.7301V66.9206L95.4089 69.0158V64.8253L99.0288 62.7301Z" fill="#7BAEFF"/>
<path d="M105.634 58.9207V63.1111L102.014 65.2064V61.0159L105.634 58.9207Z" fill="#7BAEFF"/>
<path opacity="0.6" d="M112.238 55.1111L112.302 59.3016L108.618 61.3968V57.2063L112.238 55.1111Z" fill="#7BAEFF"/>
<path opacity="0.4" d="M46.1279 100.508L46.1914 104.698L42.5081 106.794V102.603L46.1279 100.508Z" fill="#7BAEFF"/>
<path opacity="0.4" d="M52.7962 96.6984V100.889L49.1763 102.984L49.1128 98.7936L52.7962 96.6984Z" fill="#7BAEFF"/>
<path d="M59.4006 92.8889V97.0794L55.7808 99.1746V94.9842L59.4006 92.8889Z" fill="#7BAEFF"/>
<path d="M66.0054 89.0793V93.2063L62.3855 95.3016V91.1746L66.0054 89.0793Z" fill="#7BAEFF"/>
<path opacity="0.4" d="M72.6101 85.2699V89.3969L68.9902 91.4921V87.3651L72.6101 85.2699Z" fill="#7BAEFF"/>
<path opacity="0.4" d="M79.2148 81.3969V85.5873L75.595 87.6826V83.5556L79.2148 81.3969Z" fill="#7BAEFF"/>
<path opacity="0.4" d="M85.8193 77.5873V81.7778L82.1995 83.873V79.6825L85.8193 77.5873Z" fill="#7BAEFF"/>
<path d="M92.4241 73.7777L92.4876 77.9682L88.8042 80.0634V75.8729L92.4241 73.7777Z" fill="#7BAEFF"/>
<path d="M99.0288 69.9683L99.0923 74.1587L95.4089 76.254V72.0635L99.0288 69.9683Z" fill="#7BAEFF"/>
<path d="M105.697 66.1588V70.3493L102.077 72.4445L102.014 68.2541L105.697 66.1588Z" fill="#7BAEFF"/>
<path d="M112.302 62.3491V66.5396L108.682 68.6348V64.4444L112.302 62.3491Z" fill="#7BAEFF"/>
<path d="M46.1914 107.746V111.873L42.5715 114.032V109.841L46.1914 107.746Z" fill="#7BAEFF"/>
<path opacity="0.2" d="M52.7961 103.937V108.064L49.1763 110.159V106.032L52.7961 103.937Z" fill="#7BAEFF"/>
<path d="M59.4006 100.063V104.254L55.7808 106.349V102.159L59.4006 100.063Z" fill="#7BAEFF"/>
<path d="M66.0054 96.2539V100.444L62.3855 102.54V98.3491L66.0054 96.2539Z" fill="#7BAEFF"/>
<path d="M72.6101 92.4445L72.6736 96.6349L68.9902 98.7302V94.5397L72.6101 92.4445Z" fill="#7BAEFF"/>
<path d="M79.2148 88.6349L79.2784 92.8254L75.595 94.9206V90.7301L79.2148 88.6349Z" fill="#7BAEFF"/>
<path opacity="0.6" d="M85.8828 84.8254V89.0159L82.1995 91.1112V86.9207L85.8828 84.8254Z" fill="#7BAEFF"/>
<path d="M92.4876 81.0159V85.2063L88.8677 87.3016L88.8042 83.1111L92.4876 81.0159Z" fill="#7BAEFF"/>
<path opacity="0.6" d="M99.0925 77.2063V81.3968L95.4727 83.492V79.3015L99.0925 77.2063Z" fill="#7BAEFF"/>
<path opacity="0.4" d="M105.697 73.3969V77.5238L102.077 79.6191V75.4921L105.697 73.3969Z" fill="#7BAEFF"/>
<path d="M112.302 69.5238V73.7143L108.682 75.8095V71.619L112.302 69.5238Z" fill="#7BAEFF"/>
<path opacity="0.4" d="M46.1914 114.921V119.111L42.5715 121.206V117.016L46.1914 114.921Z" fill="#7BAEFF"/>
<path opacity="0.2" d="M52.7961 111.111V115.302L49.1763 117.397V113.206L52.7961 111.111Z" fill="#7BAEFF"/>
<path opacity="0.4" d="M59.4006 107.302L59.4641 111.492L55.7808 113.587V109.397L59.4006 107.302Z" fill="#7BAEFF"/>
<path d="M66.0689 103.492V107.682L62.3855 109.778V105.587L66.0689 103.492Z" fill="#7BAEFF"/>
<path d="M72.6736 99.6825V103.873L69.0537 105.968L68.9902 101.778L72.6736 99.6825Z" fill="#7BAEFF"/>
<path opacity="0.2" d="M79.2784 95.873V100L75.6585 102.159L75.595 97.9683L79.2784 95.873Z" fill="#7BAEFF"/>
<path opacity="0.2" d="M85.8831 92.0635V96.1905L82.2632 98.2857V94.1587L85.8831 92.0635Z" fill="#7BAEFF"/>
<path d="M92.4878 88.2539V92.3809L88.8679 94.4761V90.3491L92.4878 88.2539Z" fill="#7BAEFF"/>
<path opacity="0.4" d="M99.0925 84.3809V88.5713L95.4727 90.6666V86.4761L99.0925 84.3809Z" fill="#7BAEFF"/>
<path d="M105.697 80.5714V84.7619L102.077 86.8571V82.6666L105.697 80.5714Z" fill="#7BAEFF"/>
<path d="M112.302 76.762L112.365 80.9524L108.682 83.0477V78.8572L112.302 76.762Z" fill="#7BAEFF"/>
<path opacity="0.6" d="M46.1914 122.159L46.2549 126.349L42.5715 128.444V124.254L46.1914 122.159Z" fill="#7BAEFF"/>
<path d="M52.8596 118.349V122.54L49.2398 124.635L49.1763 120.444L52.8596 118.349Z" fill="#7BAEFF"/>
<path d="M59.4641 114.54V118.73L55.8443 120.825L55.7808 116.635L59.4641 114.54Z" fill="#7BAEFF"/>
<path opacity="0.6" d="M66.0691 110.73V114.857L62.4492 116.952V112.825L66.0691 110.73Z" fill="#7BAEFF"/>
<path d="M72.6738 106.921V111.048L69.054 113.143V109.016L72.6738 106.921Z" fill="#7BAEFF"/>
<path d="M79.2783 103.048V107.238L75.6584 109.333V105.143L79.2783 103.048Z" fill="#7BAEFF"/>
<path opacity="0.6" d="M85.8831 99.238V103.429L82.2632 105.524V101.333L85.8831 99.238Z" fill="#7BAEFF"/>
<path d="M92.4878 95.4286V99.6191L88.8679 101.714V97.5238L92.4878 95.4286Z" fill="#7BAEFF"/>
<path opacity="0.4" d="M99.0925 91.619L99.156 95.8095L95.4727 97.9047V93.7143L99.0925 91.619Z" fill="#7BAEFF"/>
<path d="M105.761 87.8094V91.9999L102.141 94.0952L102.077 89.9047L105.761 87.8094Z" fill="#7BAEFF"/>
<path d="M112.365 84V88.1905L108.745 90.2857L108.682 86.0952L112.365 84Z" fill="#7BAEFF"/>
</g>
<path d="M92.17 145.651C92.4876 145.841 92.8051 146.349 92.8051 146.73C92.8051 147.111 92.5511 147.302 92.17 147.111L88.4232 144.952C88.1056 144.762 87.7881 144.254 87.7881 143.873C87.7881 143.492 88.0421 143.302 88.4232 143.492L92.17 145.651Z" fill="#3B4572"/>
<path d="M98.8383 149.524C99.1558 149.714 99.4733 150.222 99.4733 150.603C99.4733 150.984 99.2193 151.175 98.8383 150.984L95.0914 148.825C94.7738 148.635 94.4563 148.127 94.4563 147.746C94.4563 147.365 94.7103 147.175 95.0914 147.365L98.8383 149.524Z" fill="#3B4572"/>
<path d="M121.256 162.413C121.574 162.603 121.891 163.111 121.891 163.492C121.891 163.873 121.637 164.063 121.256 163.873L117.509 161.714C117.192 161.524 116.874 161.016 116.874 160.635C116.874 160.254 117.128 160.063 117.509 160.254L121.256 162.413Z" fill="#3B4572"/>
<path d="M105.062 153.143V154.476L103.919 153.778V152.508L105.062 153.143Z" fill="#3B4572"/>
<path d="M108.047 154.857V156.19L106.904 155.492V154.222L108.047 154.857Z" fill="#3B4572"/>
<path d="M128.051 166.413V167.746L126.908 167.048V165.714L128.051 166.413Z" fill="#3B4572"/>
<path d="M85.1844 141.651V142.984L84.0413 142.286V141.016L85.1844 141.651Z" fill="#3B4572"/>
<path d="M192.638 145.651C192.32 145.841 192.002 146.349 192.002 146.73C192.002 147.111 192.256 147.302 192.638 147.111L196.384 144.952C196.702 144.762 197.019 144.254 197.019 143.873C197.019 143.492 196.765 143.302 196.384 143.492L192.638 145.651Z" fill="#3B4572"/>
<path d="M185.97 149.524C185.652 149.714 185.334 150.222 185.334 150.603C185.334 150.984 185.588 151.175 185.97 150.984L189.716 148.825C190.034 148.635 190.351 148.127 190.351 147.746C190.351 147.365 190.097 147.175 189.716 147.365L185.97 149.524Z" fill="#3B4572"/>
<path d="M163.615 162.413C163.298 162.603 162.98 163.111 162.98 163.492C162.98 163.873 163.234 164.063 163.615 163.873L167.362 161.714C167.679 161.524 167.997 161.016 167.997 160.635C167.997 160.254 167.743 160.063 167.362 160.254L163.615 162.413Z" fill="#3B4572"/>
<path d="M179.746 153.143V154.476L180.952 153.778V152.508L179.746 153.143Z" fill="#3B4572"/>
<path d="M176.824 154.857V156.19L177.968 155.492V154.222L176.824 154.857Z" fill="#3B4572"/>
<path d="M156.82 166.413V167.746L157.963 167.048V165.714L156.82 166.413Z" fill="#3B4572"/>
<path d="M199.687 141.651V142.984L200.83 142.286V141.016L199.687 141.651Z" fill="#3B4572"/>
<defs>
<linearGradient id="paint0_linear_39_7023" x1="132.902" y1="10.4332" x2="177.306" y2="79.9934" gradientUnits="userSpaceOnUse">
<stop stop-color="#29ABE2"/>
<stop offset="1" stop-color="#29ABE2" stop-opacity="0"/>
</linearGradient>
<linearGradient id="paint1_linear_39_7023" x1="124.447" y1="7.72011" x2="177.338" y2="105.036" gradientUnits="userSpaceOnUse">
<stop stop-color="#29ABE2"/>
<stop offset="1" stop-color="#29ABE2" stop-opacity="0"/>
</linearGradient>
<linearGradient id="paint2_linear_39_7023" x1="115.742" y1="12.1272" x2="167.654" y2="111.729" gradientUnits="userSpaceOnUse">
<stop stop-color="#29ABE2"/>
<stop offset="1" stop-color="#29ABE2" stop-opacity="0"/>
</linearGradient>
<linearGradient id="paint3_linear_39_7023" x1="120.685" y1="139.617" x2="164.364" y2="139.617" gradientUnits="userSpaceOnUse">
<stop stop-color="#29ABE2"/>
<stop offset="1" stop-color="#29ABE2" stop-opacity="0"/>
</linearGradient>
<linearGradient id="paint4_linear_39_7023" x1="120.685" y1="134.512" x2="164.364" y2="134.512" gradientUnits="userSpaceOnUse">
<stop stop-color="#29ABE2"/>
<stop offset="1" stop-color="#29ABE2" stop-opacity="0"/>
</linearGradient>
<linearGradient id="paint5_linear_39_7023" x1="120.685" y1="129.407" x2="164.364" y2="129.407" gradientUnits="userSpaceOnUse">
<stop stop-color="#29ABE2"/>
<stop offset="1" stop-color="#29ABE2" stop-opacity="0"/>
</linearGradient>
</defs>
</svg>
