<svg width="278" height="200" viewBox="0 0 278 200" fill="none" xmlns="http://www.w3.org/2000/svg">
<g opacity="0.2">
<path d="M127.978 102.741L87.7679 126.17L47.3154 102.741L87.5257 79.3939L127.978 102.741Z" fill="#5B639D"/>
</g>
<g opacity="0.2">
<path d="M92.2093 61.944L74.9302 71.9616L57.5703 61.944L74.8494 51.9264L92.2093 61.944Z" fill="#5B639D"/>
</g>
<g opacity="0.2">
<path d="M23.1734 151.052L11.6271 157.757L0 151.052L11.5463 144.266L23.1734 151.052Z" fill="#5B639D"/>
</g>
<g opacity="0.2">
<path d="M29.2295 161.877L22.77 165.674L16.3105 161.877L22.6893 158.161L29.2295 161.877Z" fill="#5B639D"/>
</g>
<g opacity="0.2">
<path d="M186.598 180.378L175.052 187.083L163.425 180.378L174.971 173.672L186.598 180.378Z" fill="#5B639D"/>
</g>
<g opacity="0.2">
<path d="M192.573 191.284L186.195 195L179.654 191.284L186.114 187.487L192.573 191.284Z" fill="#5B639D"/>
</g>
<g opacity="0.2">
<path d="M273.882 167.209L256.603 177.227L239.243 167.209L256.522 157.192L273.882 167.209Z" fill="#5B639D"/>
</g>
<g opacity="0.2">
<path d="M269.36 147.174L262.901 150.89L256.441 147.174L262.901 143.458L269.36 147.174Z" fill="#5B639D"/>
</g>
<g opacity="0.2">
<path d="M95.358 168.664L83.7309 175.45L71.9424 168.664L83.6502 161.877L95.358 168.664Z" fill="#5B639D"/>
</g>
<g opacity="0.2">
<path d="M259.833 105.407L242.554 115.425L225.194 105.407L242.473 95.309L259.833 105.407Z" fill="#5B639D"/>
</g>
<g opacity="0.2">
<path d="M278 93.2893L266.373 100.075L254.584 93.2893L266.292 86.5032L278 93.2893Z" fill="#5B639D"/>
</g>
<g opacity="0.2">
<path d="M90.0289 148.063L66.6132 161.716L43.0361 148.063L66.4518 134.41L90.0289 148.063Z" fill="#5B639D"/>
</g>
<path opacity="0.53" d="M175.052 32.2144C172.307 30.5986 168.431 30.841 164.071 33.4262C163.506 33.7493 162.94 34.1533 162.375 34.5572C162.456 33.8301 162.456 33.1838 162.456 32.4567C162.456 32.2144 162.456 31.8912 162.456 31.6489C162.456 29.0637 162.214 26.6401 161.81 24.4588C160.518 17.8343 157.369 13.0679 152.928 10.5635C146.872 7.08963 138.475 7.65514 129.19 13.1487C114.01 22.116 101.172 41.2625 97.1344 59.5204C96.1655 59.9243 95.1965 60.409 94.2276 60.9745C82.439 67.9222 72.8306 84.4835 72.8306 97.975C72.8306 104.599 75.1721 109.285 78.8863 111.466C82.762 113.728 88.1718 113.405 94.2276 109.851C100.526 106.134 106.824 102.418 113.122 98.702C113.202 98.702 113.202 98.6212 113.283 98.6212C113.525 98.8636 113.768 99.106 114.091 99.2675C115.463 100.075 117.32 99.9946 119.5 98.7828C129.432 92.9662 139.283 87.1495 149.214 81.3328C151.798 79.7979 154.059 76.9703 155.35 73.9812C158.257 72.2847 161.164 70.5074 164.152 68.8109C172.63 63.8021 179.493 51.6032 179.493 41.9088C179.412 37.1424 177.716 33.7493 175.052 32.2144Z" fill="url(#paint0_linear_39_7536)"/>
<path opacity="0.33" d="M165.847 25.913C163.102 24.2972 159.226 24.5396 154.866 27.1248C154.301 27.4479 153.736 27.8519 153.171 28.2558C153.251 27.5287 153.251 26.8824 153.251 26.1553C153.251 25.913 153.251 25.5898 153.251 25.3475C153.251 22.7623 153.009 20.3387 152.605 18.1574C151.313 11.5329 148.164 6.76648 143.724 4.26208C137.668 0.788243 129.27 1.35375 119.985 6.84726C104.805 15.8146 91.967 34.9611 87.9298 53.219C86.9609 53.6229 85.9919 54.1076 85.023 54.6731C73.2345 61.6208 63.626 78.1821 63.626 91.6736C63.626 98.2981 65.9675 102.984 69.6817 105.165C73.5574 107.427 78.9672 107.104 85.023 103.549C91.321 99.833 97.619 96.1168 103.917 92.4006C103.998 92.4006 103.998 92.3198 104.078 92.3198C104.321 92.5622 104.563 92.8046 104.886 92.9661C106.259 93.774 108.116 93.6932 110.296 92.4814C120.227 86.6648 130.078 80.8481 140.009 75.0314C142.593 73.4965 144.854 70.669 146.146 67.6798C149.053 65.9833 151.959 64.206 154.947 62.5095C163.425 57.5007 170.288 45.3018 170.288 35.6074C170.288 30.841 168.593 27.4479 165.847 25.913Z" fill="url(#paint1_linear_39_7536)"/>
<g opacity="0.43">
<path d="M264.596 112.193C270.168 115.425 270.248 120.676 264.677 123.907L165.363 181.67C159.791 184.902 150.667 184.902 145.096 181.67L45.2161 123.988C39.6448 120.757 39.5641 115.506 45.1354 112.274L144.45 54.5115C150.021 51.28 159.145 51.28 164.717 54.5115L264.596 112.193ZM254.503 129.401L264.273 123.746C269.602 120.595 269.602 115.586 264.193 112.436L254.342 106.781L234.883 118.091L254.503 129.401ZM214.858 152.506L234.318 141.196L214.697 129.886L195.238 141.196L214.858 152.506ZM175.132 175.611L194.592 164.301L174.971 152.991L155.512 164.301L175.132 175.611ZM134.922 106.296L154.381 94.9858L134.761 83.6756L115.302 94.9858L134.922 106.296ZM174.89 129.401L194.349 118.091L174.729 106.781L155.27 118.091L174.89 129.401ZM95.1964 129.401L114.656 118.091L95.0349 106.781L75.5757 118.091L95.1964 129.401ZM174.648 83.2717L194.107 71.9615L174.487 60.6513L155.027 71.9615L174.648 83.2717ZM135.164 152.506L154.624 141.196L135.003 129.886L115.544 141.196L135.164 152.506ZM214.616 106.296L234.075 94.9858L214.455 83.6756L194.995 94.9858L214.616 106.296ZM154.624 71.7191L174.083 60.4089L164.313 54.7539C158.903 51.6032 150.183 51.6032 144.854 54.7539L135.084 60.4089L154.624 71.7191ZM165.04 181.509L174.81 175.853L155.189 164.543L135.73 175.853L145.58 181.509C150.909 184.578 159.63 184.578 165.04 181.509ZM114.898 94.8242L134.357 83.514L114.736 72.2038L95.2771 83.514L114.898 94.8242ZM194.834 140.954L214.293 129.643L194.672 118.333L175.213 129.643L194.834 140.954ZM154.866 117.848L174.325 106.538L154.704 95.2281L135.245 106.538L154.866 117.848ZM194.995 164.059L214.455 152.748L194.834 141.438L175.375 152.748L194.995 164.059ZM155.189 164.059L174.648 152.748L155.027 141.438L135.568 152.748L155.189 164.059ZM234.56 117.848L254.019 106.538L234.398 95.2281L214.939 106.538L234.56 117.848ZM234.721 140.954L254.18 129.643L234.56 118.333L215.101 129.643L234.721 140.954ZM75.2527 117.848L94.7119 106.538L75.0913 95.2281L55.6321 106.538L75.2527 117.848ZM115.221 140.954L134.68 129.643L115.059 118.333L95.6001 129.643L115.221 140.954ZM194.592 94.8242L214.051 83.514L194.43 72.2038L174.971 83.514L194.592 94.8242ZM75.3335 140.954L94.7927 129.643L75.172 118.333L55.7128 129.643L75.3335 140.954ZM115.302 164.059L134.761 152.748L115.14 141.438L95.6809 152.748L115.302 164.059ZM115.059 117.848L134.519 106.538L114.898 95.2281L95.4386 106.538L115.059 117.848ZM154.785 94.8242L174.244 83.514L154.624 72.2038L135.164 83.514L154.785 94.8242ZM194.753 117.848L214.212 106.538L194.592 95.2281L175.132 106.538L194.753 117.848ZM155.027 140.954L174.487 129.643L154.866 118.333L135.407 129.643L155.027 140.954ZM55.3898 129.401L74.849 118.091L55.2283 106.781L45.4584 112.436C40.1293 115.586 40.1293 120.595 45.5391 123.746L55.3898 129.401ZM135.326 175.611L154.785 164.301L135.164 152.991L115.705 164.301L135.326 175.611ZM95.3579 152.506L114.817 141.196L95.1964 129.886L75.7372 141.196L95.3579 152.506ZM214.697 129.401L234.156 118.091L214.535 106.781L195.076 118.091L214.697 129.401ZM95.1157 106.296L114.575 94.9858L94.9542 83.6756L75.495 94.9858L95.1157 106.296ZM134.761 83.2717L154.22 71.9615L134.599 60.6513L115.14 71.9615L134.761 83.2717ZM174.971 152.506L194.43 141.196L174.81 129.886L155.35 141.196L174.971 152.506ZM135.084 129.401L154.543 118.091L134.922 106.781L115.463 118.091L135.084 129.401ZM174.729 106.296L194.188 94.9858L174.567 83.6756L155.108 94.9858L174.729 106.296Z" fill="#8DABFF"/>
</g>
<g opacity="0.29">
<path d="M264.596 117.606C270.168 120.838 270.248 126.089 264.677 129.32L165.363 187.083C159.791 190.314 150.667 190.314 145.096 187.083L45.2161 129.32C39.6448 126.089 39.5641 120.838 45.1354 117.606L144.45 59.8435C150.021 56.6121 159.145 56.6121 164.717 59.8435L264.596 117.606ZM254.503 134.814L264.273 129.159C269.602 126.008 269.602 120.999 264.193 117.849L254.342 112.193L234.883 123.504L254.503 134.814ZM214.858 157.838L234.318 146.528L214.697 135.218L195.238 146.528L214.858 157.838ZM175.132 180.943L194.592 169.633L174.971 158.323L155.512 169.633L175.132 180.943ZM134.922 111.709L154.381 100.399L134.761 89.0884L115.302 100.399L134.922 111.709ZM174.89 134.814L194.349 123.504L174.729 112.193L155.27 123.504L174.89 134.814ZM95.1964 134.814L114.656 123.504L95.0349 112.193L75.5757 123.504L95.1964 134.814ZM174.648 88.6037L194.107 77.2935L174.487 65.9833L155.027 77.2935L174.648 88.6037ZM135.164 157.838L154.624 146.528L135.003 135.218L115.544 146.528L135.164 157.838ZM214.616 111.709L234.075 100.399L214.455 89.0884L194.995 100.399L214.616 111.709ZM154.624 77.0512L174.083 65.741L164.313 60.0859C158.903 56.9352 150.183 56.9352 144.854 60.0859L135.084 65.741L154.624 77.0512ZM165.04 186.841L174.81 181.186L155.189 169.875L135.73 181.186L145.58 186.841C150.909 189.991 159.63 189.991 165.04 186.841ZM114.898 100.156L134.357 88.846L114.736 77.5359L95.2771 88.846L114.898 100.156ZM194.834 146.286L214.293 134.975L194.672 123.665L175.213 134.975L194.834 146.286ZM154.866 123.261L174.325 111.951L154.704 100.641L135.245 111.951L154.866 123.261ZM194.995 169.391L214.455 158.08L194.834 146.77L175.375 158.08L194.995 169.391ZM155.189 169.391L174.648 158.08L155.027 146.77L135.568 158.08L155.189 169.391ZM234.56 123.261L254.019 111.951L234.398 100.641L214.939 111.951L234.56 123.261ZM234.721 146.286L254.18 134.975L234.56 123.665L215.101 134.975L234.721 146.286ZM75.2527 123.261L94.7119 111.951L75.0913 100.641L55.6321 111.951L75.2527 123.261ZM115.221 146.286L134.68 134.975L115.059 123.665L95.6001 134.975L115.221 146.286ZM194.592 100.156L214.051 88.846L194.43 77.5359L174.971 88.846L194.592 100.156ZM75.3335 146.286L94.7927 134.975L75.172 123.665L55.7128 134.975L75.3335 146.286ZM115.302 169.391L134.761 158.08L115.14 146.77L95.6809 158.08L115.302 169.391ZM115.059 123.261L134.519 111.951L114.898 100.641L95.4386 111.951L115.059 123.261ZM154.785 100.156L174.244 88.846L154.624 77.5359L135.164 88.846L154.785 100.156ZM194.753 123.261L214.212 111.951L194.592 100.641L175.132 111.951L194.753 123.261ZM155.027 146.286L174.487 134.975L154.866 123.665L135.407 134.975L155.027 146.286ZM55.3898 134.814L74.849 123.504L55.2283 112.193L45.4584 117.849C40.1293 120.999 40.1293 126.008 45.5391 129.159L55.3898 134.814ZM135.326 180.943L154.785 169.633L135.164 158.323L115.705 169.633L135.326 180.943ZM95.3579 157.838L114.817 146.528L95.1964 135.218L75.7372 146.528L95.3579 157.838ZM214.697 134.814L234.156 123.504L214.535 112.193L195.076 123.504L214.697 134.814ZM95.1157 111.709L114.575 100.399L94.9542 89.0884L75.495 100.399L95.1157 111.709ZM134.761 88.6037L154.22 77.2935L134.599 65.9833L115.14 77.2935L134.761 88.6037ZM174.971 157.838L194.43 146.528L174.81 135.218L155.35 146.528L174.971 157.838ZM135.084 134.814L154.543 123.504L134.922 112.193L115.463 123.504L135.084 134.814ZM174.729 111.709L194.188 100.399L174.567 89.0884L155.108 100.399L174.729 111.709Z" fill="#8DABFF"/>
</g>
<path d="M199.033 19.5308V20.6618L196.207 22.3583V21.2273L199.033 19.5308Z" fill="#8DABFF"/>
<path d="M199.033 17.7535V18.8846L196.207 20.5003V19.3693L199.033 17.7535Z" fill="#8DABFF"/>
<path d="M195.077 21.7928V23.0047L193.704 23.8125V22.6815L195.077 21.7928Z" fill="#8DABFF"/>
<path d="M195.077 20.0155V21.1465L193.704 21.9544V20.8234L195.077 20.0155Z" fill="#8DABFF"/>
<path d="M201.455 18.1575V19.2885L200.083 20.0964L200.002 18.9653L201.455 18.1575Z" fill="#8DABFF"/>
<path d="M201.455 16.2993V17.4303L200.002 18.319V17.1072L201.455 16.2993Z" fill="#8DABFF"/>
<path d="M91.8862 65.9025V67.0335L90.3521 67.9221V66.7911L91.8862 65.9025Z" fill="#8DABFF"/>
<path d="M91.8862 67.8413V68.9723L90.3521 69.861V68.6492L91.8862 67.8413Z" fill="#8DABFF"/>
<path d="M94.3085 64.5291V65.6601L92.7744 66.5487V65.4177L94.3085 64.5291Z" fill="#8DABFF"/>
<path d="M94.3085 66.3872V67.599L92.7744 68.4069V67.2759L94.3085 66.3872Z" fill="#8DABFF"/>
<path d="M98.9917 61.7823V62.9134L95.1968 65.1754V63.9636L98.9917 61.7823Z" fill="#8DABFF"/>
<path d="M98.9917 63.7212V64.8522L95.1968 67.0335V65.9024L98.9917 63.7212Z" fill="#8DABFF"/>
<path d="M202.343 95.7129V96.8439L199.437 98.5404V97.3286L202.343 95.7129Z" fill="#8DABFF"/>
<path d="M202.343 93.7739V94.9049L199.437 96.5207V95.3897L202.343 93.7739Z" fill="#8DABFF"/>
<path d="M204.039 92.7238V93.8548L202.908 94.5819L202.828 93.4508L204.039 92.7238Z" fill="#8DABFF"/>
<path d="M206.3 91.4312V92.5622L205.492 93.0469V91.9159L206.3 91.4312Z" fill="#8DABFF"/>
<path d="M207.753 90.5425V91.7543L206.946 92.239V91.0272L207.753 90.5425Z" fill="#8DABFF"/>
<path d="M204.039 94.7434V95.8744L202.908 96.5207V95.3897L204.039 94.7434Z" fill="#8DABFF"/>
<path d="M206.3 93.37V94.5818L205.492 94.9857V93.8547L206.3 93.37Z" fill="#8DABFF"/>
<path d="M207.753 92.5621V93.6932L206.945 94.1779V93.0469L207.753 92.5621Z" fill="#8DABFF"/>
<path d="M108.277 174.803V175.934L111.184 177.631V176.5L108.277 174.803Z" fill="#8DABFF"/>
<path d="M108.277 172.864V173.995L111.184 175.611V174.48L108.277 172.864Z" fill="#8DABFF"/>
<path d="M106.581 171.814V173.026L107.792 173.672V172.541L106.581 171.814Z" fill="#8DABFF"/>
<path d="M104.32 170.522V171.653L105.128 172.137V171.006L104.32 170.522Z" fill="#8DABFF"/>
<path d="M102.867 169.714V170.845L103.675 171.329V170.198L102.867 169.714Z" fill="#8DABFF"/>
<path d="M106.581 173.834V174.965L107.792 175.692V174.48L106.581 173.834Z" fill="#8DABFF"/>
<path d="M104.32 172.541V173.672L105.128 174.157V173.026L104.32 172.541Z" fill="#8DABFF"/>
<path d="M102.867 171.653V172.784L103.675 173.268V172.137L102.867 171.653Z" fill="#8DABFF"/>
<path opacity="0.82" d="M154.22 154.768C184.187 154.768 208.48 140.698 208.48 123.342C208.48 105.986 184.187 91.9159 154.22 91.9159C124.253 91.9159 99.9604 105.986 99.9604 123.342C99.9604 140.698 124.253 154.768 154.22 154.768Z" fill="url(#paint2_radial_39_7536)"/>
<path d="M173.195 59.8435C174.003 61.944 174.083 68.003 170.934 73.9005C170.127 73.4965 169.4 73.0118 168.593 72.6079C169.562 70.5882 170.127 68.4877 170.127 66.5488C170.127 61.8632 166.817 60.0051 162.779 62.4287C158.661 64.8523 155.432 70.5882 155.432 75.193C155.432 79.8787 158.742 81.7368 162.779 79.3132C164.313 78.4245 165.686 77.0511 166.897 75.5162C167.624 75.9201 168.431 76.3241 169.158 76.8088C167.462 79.0708 165.202 81.8984 162.295 83.2717C150.183 89.0884 149.78 76.1625 154.866 65.4178C159.953 54.6732 162.376 48.2102 162.456 47.8063C162.618 47.8871 165.928 49.5028 165.121 58.5509C166.09 56.7736 166.978 54.9963 167.947 53.2998C168.028 53.3806 171.903 56.5313 173.195 59.8435Z" fill="#A3A6C8"/>
<path d="M163.586 16.9457C171.176 21.389 178.847 25.8322 186.437 30.2755C180.381 26.8017 171.984 27.3672 162.698 32.8607C147.518 41.8281 134.68 60.9746 130.643 79.2324L107.712 65.8218C111.749 47.5639 124.507 28.3366 139.767 19.4501C149.133 13.8758 157.531 13.3103 163.586 16.9457Z" fill="url(#paint3_linear_39_7536)"/>
<path d="M156.32 108.154C156.32 109.77 155.19 111.79 153.736 112.678C152.283 113.486 151.152 112.84 151.152 111.224C151.152 109.608 152.283 107.589 153.736 106.7C155.109 105.811 156.32 106.458 156.32 108.154Z" fill="#8DABFF"/>
<path d="M176.99 95.9554C176.99 96.4401 176.667 97.0056 176.183 97.3287C175.052 97.975 173.922 98.7021 172.791 99.3484C172.388 99.5908 171.984 99.4292 171.984 98.9445C171.984 98.4598 172.307 97.8943 172.791 97.5711C173.922 96.9248 175.052 96.1977 176.183 95.5514C176.667 95.2283 176.99 95.4706 176.99 95.9554Z" fill="white"/>
<path d="M184.66 91.4313C184.66 92.2391 184.095 93.2086 183.449 93.6125C182.722 94.0164 182.157 93.6933 182.157 92.8854C182.157 92.0775 182.722 91.1081 183.449 90.7042C184.095 90.3002 184.66 90.6234 184.66 91.4313Z" fill="#FFDB43"/>
<path d="M163.102 104.115C163.102 105.731 161.972 107.75 160.518 108.639C159.065 109.447 157.935 108.8 157.935 107.185C157.935 105.569 159.065 103.549 160.518 102.661C161.972 101.772 163.102 102.418 163.102 104.115Z" fill="#FFDB43"/>
<path d="M170.288 99.9138C170.288 100.399 169.965 100.964 169.481 101.287C168.35 101.934 167.22 102.661 166.09 103.307C165.686 103.549 165.282 103.388 165.282 102.903C165.282 102.418 165.605 101.853 166.09 101.53C167.22 100.883 168.35 100.156 169.481 99.5099C169.885 99.2675 170.288 99.4291 170.288 99.9138Z" fill="white"/>
<path d="M188.132 89.4116C188.132 92.8854 185.629 97.1671 182.642 98.9444C172.71 104.761 162.86 110.578 152.928 116.394C149.86 118.172 147.438 116.798 147.438 113.325C147.438 109.851 149.941 105.569 152.928 103.792C162.86 97.975 172.71 92.1583 182.642 86.3417C185.71 84.5644 188.132 85.9377 188.132 89.4116ZM183.449 93.6125C184.176 93.2086 184.66 92.2391 184.66 91.4312C184.66 90.6234 184.095 90.3002 183.449 90.7042C182.722 91.1081 182.157 92.0775 182.157 92.8854C182.157 93.6933 182.722 94.0164 183.449 93.6125ZM176.263 97.2479C176.667 97.0056 177.07 96.3593 177.07 95.8745C177.07 95.3898 176.747 95.2282 176.263 95.4706C175.133 96.1169 174.002 96.844 172.872 97.4903C172.468 97.7326 172.064 98.3789 172.064 98.8637C172.064 99.3484 172.387 99.5099 172.872 99.2676C173.921 98.6213 175.133 97.975 176.263 97.2479ZM169.48 101.287C169.884 101.045 170.288 100.399 170.288 99.9139C170.288 99.4292 169.965 99.2676 169.48 99.5099C168.35 100.156 167.22 100.883 166.089 101.53C165.686 101.772 165.282 102.418 165.282 102.903C165.282 103.388 165.605 103.549 166.089 103.307C167.22 102.58 168.35 101.934 169.48 101.287ZM160.518 108.639C161.971 107.831 163.102 105.811 163.102 104.115C163.102 102.499 161.971 101.853 160.518 102.661C159.065 103.469 157.934 105.488 157.934 107.185C157.934 108.881 159.065 109.447 160.518 108.639ZM153.655 112.597C155.108 111.79 156.239 109.77 156.239 108.073C156.239 106.458 155.108 105.811 153.655 106.619C152.201 107.427 151.071 109.447 151.071 111.143C151.071 112.84 152.282 113.486 153.655 112.597Z" fill="#3B4572"/>
<path d="M167.947 67.7607C167.947 71.0729 165.605 75.0315 162.779 76.728C159.872 78.4245 157.611 77.1319 157.611 73.8197C157.611 70.5074 159.953 66.5489 162.779 64.8523C165.605 63.2366 167.947 64.5292 167.947 67.7607Z" fill="#A3A6C8"/>
<path d="M145.662 112.678L137.991 108.8C137.91 109.204 137.91 109.608 137.91 110.012C137.91 111.062 138.072 112.032 138.395 112.759C138.798 113.648 139.283 114.294 140.009 114.698C140.413 114.94 140.898 115.183 141.301 115.425C143.078 116.475 144.773 117.445 146.55 118.495C146.63 118.495 146.63 118.414 146.711 118.414C145.904 117.525 145.419 116.152 145.419 114.375C145.5 113.89 145.5 113.244 145.662 112.678Z" fill="#A3A6C8"/>
<path d="M137.991 108.8L145.661 112.678C145.823 111.87 145.984 110.982 146.307 110.174L138.556 106.296C138.233 107.104 138.071 107.993 137.991 108.8Z" fill="white"/>
<path d="M138.556 106.296L146.308 110.174C146.711 109.124 147.196 108.073 147.761 107.104L139.848 103.226C139.283 104.196 138.798 105.246 138.556 106.296Z" fill="#A3A6C8"/>
<path d="M180.381 79.1516C179.008 78.3438 177.07 78.4246 175.052 79.7171C165.12 85.5338 155.27 91.3505 145.338 97.1671C143.158 98.4597 141.14 100.722 139.848 103.226L147.761 107.104C149.133 104.842 150.91 102.822 152.928 101.61C162.86 95.7938 172.71 89.9771 182.642 84.1604C184.66 82.9486 186.517 82.7871 187.809 83.5141C185.387 82.06 182.884 80.6058 180.381 79.1516Z" fill="white"/>
<path d="M203.635 67.1951C203.635 70.9921 200.89 75.6777 197.58 77.6974C197.58 77.6974 197.499 77.6974 197.499 77.7782C195.076 79.3939 192.654 80.9289 190.232 82.3831C189.505 82.787 188.778 83.2717 188.052 83.6756L187.971 83.5949C185.468 82.1407 183.046 80.6865 180.543 79.2324C179.17 78.4245 177.313 78.5861 175.214 79.7979C165.282 85.6145 155.431 91.4312 145.5 97.2479C141.382 99.6715 138.072 105.407 138.072 110.093C138.072 111.143 138.233 112.113 138.556 112.84C135.003 114.94 131.451 117.041 127.817 119.141C121.115 123.1 115.706 120.03 115.706 112.436C115.706 104.842 121.115 95.3898 127.817 91.512C128.382 91.1888 128.947 90.8657 129.513 90.6233C131.612 89.7347 133.711 88.846 135.811 87.8766C136.78 87.4726 137.668 86.2608 137.991 85.049C138.556 82.3831 139.121 79.7171 139.767 77.0511C142.674 63.6405 152.202 49.8259 162.86 43.6053C176.102 35.8498 186.921 41.828 186.921 57.016C186.921 57.6622 186.921 58.3893 186.841 59.1164C186.598 62.5903 186.437 66.0641 186.195 69.6187C186.114 70.3458 186.356 70.8305 186.76 71.0729C187.164 71.3152 187.729 71.1537 188.375 70.7497C191.282 68.6493 194.269 66.5488 197.176 64.4484C197.418 64.2868 197.66 64.1252 197.902 63.9636C200.89 61.8632 203.635 63.3981 203.635 67.1951ZM170.853 73.9004C174.002 68.003 173.922 61.944 173.114 59.8435C171.822 56.612 168.027 53.4613 167.785 53.2998C166.816 55.0771 165.928 56.8544 164.959 58.5509C165.767 49.5028 162.537 47.887 162.295 47.8062C162.133 48.1294 159.711 54.6731 154.705 65.4178C149.618 76.1625 150.022 89.0076 162.133 83.2717C165.04 81.8983 167.301 79.0708 168.996 76.8088C168.27 76.4048 167.462 76.0009 166.735 75.5162C165.605 77.1319 164.152 78.4245 162.618 79.3131C158.5 81.7368 155.27 79.8787 155.27 75.193C155.27 70.5074 158.58 64.7715 162.618 62.4287C166.655 60.0051 169.965 61.8632 169.965 66.5488C169.965 68.4877 169.4 70.6689 168.431 72.6078C169.319 73.0118 170.127 73.4157 170.853 73.9004ZM162.698 76.8088C165.524 75.1122 167.866 71.0729 167.866 67.8414C167.866 64.5291 165.524 63.2365 162.698 64.9331C159.792 66.6296 157.531 70.6689 157.531 73.9004C157.531 77.1319 159.872 78.4245 162.698 76.8088Z" fill="#CCCEE5"/>
<path d="M147.519 119.141C147.196 118.98 146.873 118.737 146.55 118.576C146.631 118.576 146.631 118.495 146.711 118.495C146.954 118.737 147.196 118.98 147.519 119.141Z" fill="white"/>
<path d="M187.971 83.5949C189.021 84.2412 189.667 85.3722 189.909 86.9072C189.99 87.3111 189.99 87.7959 189.99 88.2806C189.99 90.0579 189.505 91.916 188.698 93.7741C187.325 96.844 185.064 99.6715 182.561 101.126C172.63 106.942 162.779 112.759 152.848 118.576C150.748 119.787 148.81 119.949 147.438 119.06C147.115 118.899 146.873 118.656 146.63 118.414C145.823 117.525 145.338 116.152 145.338 114.375C145.338 109.689 148.649 103.872 152.767 101.53C162.698 95.713 172.549 89.8963 182.48 84.0797C184.499 82.8678 186.356 82.7063 187.648 83.4334C187.89 83.5141 187.89 83.5141 187.971 83.5949ZM182.642 98.9445C185.71 97.1671 188.132 92.8854 188.132 89.4116C188.132 85.9377 185.629 84.5644 182.642 86.3417C172.71 92.1583 162.86 97.975 152.928 103.792C149.86 105.569 147.438 109.851 147.438 113.325C147.438 116.798 149.941 118.172 152.928 116.394C162.779 110.578 172.71 104.761 182.642 98.9445Z" fill="#CCCEE5"/>
<path d="M195.319 44.2517C195.723 46.433 195.965 48.8566 195.965 51.4417C195.965 51.6841 195.965 52.0073 195.965 52.2496C195.965 52.9767 195.884 53.623 195.884 54.3501C196.449 53.9461 197.014 53.5422 197.58 53.2191C201.859 50.7147 205.735 50.4723 208.561 52.0073C204.12 49.4221 199.679 46.8369 195.319 44.2517Z" fill="url(#paint4_linear_39_7536)"/>
<path d="M89.464 117.849C85.7498 115.667 83.4082 110.982 83.4082 104.357C83.4082 90.8658 93.0167 74.2236 104.805 67.3568C105.774 66.7912 106.743 66.3065 107.712 65.9026L130.562 79.394C129.594 79.7979 128.625 80.2827 127.656 80.8482C115.867 87.7959 106.259 104.357 106.259 117.849C106.259 124.473 108.6 129.159 112.314 131.34C104.725 126.816 97.1346 122.373 89.464 117.849Z" fill="url(#paint5_linear_39_7536)"/>
<path d="M189.99 86.9072C189.747 85.3722 189.021 84.1604 188.052 83.5949C188.778 83.191 189.505 82.7063 190.232 82.3023C192.654 80.8482 195.076 79.3132 197.499 77.6975C197.499 77.6975 197.579 77.6975 197.579 77.6167C200.89 75.6778 203.635 70.9922 203.635 67.1144C203.635 63.2366 200.89 61.7824 197.579 63.7213C197.337 63.8829 197.095 63.9637 196.853 64.2061C193.946 66.3065 190.958 68.407 188.052 70.5074C187.486 70.9114 186.921 71.0729 186.437 70.8306C186.033 70.5882 185.791 70.1035 185.872 69.3764C186.114 65.9026 186.275 62.4287 186.518 58.8741C186.598 58.147 186.598 57.42 186.598 56.7737C186.598 41.5857 175.859 35.6075 162.537 43.363C151.879 49.6644 142.351 63.3982 139.444 76.8088C138.879 79.4748 138.314 82.1408 137.668 84.8067C137.426 86.0185 136.457 87.2303 135.488 87.6343C133.388 88.5229 131.289 89.4116 129.19 90.381C128.624 90.6234 128.059 90.9465 127.494 91.2697C120.792 95.2282 115.383 104.6 115.383 112.193C115.383 119.787 120.792 122.857 127.494 118.899C131.047 116.798 134.599 114.698 138.233 112.597C138.637 113.486 139.121 114.132 139.848 114.536C140.252 114.779 140.736 115.021 141.14 115.263C136.618 117.929 132.016 120.595 127.494 123.342C118.693 128.512 111.507 124.554 111.507 114.456C111.507 104.357 118.693 91.916 127.494 86.7456C128.221 86.3417 128.947 85.9377 129.674 85.6146C131.208 84.9683 132.742 84.322 134.277 83.5949C134.68 81.656 135.165 79.6364 135.568 77.6975C138.96 62.1056 150.021 46.029 162.456 38.7582C177.878 29.71 190.393 36.6577 190.393 54.35C190.393 55.1579 190.393 55.9658 190.313 56.7737C190.151 59.3588 189.99 61.8632 189.828 64.4484C192.008 62.9135 194.107 61.3785 196.288 59.8436C196.691 59.6012 197.095 59.278 197.418 59.1165C202.909 55.885 207.349 58.3894 207.349 64.6908C207.349 70.9922 202.909 78.6669 197.418 81.8984C194.996 83.3526 192.573 84.8875 190.151 86.5033C190.151 86.5033 190.07 86.5033 190.07 86.584C190.151 86.8264 190.07 86.8264 189.99 86.9072Z" fill="#5B639D"/>
<path d="M208.561 52.0072C211.306 53.5422 212.921 56.9352 212.921 61.7017C212.921 71.3961 206.058 83.5949 197.58 88.6037C194.673 90.3002 191.685 92.0775 188.779 93.7741C189.586 91.916 190.071 90.0579 190.071 88.2806C190.071 87.7958 190.071 87.3919 189.99 86.9072C190.071 86.8264 190.151 86.8264 190.232 86.7456C190.232 86.7456 190.313 86.7456 190.313 86.6648C192.735 85.0491 195.157 83.5141 197.58 82.06C203.07 78.8285 207.511 71.0729 207.511 64.8523C207.511 58.551 203.07 56.0466 197.58 59.278C197.257 59.5204 196.853 59.7628 196.449 60.0051C194.269 61.5401 192.17 63.075 189.99 64.61C190.151 62.0248 190.313 59.5204 190.474 56.9352C190.555 56.1274 190.555 55.3195 190.555 54.5116C190.555 36.9001 178.04 29.8716 162.618 38.9197C150.264 46.1906 139.202 62.1864 135.73 77.859C135.326 79.7979 134.842 81.8176 134.438 83.7565C132.904 84.4028 131.37 85.0491 129.836 85.7762C129.109 86.0993 128.383 86.5032 127.656 86.9072C118.855 92.0775 111.669 104.519 111.669 114.617C111.669 124.715 118.855 128.674 127.656 123.504C132.177 120.838 136.78 118.172 141.301 115.425C143.078 116.475 144.773 117.445 146.55 118.495C140.252 122.211 133.954 125.927 127.656 129.643C121.681 133.198 116.19 133.521 112.315 131.259C108.6 129.078 106.259 124.392 106.259 117.768C106.259 104.276 115.867 87.6343 127.656 80.7674C128.625 80.2019 129.594 79.7171 130.563 79.3132C134.6 61.0554 147.357 41.8281 162.618 32.9415C171.903 27.448 180.381 26.8825 186.356 30.3563C190.797 32.9415 193.946 37.6271 195.238 44.2517C195.642 46.4329 195.884 48.8565 195.884 51.4417C195.884 51.6841 195.884 52.0072 195.884 52.2496C195.884 52.9767 195.803 53.623 195.803 54.35C196.369 53.9461 196.934 53.5422 197.499 53.219C201.859 50.6338 205.735 50.3915 208.561 52.0072Z" fill="#CCCEE5"/>
<path d="M58.539 119.141L53.3714 122.211L48.123 119.141L53.2906 116.152L58.539 119.141Z" fill="#F7F7F7"/>
<path opacity="0.75" d="M58.539 75.0315H48.123V119.141H58.539V75.0315Z" fill="url(#paint6_linear_39_7536)"/>
<path d="M160.196 175.127L155.028 178.116L149.86 175.127L155.028 172.137L160.196 175.127Z" fill="#F7F7F7"/>
<path opacity="0.75" d="M160.276 131.017H149.86V175.127H160.276V131.017Z" fill="url(#paint7_linear_39_7536)"/>
<path d="M262.901 118.253L257.734 121.242L252.485 118.253L257.653 115.263L262.901 118.253Z" fill="#F7F7F7"/>
<path opacity="0.75" d="M262.901 74.1428H252.485V118.252H262.901V74.1428Z" fill="url(#paint8_linear_39_7536)"/>
<defs>
<linearGradient id="paint0_linear_39_7536" x1="72.7938" y1="60.6199" x2="179.408" y2="60.6199" gradientUnits="userSpaceOnUse">
<stop stop-color="#29ABE2"/>
<stop offset="1" stop-color="#29ABE2" stop-opacity="0"/>
</linearGradient>
<linearGradient id="paint1_linear_39_7536" x1="63.6392" y1="54.3142" x2="170.254" y2="54.3142" gradientUnits="userSpaceOnUse">
<stop stop-color="#29ABE2"/>
<stop offset="1" stop-color="#29ABE2" stop-opacity="0"/>
</linearGradient>
<radialGradient id="paint2_radial_39_7536" cx="0" cy="0" r="1" gradientUnits="userSpaceOnUse" gradientTransform="translate(154.245 123.315) scale(54.2791 31.4608)">
<stop stop-color="#3A288D"/>
<stop offset="0.276042" stop-color="#0E3C4F" stop-opacity="0.5"/>
<stop offset="0.46875" stop-color="#093345" stop-opacity="0.58"/>
<stop offset="0.578125" stop-color="#1C769C" stop-opacity="0.31"/>
<stop offset="0.7491" stop-color="#259ACB"/>
<stop offset="0.7793" stop-color="#29ABE2"/>
<stop offset="1" stop-color="#3A288D" stop-opacity="0.29"/>
</radialGradient>
<linearGradient id="paint3_linear_39_7536" x1="168.902" y1="13.6413" x2="97.5735" y2="107.48" gradientUnits="userSpaceOnUse">
<stop stop-color="#F7F7F7"/>
<stop offset="1" stop-color="#A3A6C8"/>
</linearGradient>
<linearGradient id="paint4_linear_39_7536" x1="195.285" y1="49.2679" x2="208.524" y2="49.2679" gradientUnits="userSpaceOnUse">
<stop stop-color="#A3A6C8"/>
<stop offset="1" stop-color="#A3A6C8"/>
</linearGradient>
<linearGradient id="paint5_linear_39_7536" x1="122.184" y1="61.4451" x2="95.2787" y2="119.391" gradientUnits="userSpaceOnUse">
<stop stop-color="#A3A6C8"/>
<stop offset="1" stop-color="#CCCEE5"/>
</linearGradient>
<linearGradient id="paint6_linear_39_7536" x1="53.3312" y1="122.756" x2="53.3312" y2="80.6093" gradientUnits="userSpaceOnUse">
<stop stop-color="#29ABE2"/>
<stop offset="1" stop-color="#29ABE2" stop-opacity="0"/>
</linearGradient>
<linearGradient id="paint7_linear_39_7536" x1="155.031" y1="178.705" x2="155.031" y2="136.559" gradientUnits="userSpaceOnUse">
<stop stop-color="#29ABE2"/>
<stop offset="1" stop-color="#29ABE2" stop-opacity="0"/>
</linearGradient>
<linearGradient id="paint8_linear_39_7536" x1="257.693" y1="121.857" x2="257.693" y2="79.7107" gradientUnits="userSpaceOnUse">
<stop stop-color="#29ABE2"/>
<stop offset="1" stop-color="#29ABE2" stop-opacity="0"/>
</linearGradient>
</defs>
</svg>
